<?xml version="1.0" encoding="UTF-8" standalone="no"?>
<!DOCTYPE svg PUBLIC "-//W3C//DTD SVG 1.1//EN" "http://www.w3.org/Graphics/SVG/1.1/DTD/svg11.dtd">
<svg width="100%" height="100%" viewBox="0 0 2084 1555" version="1.1" xmlns="http://www.w3.org/2000/svg" xmlns:xlink="http://www.w3.org/1999/xlink" xml:space="preserve" xmlns:serif="http://www.serif.com/" style="fill-rule:evenodd;clip-rule:evenodd;stroke-linejoin:round;stroke-miterlimit:2;">
    <g transform="matrix(4.16667,0,0,4.16667,0,0)">
        <rect x="0" y="327.837" width="500" height="0.25" style="fill:rgb(229,229,228);fill-rule:nonzero;"/>
        <rect x="416.779" y="343.933" width="33.122" height="0.25" style="fill:rgb(229,229,228);fill-rule:nonzero;"/>
        <rect x="333.381" y="343.933" width="70.806" height="0.25" style="fill:rgb(229,229,228);fill-rule:nonzero;"/>
        <rect x="275.141" y="334.646" width="19.192" height="0.25" style="fill:rgb(229,229,228);fill-rule:nonzero;"/>
        <rect x="52.459" y="336.327" width="34.29" height="0.25" style="fill:rgb(229,229,228);fill-rule:nonzero;"/>
        <rect x="95.652" y="336.327" width="62.348" height="0.25" style="fill:rgb(229,229,228);fill-rule:nonzero;"/>
        <rect x="188.333" y="340.549" width="36.814" height="0.25" style="fill:rgb(229,229,228);fill-rule:nonzero;"/>
        <path d="M43.915,0.641C40.905,0.641 38.457,3.09 38.457,6.099L38.457,277.53C38.457,280.54 40.905,282.988 43.915,282.988L237.014,282.988C240.022,282.988 242.471,280.54 242.471,277.53L242.471,6.099C242.471,3.09 240.022,0.641 237.014,0.641L43.915,0.641ZM237.014,283.238L43.915,283.238C40.767,283.238 38.207,280.678 38.207,277.53L38.207,6.099C38.207,2.953 40.767,0.391 43.915,0.391L237.014,0.391C240.16,0.391 242.721,2.953 242.721,6.099L242.721,277.53C242.721,280.678 240.16,283.238 237.014,283.238Z" style="fill:rgb(229,229,228);fill-rule:nonzero;"/>
        <path d="M260.212,0.641C257.203,0.641 254.755,3.09 254.755,6.099L254.755,277.53C254.755,280.54 257.203,282.988 260.212,282.988L453.311,282.988C456.32,282.988 458.769,280.54 458.769,277.53L458.769,6.099C458.769,3.09 456.32,0.641 453.311,0.641L260.212,0.641ZM453.311,283.238L260.212,283.238C257.065,283.238 254.505,280.678 254.505,277.53L254.505,6.099C254.505,2.953 257.065,0.391 260.212,0.391L453.311,0.391C456.458,0.391 459.019,2.953 459.019,6.099L459.019,277.53C459.019,280.678 456.458,283.238 453.311,283.238Z" style="fill:rgb(229,229,228);fill-rule:nonzero;"/>
        <rect x="62.052" y="35.314" width="96.694" height="266.697" style="fill:rgb(240,240,240);fill-rule:nonzero;"/>
        <rect x="158.746" y="35.314" width="0.979" height="266.697" style="fill:rgb(229,229,228);fill-rule:nonzero;"/>
        <rect x="71.382" y="45.487" width="78.033" height="246.35" style="fill:white;fill-rule:nonzero;"/>
        <rect x="200.181" y="23.706" width="228.093" height="169.471" style="fill:rgb(224,224,223);fill-rule:nonzero;"/>
        <rect x="196.651" y="23.706" width="228.093" height="169.471" style="fill:rgb(240,240,240);fill-rule:nonzero;"/>
        <rect x="202.988" y="30.825" width="215.42" height="155.233" style="fill:white;fill-rule:nonzero;"/>
        <rect x="202.988" y="30.825" width="2.668" height="155.233" style="fill:rgb(224,224,223);fill-rule:nonzero;"/>
        <rect x="199.272" y="143.342" width="222.851" height="9.555" style="fill:rgb(240,240,240);fill-rule:nonzero;"/>
        <path d="M196.651,70.683L189.578,70.683L189.578,16.217L211.113,16.217L211.113,23.706L196.651,23.706L196.651,70.683Z" style="fill:rgb(240,240,240);fill-rule:nonzero;"/>
        <path d="M202.988,70.683L196.651,70.683L196.651,23.706L211.113,23.706L211.113,30.825L202.988,30.825L202.988,70.683Z" style="fill:rgb(233,234,233);fill-rule:nonzero;"/>
        <path d="M211.113,70.683L205.656,70.683L205.656,30.825L202.988,30.825L202.988,70.683L202.988,30.825L211.113,30.825L211.113,70.683Z" style="fill:rgb(240,240,240);fill-rule:nonzero;"/>
        <rect x="202.988" y="30.825" width="2.668" height="39.858" style="fill:rgb(224,224,223);fill-rule:nonzero;"/>
        <rect x="211.113" y="16.217" width="10.675" height="7.489" style="fill:rgb(250,250,250);fill-rule:nonzero;"/>
        <rect x="211.113" y="23.706" width="10.675" height="7.119" style="fill:rgb(240,240,240);fill-rule:nonzero;"/>
        <rect x="211.113" y="30.825" width="10.675" height="35.481" style="fill:rgb(250,250,250);fill-rule:nonzero;"/>
        <path d="M243.323,23.706L242.721,23.706L242.721,16.217L243.323,16.217L243.323,23.706ZM242.471,23.706L221.788,23.706L221.788,16.217L242.471,16.217L242.471,23.706Z" style="fill:rgb(240,240,240);fill-rule:nonzero;"/>
        <rect x="242.471" y="16.217" width="0.25" height="7.489" style="fill:rgb(227,227,226);fill-rule:nonzero;"/>
        <rect x="221.788" y="23.706" width="21.535" height="7.119" style="fill:rgb(233,234,233);fill-rule:nonzero;"/>
        <rect x="221.788" y="30.825" width="21.535" height="39.858" style="fill:rgb(240,240,240);fill-rule:nonzero;"/>
        <rect x="243.323" y="16.217" width="10.675" height="7.489" style="fill:rgb(250,250,250);fill-rule:nonzero;"/>
        <rect x="243.323" y="23.706" width="10.675" height="7.119" style="fill:rgb(240,240,240);fill-rule:nonzero;"/>
        <rect x="243.323" y="30.825" width="10.675" height="35.481" style="fill:rgb(250,250,250);fill-rule:nonzero;"/>
        <path d="M275.533,23.706L254.755,23.706L254.755,16.217L275.533,16.217L275.533,23.706ZM254.505,23.706L253.998,23.706L253.998,16.217L254.505,16.217L254.505,23.706Z" style="fill:rgb(240,240,240);fill-rule:nonzero;"/>
        <rect x="254.505" y="16.217" width="0.25" height="7.489" style="fill:rgb(227,227,226);fill-rule:nonzero;"/>
        <rect x="253.998" y="23.706" width="21.535" height="7.119" style="fill:rgb(233,234,233);fill-rule:nonzero;"/>
        <rect x="253.998" y="30.825" width="21.535" height="39.858" style="fill:rgb(240,240,240);fill-rule:nonzero;"/>
        <rect x="275.533" y="16.217" width="10.675" height="7.489" style="fill:rgb(250,250,250);fill-rule:nonzero;"/>
        <rect x="275.533" y="23.706" width="10.675" height="7.119" style="fill:rgb(240,240,240);fill-rule:nonzero;"/>
        <rect x="275.533" y="30.825" width="10.675" height="35.481" style="fill:rgb(250,250,250);fill-rule:nonzero;"/>
        <rect x="286.208" y="16.217" width="21.535" height="7.489" style="fill:rgb(240,240,240);fill-rule:nonzero;"/>
        <rect x="286.208" y="23.706" width="21.535" height="7.119" style="fill:rgb(233,234,233);fill-rule:nonzero;"/>
        <rect x="286.208" y="30.825" width="21.535" height="39.858" style="fill:rgb(240,240,240);fill-rule:nonzero;"/>
        <rect x="307.743" y="16.217" width="10.675" height="7.489" style="fill:rgb(250,250,250);fill-rule:nonzero;"/>
        <rect x="307.743" y="23.706" width="10.675" height="7.119" style="fill:rgb(240,240,240);fill-rule:nonzero;"/>
        <rect x="307.743" y="30.825" width="10.675" height="35.481" style="fill:rgb(250,250,250);fill-rule:nonzero;"/>
        <rect x="318.418" y="16.217" width="21.534" height="7.489" style="fill:rgb(240,240,240);fill-rule:nonzero;"/>
        <rect x="318.418" y="23.706" width="21.534" height="7.119" style="fill:rgb(233,234,233);fill-rule:nonzero;"/>
        <rect x="318.418" y="30.825" width="21.534" height="39.858" style="fill:rgb(240,240,240);fill-rule:nonzero;"/>
        <rect x="339.952" y="16.217" width="10.676" height="7.489" style="fill:rgb(250,250,250);fill-rule:nonzero;"/>
        <rect x="339.952" y="23.706" width="10.676" height="7.119" style="fill:rgb(240,240,240);fill-rule:nonzero;"/>
        <rect x="339.952" y="30.825" width="10.676" height="35.481" style="fill:rgb(250,250,250);fill-rule:nonzero;"/>
        <rect x="350.628" y="16.217" width="21.534" height="7.489" style="fill:rgb(240,240,240);fill-rule:nonzero;"/>
        <rect x="350.628" y="23.706" width="21.534" height="7.119" style="fill:rgb(233,234,233);fill-rule:nonzero;"/>
        <rect x="350.628" y="30.825" width="21.534" height="39.858" style="fill:rgb(240,240,240);fill-rule:nonzero;"/>
        <rect x="372.162" y="16.217" width="10.675" height="7.489" style="fill:rgb(250,250,250);fill-rule:nonzero;"/>
        <rect x="372.162" y="23.706" width="10.675" height="7.119" style="fill:rgb(240,240,240);fill-rule:nonzero;"/>
        <rect x="372.162" y="30.825" width="10.675" height="35.481" style="fill:rgb(250,250,250);fill-rule:nonzero;"/>
        <rect x="382.837" y="16.217" width="21.535" height="7.489" style="fill:rgb(240,240,240);fill-rule:nonzero;"/>
        <rect x="382.837" y="23.706" width="21.535" height="7.119" style="fill:rgb(233,234,233);fill-rule:nonzero;"/>
        <rect x="382.837" y="30.825" width="21.535" height="39.858" style="fill:rgb(240,240,240);fill-rule:nonzero;"/>
        <rect x="404.372" y="16.217" width="10.675" height="7.489" style="fill:rgb(250,250,250);fill-rule:nonzero;"/>
        <rect x="404.372" y="23.706" width="10.675" height="7.119" style="fill:rgb(240,240,240);fill-rule:nonzero;"/>
        <rect x="404.372" y="30.825" width="10.675" height="35.481" style="fill:rgb(250,250,250);fill-rule:nonzero;"/>
        <path d="M436.582,70.683L428.274,70.683L428.274,23.706L415.047,23.706L415.047,16.217L436.582,16.217L436.582,70.683Z" style="fill:rgb(240,240,240);fill-rule:nonzero;"/>
        <path d="M428.274,70.683L424.744,70.683L424.744,23.706L415.047,23.706L428.274,23.706L428.274,70.683Z" style="fill:rgb(224,224,223);fill-rule:nonzero;"/>
        <path d="M424.744,70.683L418.408,70.683L418.408,30.825L415.047,30.825L415.047,23.706L424.744,23.706L424.744,70.683Z" style="fill:rgb(233,234,233);fill-rule:nonzero;"/>
        <rect x="415.047" y="30.825" width="3.361" height="39.858" style="fill:rgb(240,240,240);fill-rule:nonzero;"/>
        <rect x="203.718" y="228.438" width="26.688" height="99.399" style="fill:rgb(224,224,223);fill-rule:nonzero;"/>
        <path d="M208.16,327.837L203.718,327.837L203.718,318.892L212.817,318.892L208.16,327.837Z" style="fill:rgb(234,235,234);fill-rule:nonzero;"/>
        <rect x="395.753" y="228.438" width="26.689" height="99.399" style="fill:rgb(224,224,223);fill-rule:nonzero;"/>
        <rect x="203.718" y="228.438" width="195.912" height="95.964" style="fill:rgb(234,235,234);fill-rule:nonzero;"/>
        <rect x="207.164" y="232.691" width="189.021" height="26.319" style="fill:rgb(224,224,223);fill-rule:nonzero;"/>
        <path d="M254.978,240.87L348.37,240.87C352.703,240.87 356.846,237.623 359.827,231.891L243.521,231.891C246.501,237.623 250.645,240.87 254.978,240.87Z" style="fill:rgb(234,235,234);fill-rule:nonzero;"/>
        <path d="M395.188,327.837L399.63,327.837L399.63,318.892L390.532,318.892L395.188,327.837Z" style="fill:rgb(234,235,234);fill-rule:nonzero;"/>
        <rect x="207.164" y="263.262" width="189.021" height="26.317" style="fill:rgb(224,224,223);fill-rule:nonzero;"/>
        <path d="M254.978,271.44L348.37,271.44C352.703,271.44 356.846,268.193 359.827,262.463L243.521,262.463C246.501,268.193 250.645,271.44 254.978,271.44Z" style="fill:rgb(234,235,234);fill-rule:nonzero;"/>
        <rect x="207.164" y="293.832" width="189.021" height="26.317" style="fill:rgb(224,224,223);fill-rule:nonzero;"/>
        <path d="M254.978,302.011L348.37,302.011C352.703,302.011 356.846,298.764 359.827,293.032L243.521,293.032C246.501,298.764 250.645,302.011 254.978,302.011Z" style="fill:rgb(234,235,234);fill-rule:nonzero;"/>
        <path d="M443.889,361.677C443.889,367.931 357.083,373 250,373C142.918,373 56.11,367.931 56.11,361.677C56.11,355.423 142.918,350.353 250,350.353C357.083,350.353 443.889,355.423 443.889,361.677Z" style="fill:rgb(240,240,240);fill-rule:nonzero;"/>
        <path d="M369.881,355.973L368.81,355.973C368.391,355.973 368.033,355.605 367.961,355.102L361.376,309.274L366.376,309.274L370.737,354.799C370.797,355.424 370.396,355.973 369.881,355.973Z" style="fill:rgb(48,115,186);fill-rule:nonzero;"/>
        <path d="M369.881,355.973L368.81,355.973C368.391,355.973 368.033,355.605 367.961,355.102L361.376,309.274L366.376,309.275L370.737,354.799C370.741,354.84 370.743,354.881 370.743,354.922C370.743,355.494 370.362,355.973 369.881,355.973Z" style="fill:rgb(133,215,239);fill-rule:nonzero;"/>
        <path d="M383.6,355.973L382.528,355.973C382.11,355.973 381.752,355.605 381.68,355.102L375.095,309.274L380.095,309.274L384.456,354.799C384.516,355.424 384.116,355.973 383.6,355.973Z" style="fill:rgb(48,115,186);fill-rule:nonzero;"/>
        <path d="M383.6,355.973L382.528,355.973C382.11,355.973 381.752,355.605 381.68,355.102L375.095,309.274L380.095,309.274L384.456,354.799C384.46,354.84 384.462,354.881 384.462,354.922C384.462,355.494 384.081,355.973 383.6,355.973Z" style="fill:rgb(133,215,239);fill-rule:nonzero;"/>
        <path d="M307.158,355.973L308.23,355.973C308.648,355.973 309.006,355.605 309.079,355.102L315.664,309.274L310.664,309.274L306.303,354.799C306.243,355.424 306.643,355.973 307.158,355.973Z" style="fill:rgb(48,115,186);fill-rule:nonzero;"/>
        <path d="M308.23,355.973L307.158,355.973C306.677,355.973 306.296,355.494 306.297,354.922C306.297,354.881 306.299,354.84 306.303,354.799L308.917,327.511C309.945,330.637 310.922,333.543 311.804,336.134L309.079,355.102C309.006,355.605 308.648,355.973 308.23,355.973Z" style="fill:rgb(13,96,174);fill-rule:nonzero;"/>
        <path d="M293.439,355.973L294.511,355.973C294.929,355.973 295.287,355.605 295.359,355.102L301.944,309.274L296.944,309.274L292.583,354.799C292.524,355.424 292.924,355.973 293.439,355.973Z" style="fill:rgb(48,115,186);fill-rule:nonzero;"/>
        <path d="M300.382,320.149L301.944,309.274L301.944,309.275L300.382,320.149Z" style="fill:rgb(151,154,155);fill-rule:nonzero;"/>
        <path d="M294.511,355.973L293.439,355.973C292.958,355.973 292.577,355.494 292.578,354.922C292.578,354.881 292.579,354.84 292.583,354.799L296.944,309.274L301.944,309.275L300.382,320.149L299.771,324.402L299.277,327.837L299.241,328.087L295.359,355.102C295.287,355.605 294.929,355.973 294.511,355.973Z" style="fill:rgb(13,96,174);fill-rule:nonzero;"/>
        <path d="M275.66,254.951L309.34,254.951C315.316,234.199 336.817,217.828 358.836,217.828L369.776,217.828C392.824,217.828 407.699,235.762 402.999,257.885C402.136,261.945 400.668,265.863 398.713,269.558L393.401,301.752C392.716,305.906 389.401,309.274 385.997,309.274L284.623,309.275C281.218,309.275 277.903,305.906 277.218,301.752L270.738,262.474C270.052,258.32 272.256,254.951 275.66,254.951Z" style="fill:rgb(48,115,186);fill-rule:nonzero;"/>
        <path d="M361.376,309.274L366.376,309.275L366.376,309.274L361.376,309.275" style="fill:rgb(128,166,215);fill-rule:nonzero;"/>
        <path d="M375.095,309.274L380.095,309.274L375.095,309.274Z" style="fill:rgb(128,166,215);fill-rule:nonzero;"/>
        <path d="M296.944,309.274L301.944,309.275L301.944,309.274L296.944,309.275" style="fill:rgb(128,166,215);fill-rule:nonzero;"/>
        <path d="M286.126,309.275C289.135,296.499 291.669,283.211 291.889,274.001C292.636,273.815 293.443,273.647 294.301,273.495C295.831,283.395 299.37,296.658 303.162,309.275L286.126,309.275ZM319.917,309.275C317.88,295.591 315.815,281.289 314.614,271.783C316.065,271.701 317.525,271.615 318.984,271.521C322.287,271.587 326.125,271.687 330.146,271.687C330.599,271.687 331.054,271.686 331.511,271.683L331.803,273.456L334.189,309.275L319.917,309.275ZM338.725,309.275L338.6,306.454C340.013,308.174 341.93,309.274 343.876,309.274L351.193,309.274L351.193,309.275L338.725,309.275ZM355.729,309.275L355.729,309.274L380.403,309.274L386.831,254.951L366.112,254.951C367.259,247.683 366.069,241.867 366.069,241.867C365.974,233.67 366.435,225.674 367.224,217.828L369.776,217.828C389.943,217.828 403.852,231.558 403.866,249.812C403.868,252.419 403.586,255.119 402.999,257.885C402.136,261.945 400.668,265.863 398.713,269.558L396.185,284.882L395.41,289.579L393.401,301.752C392.716,305.906 389.401,309.274 385.997,309.274L375.095,309.274L366.376,309.275L355.729,309.275ZM271.947,269.801L270.738,262.474C270.653,261.963 270.613,261.463 270.613,260.981C270.613,257.541 272.675,254.951 275.66,254.951L276.21,254.951C273.828,257.352 272.355,260.191 272.223,263.552C272.145,265.555 272.052,267.644 271.947,269.801ZM315.026,242.559C316.882,239.676 319.043,236.964 321.45,234.467L325.524,234.467C325.767,236.859 326.049,239.326 326.372,241.867C326.226,241.869 321.562,241.935 315.026,242.559ZM325.277,231.92L324.073,231.92C324.441,231.586 324.811,231.258 325.188,230.933C325.217,231.26 325.247,231.59 325.277,231.92Z" style="fill:rgb(253,205,51);fill-rule:nonzero;"/>
        <path d="M267.228,344.115L275.57,347.943C275.874,348.083 276.006,348.398 275.888,348.703L273.263,355.489C272.991,356.192 272.051,356.546 271.358,356.213C268.477,354.83 267.167,354.022 263.499,352.339C261.242,351.303 255.063,347.841 252.279,345.838C249.557,343.88 251.555,341.141 252.915,341.739C259.008,344.428 262.888,344.669 265.74,343.984C266.254,343.861 266.784,343.911 267.228,344.115Z" style="fill:rgb(12,43,52);fill-rule:nonzero;"/>
        <path d="M326.376,241.867C326.376,241.867 273.047,242.529 272.223,263.552C271.039,293.768 266.577,343.936 266.577,343.936L275.57,347.943C275.57,347.943 291.327,297.599 291.889,274.001C306.851,270.273 345.456,274.031 349.992,261.734C353.703,251.673 351.696,241.867 351.696,241.867L326.376,241.867Z" style="fill:rgb(48,115,186);fill-rule:nonzero;"/>
        <path d="M275.57,347.943L266.577,343.936C266.577,343.936 271.039,293.768 272.223,263.552C273.043,242.628 325.876,241.874 326.372,241.867C326.388,241.992 326.404,242.117 326.42,242.242L329.722,242.211L329.802,243.412C315.608,246.001 292.745,252.436 293.567,266.956C293.678,268.9 293.93,271.1 294.301,273.495C293.443,273.647 292.636,273.815 291.889,274.001C291.669,283.211 289.135,296.499 286.126,309.275C285.253,312.981 284.342,316.641 283.434,320.149C283.06,321.596 282.686,323.016 282.317,324.402C282.005,325.573 281.696,326.72 281.391,327.837C281.369,327.92 281.346,328.004 281.323,328.087C280.688,330.416 280.073,332.618 279.498,334.646C279.474,334.73 279.451,334.813 279.427,334.896C277.198,342.741 275.57,347.943 275.57,347.943ZM314.614,271.783C314.601,271.676 314.587,271.571 314.574,271.465C315.89,271.465 317.374,271.489 318.984,271.521C317.525,271.615 316.065,271.701 314.614,271.783ZM335.758,242.456L335.745,242.154L338.279,242.13C337.567,242.215 336.719,242.322 335.758,242.456Z" style="fill:rgb(31,104,179);fill-rule:nonzero;"/>
        <path d="M337.726,186.56C337.262,188.501 336.794,190.252 336.257,192.067C335.731,193.865 335.181,195.654 334.604,197.438C333.433,201 332.144,204.538 330.655,208.04C329.178,211.546 327.527,215.023 325.515,218.452C324.499,220.165 323.415,221.881 322.128,223.556C320.842,225.23 319.386,226.899 317.482,228.463L317.334,228.585C317.23,228.67 317.119,228.751 317.009,228.824C315.738,229.661 314.554,229.918 313.654,230.028C312.737,230.13 311.994,230.088 311.377,230.012C310.112,229.856 309.184,229.571 308.314,229.269C306.601,228.66 305.196,227.959 303.839,227.234C301.146,225.785 298.757,224.163 296.412,222.516C294.087,220.845 291.849,219.114 289.674,217.316C287.514,215.487 285.396,213.682 283.334,211.693C282.12,210.522 282.084,208.59 283.255,207.376C284.236,206.358 285.752,206.169 286.932,206.822L286.981,206.851C289.341,208.158 291.723,209.546 294.11,210.835C296.488,212.151 298.86,213.452 301.233,214.669C303.589,215.901 305.981,217.046 308.261,217.986C309.391,218.449 310.524,218.847 311.447,219.054C311.895,219.154 312.311,219.206 312.42,219.183C312.488,219.183 312.439,219.142 312.206,219.159C311.986,219.182 311.485,219.245 310.787,219.691L310.314,220.052C311.165,219.249 312.069,218.127 312.904,216.863C313.738,215.595 314.556,214.216 315.313,212.766C316.822,209.85 318.171,206.706 319.418,203.491C320.649,200.267 321.802,196.968 322.869,193.63C323.955,190.325 324.943,186.855 325.845,183.618L325.879,183.496C326.786,180.24 330.16,178.337 333.416,179.243C336.595,180.129 338.482,183.378 337.726,186.56Z" style="fill:rgb(12,43,52);fill-rule:nonzero;"/>
        <path d="M316.109,348.456L326.114,348.456C326.478,348.456 326.752,348.708 326.774,349.063L327.259,356.979C327.31,357.801 326.539,358.578 325.701,358.563C322.217,358.504 320.553,358.299 316.153,358.299C313.446,358.299 307.987,358.58 304.249,358.58C300.593,358.58 300.617,354.884 302.202,354.549C309.305,353.048 312.06,350.977 314.575,349.003C315.028,348.647 315.576,348.456 316.109,348.456Z" style="fill:rgb(12,43,52);fill-rule:nonzero;"/>
        <path d="M340.75,241.867C340.75,241.867 292.377,245.952 293.567,266.956C294.871,289.958 316.109,348.456 316.109,348.456L325.891,348.456C325.891,348.456 317.518,294.885 314.574,271.465C328.208,271.465 359.829,274.031 364.365,261.734C368.076,251.673 366.069,241.867 366.069,241.867L340.75,241.867Z" style="fill:rgb(48,115,186);fill-rule:nonzero;"/>
        <path d="M287.678,207.839C287.678,207.839 286.287,205.582 284.958,204.501C282.979,206.355 281.867,211.765 281.867,211.765L284.603,212.012C284.603,212.012 287.74,210.991 287.678,207.839Z" style="fill:rgb(48,115,186);fill-rule:nonzero;"/>
        <path d="M277.639,202.978L274.529,201.627C273.693,201.265 272.719,201.576 272.248,202.355L270.775,204.796C270.35,205.5 270.45,206.4 271.019,206.994L275.289,211.449L282.411,211.161C283.23,211.128 283.967,210.656 284.34,209.927L285.163,208.32C285.678,207.314 285.396,206.054 284.454,205.431C282.144,203.903 277.639,202.978 277.639,202.978Z" style="fill:rgb(249,182,182);fill-rule:nonzero;"/>
        <path d="M325.924,184.505C324.496,193.479 322.652,212.938 326.42,242.242L366.069,241.867C365.832,221.562 369.015,202.495 372.121,183.871C372.637,180.776 370.516,177.906 367.411,177.459C357.887,176.087 342.51,176.139 333.181,177.431C329.469,177.946 326.513,180.804 325.924,184.505Z" style="fill:rgb(12,43,52);fill-rule:nonzero;"/>
        <path d="M372.483,181.339C373.646,184.226 374.583,187.001 375.542,189.86C376.491,192.703 377.325,195.588 378.112,198.502C378.869,201.425 379.594,204.374 380.147,207.404C380.703,210.434 381.193,213.513 381.363,216.779C381.416,217.589 381.431,218.428 381.44,219.267L381.425,220.55C381.4,221.453 381.27,222.826 380.431,224.294C380.035,225.005 379.413,225.734 378.768,226.236C378.429,226.515 378.104,226.722 377.776,226.901C377.428,227.1 377.121,227.231 376.82,227.343C375.597,227.789 374.651,227.849 373.883,227.853C372.377,227.825 371.345,227.564 370.381,227.306C368.506,226.761 367.001,226.095 365.536,225.395C364.087,224.682 362.726,223.927 361.396,223.153C356.107,220.017 351.349,216.524 346.731,212.655C345.439,211.573 345.27,209.648 346.352,208.356C347.264,207.268 348.775,206.976 350,207.56L350.071,207.595C355.242,210.059 360.496,212.582 365.62,214.705C366.898,215.232 368.175,215.726 369.415,216.138C370.639,216.56 371.873,216.926 372.832,217.072C373.286,217.145 373.701,217.137 373.654,217.093C373.614,217.081 373.402,217.042 372.859,217.227C372.73,217.276 372.591,217.338 372.397,217.436C372.229,217.529 372.06,217.642 371.855,217.794C371.497,218.075 371.117,218.517 370.889,218.907C370.41,219.736 370.388,220.366 370.373,220.544L370.315,219.64C370.26,219.023 370.207,218.405 370.116,217.765C369.432,212.636 367.986,207.176 366.383,201.807C364.776,196.442 362.938,190.958 361.065,185.749L361.047,185.697C359.903,182.517 361.555,179.011 364.735,177.866C367.839,176.751 371.257,178.308 372.483,181.339Z" style="fill:rgb(12,43,52);fill-rule:nonzero;"/>
        <path d="M356.632,157.352L351.835,161.33L345.305,166.754C345.496,167.637 345.645,168.53 345.72,169.391C346.032,172.544 345.341,175.445 341.509,176.914C340.061,177.468 338.801,178.526 338.345,180.008C337.829,181.684 338.439,183.546 343.701,183.544C351.427,183.542 355.462,180.107 356.982,178.415C357.41,177.939 357.415,177.237 357.047,176.714C353.986,172.372 355.384,162.772 356.632,157.352Z" style="fill:rgb(249,182,182);fill-rule:nonzero;"/>
        <path d="M343.511,181.844C343.511,181.844 344.025,182.4 344.18,183.204C344.582,182.524 345.629,181.844 345.629,181.844C345.629,181.844 347.923,182.864 348.401,185.09C346.931,184.997 344.242,183.544 344.242,183.544C344.242,183.544 342.851,184.348 341.46,184.409C341.521,182.679 343.511,181.844 343.511,181.844Z" style="fill:rgb(48,115,186);fill-rule:nonzero;"/>
        <path d="M345.629,181.844C347.854,184.349 348.276,187.675 348.276,187.675C348.276,187.675 361.078,184.476 360.477,176.132C359.4,175.451 356.928,175.042 356.928,175.042C356.928,175.042 354.175,180.041 345.629,181.844Z" style="fill:rgb(48,115,186);fill-rule:nonzero;"/>
        <path d="M343.511,181.844C341.287,184.349 340.693,187.675 340.693,187.675C340.693,187.675 334.127,181.698 340.523,176.2C341.648,175.737 343.907,175.49 343.907,175.49C343.907,175.49 339.658,178.938 343.511,181.844Z" style="fill:rgb(48,115,186);fill-rule:nonzero;"/>
        <path d="M345.305,166.754L345.305,166.753L351.835,161.329L351.836,161.33L351.835,161.33L345.305,166.754Z" style="fill:rgb(195,197,197);fill-rule:nonzero;"/>
        <path d="M345.72,169.391C345.645,168.53 345.496,167.636 345.305,166.754L351.835,161.33C351.899,161.979 351.877,162.882 351.75,163.818C351.41,166.307 348.155,168.901 345.72,169.391Z" style="fill:rgb(216,151,147);fill-rule:nonzero;"/>
        <path d="M338.295,140.125C332.273,144.395 335.643,154.413 340.78,150.58C345.917,146.747 343.204,136.645 338.295,140.125Z" style="fill:rgb(12,43,52);fill-rule:nonzero;"/>
        <path d="M358.609,149.045C356.942,156.713 356.356,161.271 351.828,164.77C345.016,170.033 335.987,165.357 335.326,157.428C334.73,150.29 337.557,138.95 345.623,136.778C353.57,134.64 360.277,141.378 358.609,149.045Z" style="fill:rgb(249,182,182);fill-rule:nonzero;"/>
        <path d="M355.06,143.362C350.809,142.187 339.849,144.977 335.958,140.828C331.785,136.377 337.875,134.213 339.667,135.759C337.395,133.162 338.244,130.381 341.46,130.628C343.805,130.808 344.553,133.409 344.553,133.409C344.553,133.409 344.161,128.862 348.195,129.175C351.859,129.459 351.87,134.398 351.87,134.398C351.87,134.398 360.615,131.926 363.529,140.271C369.031,140.147 368.907,151.728 357.842,155.85C353.35,153.624 353.144,145.725 355.06,143.362Z" style="fill:rgb(12,43,52);fill-rule:nonzero;"/>
        <path d="M362.354,141.941C361.825,141.941 361.356,141.563 361.26,141.025C361.15,140.422 361.551,139.845 362.153,139.733C362.253,139.703 362.55,139.459 362.797,138.922C363.058,138.356 363.226,137.513 362.918,136.839C362.663,136.279 362.91,135.62 363.469,135.364C364.026,135.106 364.688,135.356 364.943,135.915C365.61,137.379 365.257,139.031 364.702,140.09C364.171,141.104 363.387,141.773 362.552,141.923L362.354,141.941Z" style="fill:rgb(12,43,52);fill-rule:nonzero;"/>
        <path d="M359.857,156.154C358.732,157.631 357.088,158.509 355.647,158.763C353.479,159.144 352.82,157.15 353.779,155.214C354.641,153.471 356.809,151.172 358.813,151.669C360.788,152.159 361.144,154.466 359.857,156.154Z" style="fill:rgb(249,182,182);fill-rule:nonzero;"/>
        <path d="M345.478,149.747C345.381,150.376 344.968,150.846 344.555,150.797C344.142,150.747 343.886,150.198 343.983,149.569C344.08,148.94 344.493,148.47 344.906,148.518C345.319,148.568 345.575,149.118 345.478,149.747Z" style="fill:rgb(12,43,52);fill-rule:nonzero;"/>
        <path d="M338.34,148.897C338.243,149.527 337.83,149.997 337.417,149.948C337.004,149.898 336.748,149.35 336.845,148.72C336.942,148.091 337.355,147.621 337.768,147.67C338.181,147.72 338.437,148.268 338.34,148.897Z" style="fill:rgb(12,43,52);fill-rule:nonzero;"/>
        <path d="M340.515,149.15C340.515,149.15 339.017,152.202 337.534,153.635C338.414,154.575 340.075,154.252 340.075,154.252L340.515,149.15Z" style="fill:rgb(244,130,127);fill-rule:nonzero;"/>
        <path d="M342.997,157.483C345.502,157.483 346.903,155.921 346.967,155.849L346.95,155.585L346.686,155.602C346.67,155.62 345.077,157.401 342.301,157.068C342.198,157.055 342.106,157.129 342.094,157.231C342.082,157.334 342.155,157.427 342.257,157.438C342.514,157.47 342.76,157.483 342.997,157.483Z" style="fill:rgb(12,43,52);fill-rule:nonzero;"/>
        <path d="M348.348,146.12L348.514,146.035C348.668,145.898 348.682,145.662 348.545,145.508C347.188,143.982 345.477,144.26 345.406,144.272C345.211,144.287 345.066,144.5 345.102,144.704C345.137,144.907 345.33,145.043 345.533,145.009C345.604,144.997 346.921,144.806 347.986,146.004C348.08,146.109 348.22,146.149 348.348,146.12Z" style="fill:rgb(12,43,52);fill-rule:nonzero;"/>
        <path d="M335.791,145.71C335.906,145.743 336.034,145.721 336.133,145.639C337.439,144.553 338.782,144.911 338.795,144.915C338.994,144.972 339.2,144.855 339.255,144.656C339.311,144.459 339.196,144.253 338.999,144.197L338.997,144.196C338.926,144.177 337.26,143.73 335.656,145.064C335.497,145.196 335.476,145.432 335.607,145.59L335.791,145.71Z" style="fill:rgb(12,43,52);fill-rule:nonzero;"/>
        <path d="M348.808,202.38L344.432,199.659C343.119,198.843 341.392,199.258 340.592,200.582L340.077,201.435C339.454,202.468 339.568,203.783 340.36,204.692L343.38,208.159C343.38,208.159 346.008,214.287 349.055,212.669L351.379,208.642L348.808,202.38Z" style="fill:rgb(249,182,182);fill-rule:nonzero;"/>
        <path d="M353.316,210.214C353.316,210.214 352.215,207.507 351.028,206.137C348.831,208.02 347.05,214.022 347.05,214.022L349.739,214.602C349.739,214.602 352.984,213.791 353.316,210.214Z" style="fill:rgb(48,115,186);fill-rule:nonzero;"/>
        <path d="M386.831,254.951L334.914,254.951C331.509,254.951 329.306,258.32 329.991,262.474L336.472,301.752C337.157,305.906 340.472,309.274 343.876,309.274L380.403,309.274L386.831,254.951Z" style="fill:rgb(48,115,186);fill-rule:nonzero;"/>
        <path d="M380.403,309.274L355.729,309.274L353.317,254.951L386.831,254.951L380.403,309.274ZM351.193,309.274L343.876,309.274C341.93,309.274 340.013,308.174 338.6,306.454L336.313,254.951L347.575,254.951L351.193,309.274ZM331.803,273.456L331.511,271.683L329.991,262.474C329.907,261.963 329.866,261.463 329.866,260.981C329.866,259.641 330.179,258.432 330.737,257.452L331.803,273.456Z" style="fill:rgb(253,205,51);fill-rule:nonzero;"/>
        <path d="M147.283,359.341L148.782,359.341C149.291,359.341 149.715,358.911 149.752,358.354L158.003,234.467L151.806,234.467L146.311,358.225C146.284,358.833 146.727,359.341 147.283,359.341Z" style="fill:rgb(48,115,186);fill-rule:nonzero;"/>
        <path d="M148.782,359.341L147.283,359.341C146.742,359.341 146.308,358.86 146.31,358.275C146.31,358.259 146.31,358.242 146.311,358.225L148.253,314.486L152.674,314.486L151.785,327.837L151.768,328.087L151.219,336.327L151.203,336.577L149.752,358.354C149.715,358.911 149.291,359.341 148.782,359.341Z" style="fill:rgb(133,215,239);fill-rule:nonzero;"/>
        <path d="M130.279,359.341L131.778,359.341C132.288,359.341 132.711,358.911 132.749,358.354L140.999,234.467L134.802,234.467L129.307,358.225C129.28,358.833 129.723,359.341 130.279,359.341Z" style="fill:rgb(48,115,186);fill-rule:nonzero;"/>
        <path d="M131.778,359.341L130.279,359.341C129.738,359.341 129.304,358.86 129.306,358.275C129.306,358.259 129.306,358.242 129.307,358.225L131.249,314.486L135.67,314.486L134.781,327.837L134.764,328.087L134.215,336.327L134.199,336.577L132.749,358.354C132.711,358.911 132.288,359.341 131.778,359.341Z" style="fill:rgb(133,215,239);fill-rule:nonzero;"/>
        <path d="M339.926,359.341L338.428,359.341C337.918,359.341 337.495,358.911 337.458,358.354L329.206,234.467L335.404,234.467L340.898,358.225C340.925,358.833 340.482,359.341 339.926,359.341Z" style="fill:rgb(48,115,186);fill-rule:nonzero;"/>
        <path d="M339.926,359.341L338.428,359.341C337.918,359.341 337.495,358.911 337.458,358.354L334.189,309.275L331.803,273.456L329.722,242.211L329.206,234.467L335.404,234.467L340.898,358.225C340.899,358.242 340.9,358.259 340.9,358.275C340.901,358.86 340.467,359.341 339.926,359.341Z" style="fill:rgb(133,215,239);fill-rule:nonzero;"/>
        <path d="M356.93,359.341L355.432,359.341C354.922,359.341 354.499,358.911 354.461,358.354L346.21,234.467L352.408,234.467L357.902,358.225C357.929,358.833 357.486,359.341 356.93,359.341Z" style="fill:rgb(48,115,186);fill-rule:nonzero;"/>
        <path d="M356.93,359.341L355.432,359.341C354.922,359.341 354.499,358.911 354.461,358.354L351.193,309.275L351.193,309.274L346.715,242.05L346.21,234.467L352.408,234.467L357.902,358.225C357.903,358.242 357.903,358.259 357.903,358.275C357.905,358.86 357.471,359.341 356.93,359.341Z" style="fill:rgb(133,215,239);fill-rule:nonzero;"/>
        <rect x="122.779" y="231.92" width="241.302" height="2.547" style="fill:rgb(133,215,239);fill-rule:nonzero;"/>
        <path d="M118.759,192.458L116.48,209.226C115.761,214.81 115.01,220.408 114.472,225.905C114.396,226.597 114.346,227.272 114.29,227.951L114.207,228.97C114.214,228.894 114.208,228.625 114.172,228.47C114.156,228.307 114.105,228.132 114.056,227.993C114.022,227.872 113.953,227.733 113.906,227.643L113.767,227.418C113.59,227.19 113.57,227.222 113.618,227.27C113.657,227.326 113.798,227.436 113.958,227.555C114.294,227.798 114.767,228.071 115.283,228.329C117.404,229.367 120.028,230.252 122.625,231.055C127.873,232.646 133.377,234.024 138.815,235.364L138.201,240.142C132.381,239.936 126.668,239.394 120.859,238.347C117.944,237.792 115.059,237.186 111.947,235.994C111.162,235.685 110.355,235.333 109.477,234.835C109.035,234.579 108.584,234.292 108.082,233.889C107.587,233.481 107.049,233.013 106.485,232.186C106.207,231.769 105.937,231.268 105.73,230.657C105.628,230.35 105.55,229.997 105.493,229.663C105.446,229.331 105.429,228.883 105.434,228.631L105.459,227.52C105.476,226.781 105.488,226.036 105.524,225.311C105.761,219.469 106.286,213.768 106.909,208.066C107.519,202.365 108.246,196.717 109.14,191.039L118.759,192.458Z" style="fill:rgb(139,61,62);fill-rule:nonzero;"/>
        <path d="M151.407,240.407L147.74,243.759C146.885,244.54 145.639,244.724 144.595,244.221L140.541,242.269C140.541,242.269 134.531,242.02 133.674,238.349L135.228,235.496L144.539,234.462C145.495,234.355 146.46,234.57 147.282,235.071L151.119,237.415C152.188,238.067 152.332,239.562 151.407,240.407Z" style="fill:rgb(139,61,62);fill-rule:nonzero;"/>
        <path d="M129.45,158.003C130.399,163.754 131.208,174.266 127.093,177.962C127.093,177.962 137.136,183.22 143.721,192.397C150.764,186.817 144.866,178.491 144.866,178.491C138.535,176.778 138.84,172.053 140.083,167.642L129.45,158.003Z" style="fill:rgb(139,61,62);fill-rule:nonzero;"/>
        <path d="M148.243,182.028C148.243,182.028 147.713,177.151 145.051,174.74C142.815,172.715 131.081,173.84 127.384,174.252C126.688,174.33 126.087,174.761 125.785,175.391L123.104,180.992L148.243,182.028Z" style="fill:rgb(48,115,186);fill-rule:nonzero;"/>
        <path d="M147.504,178.847C146.621,178.717 145.737,178.597 144.866,178.491C140.998,178.022 137.298,177.89 133.293,177.89C131.319,177.89 129.271,177.922 127.093,177.962C126.228,177.978 125.365,178.008 124.512,178.05L125.785,175.391C126.087,174.761 126.688,174.33 127.384,174.252C129.453,174.021 134.039,173.567 138.07,173.567C141.24,173.567 144.067,173.848 145.051,174.74C146.256,175.831 147.024,177.427 147.504,178.847Z" style="fill:rgb(202,221,242);fill-rule:nonzero;"/>
        <path d="M115.73,179.46C108.489,181.816 106.934,191.524 107.585,199.081L122.2,208.07C122.2,208.07 125.749,197.037 125.719,191.145C125.687,184.875 120.647,177.86 115.73,179.46Z" style="fill:rgb(194,238,235);fill-rule:nonzero;"/>
        <path d="M118.56,205.868C118.21,205.868 117.859,205.728 117.6,205.478L117.439,205.268L117.31,205.028L117.229,204.778L117.2,204.518C117.2,204.158 117.35,203.809 117.6,203.559C118.109,203.048 119.02,203.048 119.52,203.559C119.77,203.809 119.92,204.158 119.92,204.518L119.89,204.778L119.81,205.028L119.689,205.268L119.52,205.478C119.27,205.728 118.92,205.868 118.56,205.868Z" style="fill:white;fill-rule:nonzero;"/>
        <path d="M115.75,204.948L115.76,204.948C115.24,204.748 114.91,204.258 114.89,203.728C114.5,204.078 113.93,204.188 113.42,203.948C112.92,203.718 112.62,203.208 112.63,202.688C112.22,203.018 111.64,203.088 111.149,202.818C110.66,202.559 110.399,202.038 110.439,201.518C110.01,201.818 109.43,201.858 108.95,201.568C108.31,201.188 108.109,200.349 108.49,199.708C108.88,199.068 109.72,198.858 110.359,199.248C110.81,199.528 111.04,200.028 111.01,200.518C111.41,200.228 111.96,200.179 112.43,200.429C112.89,200.679 113.16,201.158 113.149,201.658C113.53,201.349 114.08,201.268 114.56,201.488C115.04,201.708 115.33,202.179 115.35,202.668C115.72,202.349 116.25,202.228 116.75,202.418C117.439,202.698 117.79,203.488 117.51,204.179C117.3,204.718 116.79,205.038 116.25,205.038C116.08,205.038 115.92,205.008 115.75,204.948Z" style="fill:white;fill-rule:nonzero;"/>
        <path d="M107.59,200.438C107.5,200.438 107.41,200.429 107.319,200.408L107.069,200.328L106.83,200.208L106.63,200.038L106.46,199.838L106.33,199.599L106.25,199.349C106.24,199.258 106.229,199.168 106.229,199.078L106.25,198.818L106.33,198.559L106.46,198.328L106.63,198.118L106.83,197.948L107.069,197.828L107.319,197.748C107.76,197.668 108.229,197.809 108.54,198.118L108.71,198.328L108.84,198.559L108.91,198.818L108.939,199.078C108.939,199.168 108.93,199.258 108.91,199.349L108.84,199.599L108.71,199.838L108.54,200.038C108.29,200.288 107.939,200.438 107.59,200.438Z" style="fill:white;fill-rule:nonzero;"/>
        <path d="M161.768,193.569C161.156,201.886 159.306,215.893 154.747,239.472L115.608,238.308C116.634,223.86 115.084,213.087 111.543,187.801C110.897,183.185 114.216,178.966 118.852,178.488C121.365,178.228 124.219,178.015 127.093,177.962C133.689,177.841 139.092,177.791 144.866,178.491C146.773,178.723 148.743,179.023 150.624,179.345C157.451,180.51 162.276,186.662 161.768,193.569Z" style="fill:rgb(182,213,208);fill-rule:nonzero;"/>
        <path d="M149.7,147.414C149.793,148.186 150.277,148.764 150.782,148.703C151.287,148.643 151.621,147.968 151.528,147.195C151.436,146.423 150.952,145.847 150.447,145.907C149.942,145.968 149.608,146.643 149.7,147.414Z" style="fill:rgb(12,43,52);fill-rule:nonzero;"/>
        <path d="M150.229,145.976L152.02,145.22C152.02,145.22 151.242,146.782 150.229,145.976Z" style="fill:rgb(12,43,52);fill-rule:nonzero;"/>
        <path d="M149.967,148.612C149.967,148.612 151.675,151.779 153.31,153.21C152.405,154.283 150.619,154.057 150.619,154.057L149.967,148.612Z" style="fill:rgb(110,13,15);fill-rule:nonzero;"/>
        <path d="M149.794,140.644C149.881,140.515 149.899,140.344 149.828,140.193C149.72,139.965 149.448,139.868 149.22,139.976C146.938,141.06 146.63,143.146 146.619,143.234C146.585,143.484 146.76,143.714 147.01,143.748C147.258,143.782 147.489,143.608 147.523,143.358C147.534,143.29 147.789,141.667 149.611,140.802L149.794,140.644Z" style="fill:rgb(12,43,52);fill-rule:nonzero;"/>
        <path d="M123.065,147.239C124.784,156.652 125.31,160.673 130.683,164.966C138.765,171.424 149.95,167.254 151.079,157.517C152.094,148.753 149.113,134.832 139.378,132.171C129.787,129.549 121.346,137.826 123.065,147.239Z" style="fill:rgb(139,61,62);fill-rule:nonzero;"/>
        <path d="M143.795,149.874C145.382,155.046 149.163,167.552 140.811,170.336C134.276,172.514 113.819,174.256 111.463,162.268C109.027,149.874 120.079,141.053 120.079,141.053C120.079,141.053 111.323,133.871 116.933,126.049C124.164,115.965 141.475,121.667 146.614,128.791C151.61,135.717 143.795,149.874 143.795,149.874Z" style="fill:rgb(12,43,52);fill-rule:nonzero;"/>
        <path d="M127.961,172.056C124.611,172.056 120.456,171.372 117.034,169.899C112.388,167.898 109.676,164.807 109.192,160.958C107.551,147.887 119.714,140.704 119.837,140.634L120.321,141.472C120.204,141.54 108.592,148.412 110.153,160.837C110.707,165.245 114.409,167.715 117.417,169.01C123.355,171.566 131.026,171.553 132.888,170.187L133.46,170.969C132.491,171.679 130.448,172.056 127.961,172.056Z" style="fill:rgb(12,43,52);fill-rule:nonzero;"/>
        <path d="M116.313,139.177C116.204,140.849 114.816,143.145 120.613,144.009C126.41,144.873 134.464,144.791 136.117,143.396C137.77,142.002 139.398,138.668 135.942,138.966C132.485,139.265 116.501,136.318 116.313,139.177Z" style="fill:rgb(220,236,235);fill-rule:nonzero;"/>
        <path d="M140.632,151.35C141.623,153.233 143.392,154.483 145.07,154.975C147.595,155.714 148.89,153.464 148.215,151.064C147.608,148.904 145.563,145.917 143.016,146.229C140.506,146.539 139.499,149.196 140.632,151.35Z" style="fill:rgb(139,61,62);fill-rule:nonzero;"/>
        <path d="M201.641,348.997L210.921,348.821L206.428,325.656L197.148,325.833L201.641,348.997Z" style="fill:rgb(139,61,62);fill-rule:nonzero;"/>
        <path d="M208.6,338.911C211.055,348.156 220.076,357.943 220.076,357.943L207.199,354.672L201.571,346.675L202.556,344.558L208.6,338.911Z" style="fill:rgb(139,61,62);fill-rule:nonzero;"/>
        <path d="M199.455,343.208C199.416,344.235 199.494,345.405 199.642,346.443C200.185,350.268 201.873,360.404 201.873,360.404L202.747,360.41C202.747,360.41 201.919,353.586 202.039,351.071C202.159,348.556 203.782,353.003 205.742,355.519C207.702,358.034 211.23,360.324 216.94,360.503C223.625,360.712 226.289,360.432 224.146,358.763C222.004,357.093 217.45,356.004 217.45,356.004C217.45,356.004 212.191,354.115 208.431,348.463C205.994,344.798 201.909,342.147 200.136,341.285C199.599,341.38 199.486,342.392 199.455,343.208Z" style="fill:rgb(12,43,52);fill-rule:nonzero;"/>
        <path d="M234.507,317.529L246.353,317.895L233.104,298.197L224.901,305.208L234.507,317.529Z" style="fill:rgb(139,61,62);fill-rule:nonzero;"/>
        <path d="M237.32,309.165C245.926,313.174 259.711,312.385 259.711,312.385L248.506,321.375L238.898,320.663L237.883,318.528L237.32,309.165Z" style="fill:rgb(139,61,62);fill-rule:nonzero;"/>
        <path d="M235.498,319.38C236.228,320.113 237.136,320.852 237.989,321.446C241.132,323.635 249.617,329.244 249.617,329.244L250.161,328.56C250.161,328.56 244.64,324.542 242.867,322.727C241.094,320.912 245.361,322.678 248.419,322.857C251.477,323.036 255.337,321.828 258.993,317.459C263.275,312.345 264.714,310.058 262.166,310.601C259.618,311.143 256.005,313.98 256.005,313.98C256.005,313.98 251.371,316.824 244.899,315.915C240.703,315.325 236.234,316.724 234.507,317.529C234.245,318.017 234.918,318.797 235.498,319.38Z" style="fill:rgb(12,43,52);fill-rule:nonzero;"/>
        <path d="M141.098,238.789C141.098,238.789 204.462,229.416 211.022,245.658C222.436,273.919 238.554,306.3 238.554,306.3L230.771,312.738C230.771,312.738 203.144,287.163 193.316,258.77C181.576,262.569 144.227,274.791 130.547,274.791C115.936,274.791 109.969,262.334 115.246,241.648C115.716,239.805 117.397,238.527 119.3,238.536C128.498,238.582 141.098,238.789 141.098,238.789Z" style="fill:rgb(12,43,52);fill-rule:nonzero;"/>
        <path d="M147.172,247.041C147.172,247.041 199.178,245.475 199.617,263.899C200.342,294.368 208.929,338.028 208.929,338.028L199.443,338.911C199.443,338.911 183.934,304.182 179.831,274.418C161.306,275.62 144.227,274.791 130.547,274.791C115.216,274.791 113.949,257.954 128.871,238.309C137.993,238.309 147.172,247.041 147.172,247.041Z" style="fill:rgb(12,43,52);fill-rule:nonzero;"/>
        <path d="M115.09,235.993L113.985,239.467C113.84,239.734 114.154,240.021 114.606,240.035L154.889,241.232C155.242,241.243 155.539,241.079 155.568,240.858L156.025,237.365C156.057,237.123 155.757,236.908 155.371,236.897L115.736,235.719C115.445,235.71 115.184,235.821 115.09,235.993Z" style="fill:white;fill-rule:nonzero;"/>
        <path d="M120.281,240.583L119.22,240.552C119.008,240.546 118.851,240.432 118.869,240.299L119.502,235.762C119.521,235.629 119.709,235.525 119.92,235.532L120.982,235.563C121.193,235.57 121.351,235.683 121.333,235.816L120.699,240.353C120.681,240.486 120.493,240.59 120.281,240.583Z" style="fill:rgb(12,43,52);fill-rule:nonzero;"/>
        <path d="M151.894,241.523L150.833,241.492C150.621,241.485 150.463,241.372 150.482,241.239L151.115,236.702C151.134,236.569 151.322,236.466 151.533,236.473L152.595,236.504C152.806,236.51 152.964,236.624 152.945,236.757L152.312,241.294C152.294,241.427 152.105,241.53 151.894,241.523Z" style="fill:rgb(12,43,52);fill-rule:nonzero;"/>
        <path d="M136.088,241.054L135.026,241.021C134.815,241.015 134.657,240.901 134.676,240.769L135.309,236.232C135.327,236.1 135.516,235.996 135.727,236.002L136.789,236.034C137,236.04 137.158,236.153 137.139,236.286L136.506,240.823C136.487,240.956 136.299,241.06 136.088,241.054Z" style="fill:rgb(12,43,52);fill-rule:nonzero;"/>
        <path d="M184.325,197.047L209.625,197.047C210.432,197.047 211.014,197.823 210.788,198.599L201.334,231.046C201.184,231.563 200.709,231.92 200.171,231.92L174.872,231.92C174.064,231.92 173.482,231.143 173.708,230.368L183.162,197.92C183.313,197.403 183.787,197.047 184.325,197.047Z" style="fill:rgb(48,115,186);fill-rule:nonzero;"/>
        <path d="M184.792,198.238L209.38,198.822L199.671,229.426L175.083,228.843L184.792,198.238Z" style="fill:rgb(215,217,217);fill-rule:nonzero;"/>
        <path d="M184.019,197.937L208.614,198.039L199.505,228.827L174.91,228.726L184.019,197.937Z" style="fill:white;fill-rule:nonzero;"/>
        <path d="M161.843,198.574C161.893,199.55 161.985,200.763 162.074,201.87C162.173,203.003 162.298,204.138 162.447,205.265C162.727,207.524 163.103,209.76 163.566,211.944C164.047,214.121 164.613,216.256 165.352,218.25C165.72,219.249 166.125,220.215 166.571,221.126C166.787,221.591 167.033,222.021 167.274,222.454L167.64,223.068L167.6,223.061C167.669,223.218 168.375,223.67 169.193,223.993C170.031,224.333 171.032,224.618 172.074,224.854C174.171,225.337 176.453,225.651 178.761,225.888C183.38,226.337 188.205,226.561 192.933,226.659L193.41,231.451C188.473,232.403 183.582,233.004 178.502,233.136C175.963,233.192 173.395,233.147 170.706,232.816C169.359,232.638 167.984,232.397 166.519,231.97C165.056,231.508 163.477,230.979 161.736,229.501C161.31,229.14 160.875,228.669 160.48,228.144L159.837,227.245C159.434,226.65 159.035,226.051 158.686,225.442C157.959,224.23 157.342,222.99 156.8,221.741C155.698,219.244 154.871,216.716 154.218,214.177C153.556,211.642 153.079,209.094 152.73,206.542C152.563,205.265 152.426,203.985 152.317,202.702C152.204,201.392 152.136,200.183 152.122,198.733L161.843,198.574Z" style="fill:rgb(139,61,62);fill-rule:nonzero;"/>
        <path d="M158.553,183.827C164.85,189.756 163.333,205.208 163.333,205.208L151.267,207.316C151.267,207.316 143.817,196.238 146.436,191.594C149.163,186.757 155.146,180.62 158.553,183.827Z" style="fill:rgb(194,238,235);fill-rule:nonzero;"/>
        <path d="M163.33,206.568C162.979,206.568 162.62,206.418 162.37,206.168L162.2,205.958L162.08,205.728C162.05,205.648 162.02,205.559 162,205.468L161.979,205.208C161.979,204.849 162.12,204.498 162.37,204.248L162.58,204.078L162.81,203.958L163.069,203.878C163.5,203.788 163.97,203.938 164.29,204.248C164.54,204.498 164.689,204.849 164.689,205.208L164.66,205.468C164.64,205.559 164.62,205.648 164.58,205.728L164.46,205.958L164.29,206.168C164.04,206.418 163.689,206.568 163.33,206.568Z" style="fill:white;fill-rule:nonzero;"/>
        <path d="M152.37,207.288C152.31,206.538 152.859,205.878 153.609,205.818C154.13,205.768 154.62,206.028 154.88,206.458C155.04,205.988 155.45,205.618 155.97,205.538C156.49,205.468 156.99,205.698 157.28,206.108C157.41,205.628 157.8,205.238 158.31,205.139C158.83,205.028 159.34,205.238 159.649,205.628C159.75,205.139 160.12,204.728 160.63,204.588L160.63,204.599C161.359,204.398 162.1,204.838 162.29,205.559C162.479,206.278 162.05,207.028 161.319,207.218C160.79,207.358 160.24,207.158 159.91,206.748C159.8,207.258 159.399,207.679 158.85,207.798C158.31,207.898 157.77,207.668 157.47,207.238C157.33,207.748 156.91,208.148 156.359,208.228C155.81,208.309 155.28,208.038 155.01,207.599C154.84,208.088 154.399,208.468 153.84,208.518L153.729,208.518C153.03,208.518 152.439,207.988 152.37,207.288Z" style="fill:white;fill-rule:nonzero;"/>
        <path d="M151.27,208.679L151,208.648L150.75,208.568L150.51,208.448L150.31,208.278L150.14,208.068L150.01,207.838L149.939,207.578L149.91,207.318C149.91,207.228 149.92,207.139 149.939,207.048L150.01,206.798L150.14,206.559L150.31,206.358L150.51,206.188L150.75,206.068L151,205.988C151.439,205.898 151.91,206.038 152.22,206.358L152.39,206.559L152.52,206.798L152.6,207.048C152.609,207.139 152.62,207.228 152.62,207.318L152.6,207.578L152.52,207.838L152.39,208.068L152.22,208.278C151.97,208.528 151.62,208.679 151.27,208.679Z" style="fill:white;fill-rule:nonzero;"/>
        <path d="M204.2,221.657L200.025,221.375C198.983,221.305 197.948,221.583 197.081,222.165L189.409,227.318L189.351,230.566C191.809,233.425 197.252,230.865 197.252,230.865L202.302,230.703C203.126,230.677 203.852,230.151 204.135,229.376L205.962,224.364C206.423,223.1 205.542,221.747 204.2,221.657Z" style="fill:rgb(139,61,62);fill-rule:nonzero;"/>
        <path d="M117.588,363.845L118.721,363.845C119.163,363.845 119.542,363.457 119.618,362.926L126.578,314.486L121.293,314.486L116.684,362.604C116.621,363.265 117.043,363.845 117.588,363.845Z" style="fill:rgb(48,115,186);fill-rule:nonzero;"/>
        <path d="M118.721,363.845L117.588,363.845C117.08,363.845 116.677,363.339 116.677,362.735C116.677,362.692 116.679,362.648 116.684,362.604L121.293,314.486L126.578,314.486L124.659,327.837L124.623,328.087L123.439,336.327L123.404,336.577L119.618,362.926C119.542,363.457 119.163,363.845 118.721,363.845Z" style="fill:rgb(133,215,239);fill-rule:nonzero;"/>
        <path d="M103.087,363.845L104.22,363.845C104.662,363.845 105.04,363.457 105.117,362.926L112.077,314.486L106.792,314.486L102.183,362.604C102.12,363.265 102.542,363.845 103.087,363.845Z" style="fill:rgb(48,115,186);fill-rule:nonzero;"/>
        <path d="M104.22,363.845L103.087,363.845C102.579,363.845 102.176,363.339 102.177,362.735C102.177,362.692 102.179,362.648 102.183,362.604L106.792,314.486L112.077,314.486L110.159,327.837L110.123,328.087L108.939,336.327L108.903,336.577L105.117,362.926C105.04,363.457 104.662,363.845 104.22,363.845Z" style="fill:rgb(133,215,239);fill-rule:nonzero;"/>
        <path d="M183.885,363.845L182.752,363.845C182.311,363.845 181.932,363.457 181.856,362.926L174.895,314.486L180.18,314.486L184.79,362.604C184.853,363.265 184.43,363.845 183.885,363.845Z" style="fill:rgb(48,115,186);fill-rule:nonzero;"/>
        <path d="M183.885,363.845L182.752,363.845C182.311,363.845 181.932,363.457 181.856,362.926L174.895,314.486L180.18,314.486L184.79,362.604C184.794,362.648 184.796,362.692 184.796,362.735C184.796,363.339 184.394,363.845 183.885,363.845Z" style="fill:rgb(133,215,239);fill-rule:nonzero;"/>
        <path d="M198.386,363.845L197.253,363.845C196.811,363.845 196.433,363.457 196.356,362.926L189.396,314.486L194.681,314.486L199.291,362.604C199.354,363.265 198.931,363.845 198.386,363.845Z" style="fill:rgb(48,115,186);fill-rule:nonzero;"/>
        <path d="M198.386,363.845L197.253,363.845C196.811,363.845 196.433,363.457 196.356,362.926L189.396,314.486L194.681,314.486L199.291,362.604C199.295,362.648 199.297,362.692 199.297,362.735C199.297,363.339 198.895,363.845 198.386,363.845Z" style="fill:rgb(133,215,239);fill-rule:nonzero;"/>
        <path d="M217.179,257.066L181.579,257.066C175.263,235.133 152.536,217.828 129.261,217.828L117.699,217.828C93.337,217.828 77.615,236.784 82.583,260.167C83.495,264.46 85.046,268.602 87.113,272.505L92.727,306.534C93.452,310.926 96.956,314.486 100.554,314.486L207.706,314.486C211.303,314.486 214.807,310.926 215.532,306.534L222.381,265.019C223.105,260.627 220.777,257.066 217.179,257.066Z" style="fill:rgb(48,115,186);fill-rule:nonzero;"/>
        <path d="M207.706,314.486L100.554,314.486C96.956,314.486 93.452,310.926 92.727,306.534L87.113,272.505C85.046,268.602 83.495,264.46 82.583,260.167C81.962,257.244 81.664,254.39 81.666,251.634C81.681,232.341 96.382,217.828 117.699,217.828L129.261,217.828C152.536,217.828 175.263,235.133 181.579,257.066L217.179,257.066C220.334,257.066 222.513,259.805 222.513,263.44C222.513,263.95 222.47,264.478 222.381,265.019L221.531,270.171L216.958,297.888L215.532,306.534C214.807,310.926 211.303,314.486 207.706,314.486Z" style="fill:rgb(253,205,51);fill-rule:nonzero;"/>
        <rect x="204.365" y="97.585" width="8.167" height="1" style="fill:rgb(133,215,239);fill-rule:nonzero;"/>
        <path d="M174.322,109.369L173.322,109.369L173.322,104.449C173.322,100.664 176.402,97.585 180.188,97.585L198.418,97.585L198.418,98.585L180.188,98.585C176.953,98.585 174.322,101.216 174.322,104.449L174.322,109.369Z" style="fill:rgb(133,215,239);fill-rule:nonzero;"/>
        <path d="M271.36,143.568L180.188,143.568C178.329,143.568 176.822,142.061 176.822,140.203L176.822,104.449C176.822,102.591 178.329,101.085 180.188,101.085L271.36,101.085C273.219,101.085 274.726,102.591 274.726,104.449L274.726,140.203C274.726,142.061 273.219,143.568 271.36,143.568Z" style="fill:rgb(133,215,239);fill-rule:nonzero;"/>
        <path d="M267.049,124.587L184.499,124.587C183.25,124.587 182.238,123.575 182.238,122.326C182.238,121.078 183.25,120.065 184.499,120.065L267.049,120.065C268.298,120.065 269.31,121.078 269.31,122.326C269.31,123.575 268.298,124.587 267.049,124.587Z" style="fill:white;fill-rule:nonzero;"/>
        <path d="M249.383,133.976L184.499,133.976C183.25,133.976 182.238,132.965 182.238,131.716C182.238,130.468 183.25,129.455 184.499,129.455L249.383,129.455C250.631,129.455 251.644,130.468 251.644,131.716C251.644,132.965 250.631,133.976 249.383,133.976Z" style="fill:white;fill-rule:nonzero;"/>
        <path d="M212.337,115.197L184.499,115.197C183.25,115.197 182.238,114.185 182.238,112.936C182.238,111.688 183.25,110.676 184.499,110.676L212.337,110.676C213.586,110.676 214.598,111.688 214.598,112.936C214.598,114.185 213.586,115.197 212.337,115.197Z" style="fill:white;fill-rule:nonzero;"/>
        <path d="M249.239,115.197L221.401,115.197C220.152,115.197 219.14,114.185 219.14,112.936C219.14,111.688 220.152,110.676 221.401,110.676L249.239,110.676C250.488,110.676 251.5,111.688 251.5,112.936C251.5,114.185 250.488,115.197 249.239,115.197Z" style="fill:white;fill-rule:nonzero;"/>
        <path d="M182.238,140.855L182.238,151.687C182.238,153.772 184.633,154.947 186.282,153.672L202.882,140.823L182.238,140.855Z" style="fill:rgb(133,215,239);fill-rule:nonzero;"/>
        <path d="M322.813,47.442L231.64,47.442C229.781,47.442 228.275,48.949 228.275,50.807L228.275,86.561C228.275,88.419 229.781,89.926 231.64,89.926L303.665,89.926L316.719,100.029C318.367,101.305 320.762,100.13 320.762,98.045L320.762,89.926L322.813,89.926C324.671,89.926 326.178,88.419 326.178,86.561L326.178,50.807C326.178,48.949 324.671,47.442 322.813,47.442Z" style="fill:white;fill-rule:nonzero;"/>
        <path d="M231.64,47.942C230.06,47.942 228.774,49.227 228.774,50.807L228.774,86.561C228.774,88.141 230.06,89.426 231.64,89.426L303.835,89.426L317.024,99.633C317.644,100.114 318.434,100.196 319.139,99.849C319.843,99.503 320.263,98.829 320.263,98.045L320.263,89.426L322.813,89.426C324.393,89.426 325.678,88.141 325.678,86.561L325.678,50.807C325.678,49.227 324.393,47.942 322.813,47.942L231.64,47.942ZM318.25,101.057C317.599,101.057 316.953,100.843 316.413,100.424L303.493,90.426L231.64,90.426C229.509,90.426 227.774,88.692 227.774,86.561L227.774,50.807C227.774,48.676 229.509,46.942 231.64,46.942L322.813,46.942C324.943,46.942 326.678,48.676 326.678,50.807L326.678,86.561C326.678,88.692 324.943,90.426 322.813,90.426L321.263,90.426L321.263,98.045C321.263,99.203 320.617,100.237 319.579,100.746C319.154,100.954 318.701,101.057 318.25,101.057Z" style="fill:rgb(133,215,239);fill-rule:nonzero;"/>
        <path d="M275.278,70.945L318.501,70.945C319.75,70.945 320.762,69.933 320.762,68.684C320.762,67.435 319.75,66.423 318.501,66.423L275.278,66.423C274.029,66.423 273.017,67.435 273.017,68.684C273.017,69.933 274.029,70.945 275.278,70.945Z" style="fill:rgb(133,215,239);fill-rule:nonzero;"/>
        <path d="M245.101,70.945L266.501,70.945C267.75,70.945 268.762,69.933 268.762,68.684C268.762,67.435 267.75,66.423 266.501,66.423L245.101,66.423C243.853,66.423 242.84,67.435 242.84,68.684C242.84,69.933 243.853,70.945 245.101,70.945Z" style="fill:rgb(133,215,239);fill-rule:nonzero;"/>
        <path d="M253.618,80.334L318.501,80.334C319.75,80.334 320.762,79.323 320.762,78.074C320.762,76.825 319.75,75.813 318.501,75.813L253.618,75.813C252.369,75.813 251.357,76.825 251.357,78.074C251.357,79.323 252.369,80.334 253.618,80.334Z" style="fill:rgb(133,215,239);fill-rule:nonzero;"/>
        <path d="M235.951,61.555L318.501,61.555C319.75,61.555 320.762,60.543 320.762,59.294C320.762,58.045 319.75,57.034 318.501,57.034L235.951,57.034C234.703,57.034 233.69,58.045 233.69,59.294C233.69,60.543 234.703,61.555 235.951,61.555Z" style="fill:rgb(133,215,239);fill-rule:nonzero;"/>
    </g>
</svg>
