<?xml version="1.0" encoding="UTF-8" standalone="no"?>
<!DOCTYPE svg PUBLIC "-//W3C//DTD SVG 1.1//EN" "http://www.w3.org/Graphics/SVG/1.1/DTD/svg11.dtd">
<svg width="100%" height="100%" viewBox="0 0 2813 1675" version="1.1" xmlns="http://www.w3.org/2000/svg" xmlns:xlink="http://www.w3.org/1999/xlink" xml:space="preserve" xmlns:serif="http://www.serif.com/" style="fill-rule:evenodd;clip-rule:evenodd;stroke-linejoin:round;stroke-miterlimit:2;">
    <g transform="matrix(4.16667,0,0,4.16667,0,0)">
        <path d="M191.114,83.443L130.699,83.487L130.639,0.814L191.054,0.771L191.114,83.443Z" style="fill:rgb(240,240,240);fill-rule:nonzero;"/>
        <path d="M175.801,93.851L115.386,93.894L115.326,11.221L175.741,11.178L175.801,93.851Z" style="fill:rgb(215,217,217);fill-rule:nonzero;"/>
        <path d="M460.515,124.251C460.515,124.251 460.387,124.261 460.125,124.267C459.849,124.27 459.461,124.275 458.956,124.281C457.907,124.289 456.38,124.298 454.406,124.312C450.409,124.326 444.613,124.346 437.337,124.372C422.725,124.395 402.188,124.427 378.429,124.463L378.27,124.464L378.225,124.311C377.005,120.148 377.75,115.27 380.477,111.54C383.194,107.82 387.861,105.449 392.668,105.573L392.45,105.855C392.097,104.638 391.932,103.267 391.993,101.899C392.176,97.347 394.765,92.948 398.74,90.912C402.662,88.84 407.504,88.917 411.221,90.979L410.916,91.087C413.034,85.921 417.501,82.176 422.349,80.439C427.21,78.673 432.602,78.905 436.84,81.123C441.101,83.305 444.133,87.023 445.813,90.924C447.536,94.847 447.774,99.059 446.916,102.676L446.752,102.489C449.189,102.219 451.546,102.637 453.572,103.466C455.6,104.297 457.323,105.518 458.63,106.933C459.282,107.637 459.845,108.402 460.224,109.217C460.601,110.029 460.881,110.845 461.072,111.644C461.463,113.239 461.604,114.735 461.652,116.075C461.738,118.761 461.413,120.831 461.12,122.202C460.962,122.887 460.826,123.401 460.698,123.746C460.579,124.089 460.515,124.251 460.515,124.251Z" style="fill:rgb(229,229,228);fill-rule:nonzero;"/>
        <path d="M609.201,101.615C608.81,99.263 610.401,97.038 612.753,96.647C615.106,96.256 617.33,97.847 617.721,100.199C618.113,102.551 616.522,104.776 614.169,105.167C611.817,105.558 609.592,103.967 609.201,101.615ZM617.585,84.961C609.384,86.324 603.84,94.078 605.203,102.279C606.566,110.481 614.32,116.025 622.522,114.662C629.537,113.496 634.604,107.653 635.071,100.855L635.076,100.855L639.203,100.169L641.406,95.529L644.628,99.268L649.799,98.408L652.001,93.768L655.225,97.506L659.669,96.768L661.011,93.94L662.976,96.218L665.562,95.789L668.406,92.024L663.532,86.667L632.788,91.777C629.651,86.81 623.745,83.937 617.585,84.961Z" style="fill:rgb(229,229,228);fill-rule:nonzero;"/>
        <path d="M602.319,200.002L604.172,234.097C604.239,235.312 605.238,236.265 606.454,236.273L667.805,236.724C669.076,236.732 670.115,235.71 670.124,234.439L670.319,207.899C670.327,206.622 669.296,205.582 668.019,205.58L630.286,205.547C629.677,205.547 629.092,205.304 628.661,204.873L622.151,198.366C621.723,197.939 621.145,197.696 620.54,197.692L604.634,197.575C603.307,197.566 602.246,198.677 602.319,200.002Z" style="fill:rgb(229,229,228);fill-rule:nonzero;"/>
        <path d="M670.072,241.626L603.037,241.135L603.331,201.079L670.365,201.57L670.072,241.626Z" style="fill:rgb(240,240,240);fill-rule:nonzero;"/>
        <path d="M597.972,204.634L602.784,246.442C602.869,247.186 603.496,247.748 604.244,247.754L669.573,248.232C670.345,248.238 670.992,247.648 671.058,246.879L674.654,205.132C674.728,204.272 674.053,203.531 673.19,203.524L599.453,202.984C598.565,202.978 597.87,203.751 597.972,204.634Z" style="fill:rgb(229,229,228);fill-rule:nonzero;"/>
        <path d="M594.576,388.262C579.025,377.396 575.495,357.228 576.112,339.1C576.213,336.073 575.881,332.883 577.321,330.227C578.761,327.573 582.119,325.758 584.828,327.033C587.076,328.091 588.055,330.705 589.313,332.867C590.985,335.744 593.477,338.124 596.409,339.645C598.337,340.646 600.721,341.257 602.623,340.208C605.234,338.768 605.541,335.162 605.523,332.151C605.487,326.542 605.452,320.932 605.417,315.323C605.399,312.314 605.39,309.241 606.326,306.385C607.262,303.528 609.33,300.874 612.193,300.072C615.057,299.27 618.597,300.921 619.201,303.867C619.453,305.093 619.203,306.365 619.287,307.614C619.37,308.864 619.952,310.246 621.139,310.595C622.341,310.947 623.545,310.094 624.445,309.213C627.551,306.175 629.659,302.26 631.629,298.366C633.599,294.474 635.512,290.487 638.33,287.173C641.149,283.858 645.048,281.232 649.358,280.987C653.669,280.744 658.261,283.404 659.35,287.636C660.443,291.879 657.967,296.184 655.274,299.618C651.277,304.715 646.549,309.221 641.285,312.952C640.337,313.625 639.308,314.354 638.946,315.468C638.292,317.475 640.194,319.467 642.174,320.127C644.417,320.874 646.852,320.641 649.199,320.917C651.545,321.193 654.088,322.229 654.976,324.446C656.208,327.523 653.635,330.748 651.104,332.859C646.036,337.089 640.246,340.43 634.072,342.691C631.858,343.502 629.528,344.213 627.741,345.768C625.956,347.324 624.879,350.028 625.957,352.148C627.037,354.27 629.806,354.949 632.124,354.519C634.443,354.089 636.519,352.829 638.73,351.996C642.866,350.434 648.206,350.72 650.856,354.294C652.597,356.645 652.75,359.916 651.869,362.717C650.99,365.518 649.203,367.931 647.307,370.155C640.678,377.933 632.192,384.194 622.596,387.521C613.002,390.848 604.112,391.748 594.576,388.262Z" style="fill:rgb(229,229,228);fill-rule:nonzero;"/>
        <path d="M594.338,401.701C594.995,394.52 596.57,386.038 599.256,376.896C601.924,367.747 605.681,357.962 609.961,347.861C611.04,345.34 612.108,342.849 613.159,340.395C614.213,337.946 615.259,335.518 616.429,333.206C618.749,328.572 621.333,324.293 623.912,320.309C626.492,316.321 629.084,312.632 631.533,309.199C633.991,305.771 636.341,302.618 638.607,299.837C643.121,294.254 647.287,290.19 650.261,287.519C651.745,286.176 652.932,285.174 653.744,284.505C654.136,284.187 654.443,283.938 654.674,283.749C654.885,283.582 654.996,283.5 655.002,283.508C655.009,283.515 654.909,283.611 654.71,283.794C654.488,283.992 654.192,284.255 653.817,284.591C653.028,285.287 651.866,286.315 650.405,287.68C647.48,290.398 643.371,294.49 638.909,300.088C636.669,302.877 634.343,306.035 631.906,309.471C629.474,312.913 626.9,316.606 624.338,320.591C621.778,324.573 619.213,328.843 616.912,333.454C615.753,335.755 614.718,338.162 613.662,340.617C612.613,343.071 611.548,345.562 610.469,348.081C606.193,358.174 602.432,367.931 599.743,377.044C597.04,386.149 595.432,394.589 594.728,401.74" style="fill:rgb(215,217,217);fill-rule:nonzero;"/>
        <path d="M616.587,333.185C616.55,333.19 616.448,332.733 616.293,331.9C616.135,331.069 615.947,329.858 615.735,328.359C615.31,325.363 614.863,321.204 614.388,316.618C613.913,312.029 613.409,307.889 612.939,304.907C612.708,303.416 612.509,302.21 612.361,301.379C612.217,300.546 612.156,300.081 612.193,300.072C612.23,300.063 612.363,300.513 612.572,301.334C612.784,302.153 613.043,303.352 613.324,304.84C613.895,307.814 614.463,311.965 614.938,316.559C615.395,321.086 615.808,325.181 616.123,328.311C616.275,329.724 616.404,330.914 616.507,331.869C616.594,332.71 616.626,333.179 616.587,333.185Z" style="fill:rgb(215,217,217);fill-rule:nonzero;"/>
        <path d="M655.284,325.953C655.284,325.991 654.734,326.056 653.74,326.138C652.746,326.227 651.309,326.346 649.538,326.552C645.994,326.934 641.117,327.634 635.77,328.642C630.423,329.659 625.623,330.786 622.175,331.701C620.448,332.146 619.059,332.545 618.098,332.814C617.137,333.088 616.6,333.221 616.587,333.185C616.576,333.147 617.091,332.944 618.034,332.605C618.978,332.272 620.353,331.815 622.073,331.318C625.503,330.303 630.306,329.111 635.669,328.09C641.032,327.081 645.937,326.439 649.501,326.157C651.283,326.002 652.729,325.941 653.729,325.921C654.729,325.904 655.282,325.914 655.284,325.953Z" style="fill:rgb(215,217,217);fill-rule:nonzero;"/>
        <path d="M599.732,376.185C599.714,376.192 599.623,376.03 599.466,375.713C599.287,375.334 599.07,374.872 598.805,374.312C598.236,373.095 597.457,371.311 596.526,369.094C594.659,364.66 592.273,358.456 589.733,351.574C587.19,344.689 584.866,338.471 583.093,334.006C582.225,331.835 581.511,330.05 580.98,328.723C580.752,328.146 580.566,327.672 580.412,327.281C580.288,326.95 580.232,326.771 580.249,326.763C580.267,326.756 580.358,326.918 580.515,327.236C580.694,327.614 580.911,328.075 581.176,328.635C581.745,329.853 582.524,331.638 583.455,333.855C585.323,338.287 587.708,344.491 590.249,351.377C592.791,358.26 595.116,364.477 596.888,368.943C597.757,371.112 598.47,372.899 599.001,374.226C599.229,374.802 599.415,375.277 599.569,375.667C599.693,375.999 599.749,376.177 599.732,376.185Z" style="fill:rgb(215,217,217);fill-rule:nonzero;"/>
        <path d="M651.153,359.612C651.158,359.631 650.981,359.702 650.642,359.822C650.24,359.957 649.746,360.122 649.149,360.323C647.769,360.771 645.908,361.374 643.642,362.107C638.992,363.615 632.596,365.771 625.53,368.163C618.462,370.558 612.038,372.656 607.357,374.068C605.016,374.774 603.117,375.327 601.796,375.683C601.186,375.843 600.683,375.975 600.274,376.082C599.923,376.168 599.737,376.203 599.732,376.185C599.727,376.166 599.903,376.094 600.242,375.974C600.643,375.84 601.137,375.675 601.736,375.474C603.115,375.026 604.976,374.424 607.241,373.689C611.89,372.183 618.288,370.025 625.356,367.633C632.421,365.239 638.844,363.141 643.526,361.729C645.867,361.021 647.766,360.47 649.087,360.114C649.699,359.954 650.201,359.821 650.611,359.715C650.96,359.629 651.146,359.594 651.153,359.612Z" style="fill:rgb(215,217,217);fill-rule:nonzero;"/>
        <path d="M657.844,401.74C657.844,401.884 514.072,402 336.761,402C159.388,402 15.646,401.884 15.646,401.74C15.646,401.596 159.388,401.48 336.761,401.48C514.072,401.48 657.844,401.596 657.844,401.74Z" style="fill:rgb(12,43,52);fill-rule:nonzero;"/>
        <path d="M583.771,366.829C585.519,369.075 588.647,368.144 590.044,366.649C591.441,365.154 591.957,363.063 592.423,361.071C593.488,356.519 594.552,351.746 593.361,347.226C593.004,345.874 592.425,344.538 591.414,343.573C590.403,342.607 588.897,342.079 587.565,342.504C585.99,343.007 585.076,344.621 584.433,346.145C582.545,350.627 581.674,355.532 581.903,360.389C582.009,362.657 582.397,365.023 583.771,366.829Z" style="fill:rgb(241,91,102);fill-rule:nonzero;"/>
        <path d="M586.539,368.172C585.526,368.172 584.521,367.793 583.771,366.829C582.397,365.023 582.009,362.657 581.903,360.389C581.879,359.877 581.867,359.364 581.867,358.851C581.869,354.502 582.744,350.154 584.433,346.145C585.076,344.621 585.99,343.007 587.565,342.504C587.882,342.403 588.209,342.356 588.537,342.356C589.586,342.356 590.644,342.838 591.414,343.573C592.425,344.538 593.004,345.874 593.361,347.226C593.733,348.638 593.885,350.076 593.886,351.523C593.886,353.905 593.477,356.315 592.965,358.688C592.897,359.002 592.827,359.315 592.756,359.628C592.647,360.111 592.535,360.593 592.423,361.071C591.957,363.063 591.441,365.154 590.044,366.649C589.247,367.503 587.886,368.172 586.539,368.172Z" style="fill:rgb(194,238,235);fill-rule:nonzero;"/>
        <path d="M590.473,378.309C593.069,376.799 596.199,376.462 599.182,376.802C600.785,376.983 602.467,377.376 603.609,378.515C604.75,379.654 605.062,381.745 603.871,382.834C603.163,383.482 602.137,383.627 601.177,383.665C598.86,383.755 596.269,383.477 594.489,384.964C593.473,385.813 592.837,387.17 591.594,387.625C590.378,388.07 588.949,387.411 588.237,386.33C587.526,385.248 587.434,383.856 587.675,382.585C587.675,382.585 587.859,379.83 590.473,378.309Z" style="fill:rgb(220,236,235);fill-rule:nonzero;"/>
        <path d="M579.464,370.396C581.127,368.206 581.309,365.126 580.388,362.535C579.468,359.943 577.576,357.795 575.433,356.071C572.921,354.051 570.011,352.526 566.92,351.611C565.703,351.252 564.425,350.983 563.17,351.168C561.914,351.352 560.677,352.062 560.146,353.213C559.36,354.916 560.295,356.887 561.281,358.483C563.016,361.296 564.973,363.972 567.128,366.478C568.862,368.493 570.83,370.469 573.359,371.291C575.887,372.114 578.457,371.872 579.686,370.086" style="fill:rgb(182,213,208);fill-rule:nonzero;"/>
        <path d="M585.435,401.949C585.466,401.949 585.496,401.569 585.53,400.884C585.566,400.11 585.611,399.139 585.664,397.983C585.738,396.762 585.842,395.308 586.1,393.716C586.357,392.129 586.797,390.4 587.386,388.641C587.999,386.89 588.775,385.288 589.709,383.99C590.637,382.688 591.743,381.723 592.8,381.146C593.853,380.558 594.81,380.292 595.474,380.162C596.146,380.059 596.521,379.986 596.52,379.956C596.518,379.926 596.14,379.94 595.447,379.994C594.762,380.074 593.763,380.299 592.652,380.874C591.535,381.439 590.36,382.421 589.385,383.752C588.402,385.078 587.597,386.716 586.973,388.498C586.373,390.289 585.942,392.034 585.701,393.654C585.462,395.273 585.389,396.741 585.356,397.971C585.326,399.201 585.341,400.195 585.359,400.882C585.378,401.569 585.406,401.949 585.435,401.949Z" style="fill:rgb(12,43,52);fill-rule:nonzero;"/>
        <path d="M585.522,399.718C585.537,399.717 585.537,399.547 585.526,399.226C585.506,398.856 585.482,398.393 585.451,397.822C585.386,396.605 585.297,394.842 585.253,392.662C585.141,388.304 585.211,382.275 585.602,375.634C585.997,368.989 586.663,362.998 587.328,358.689C587.483,357.61 587.644,356.638 587.799,355.785C587.945,354.932 588.069,354.196 588.194,353.6C588.299,353.038 588.385,352.581 588.452,352.219C588.507,351.901 588.529,351.733 588.514,351.73C588.499,351.727 588.45,351.888 588.367,352.198C588.278,352.558 588.165,353.009 588.028,353.564C587.876,354.156 587.728,354.889 587.559,355.74C587.38,356.59 587.198,357.562 587.024,358.64C586.278,362.947 585.562,368.949 585.165,375.607C584.775,382.263 584.752,388.306 584.944,392.672C585.029,394.856 585.163,396.619 585.282,397.835C585.345,398.403 585.397,398.866 585.438,399.233C585.479,399.553 585.507,399.72 585.522,399.718Z" style="fill:rgb(12,43,52);fill-rule:nonzero;"/>
        <path d="M584.963,388.093C584.993,388.09 584.962,387.569 584.879,386.627C584.778,385.688 584.579,384.332 584.23,382.678C583.865,381.027 583.371,379.071 582.645,376.956C581.95,374.831 581.025,372.545 579.879,370.231C577.631,365.569 574.707,361.814 572.213,359.523C571.624,358.911 570.981,358.481 570.462,358.054C570.195,357.85 569.957,357.645 569.717,357.484C569.477,357.337 569.253,357.198 569.046,357.07C568.239,356.576 567.787,356.316 567.772,356.343C567.707,356.441 569.579,357.42 572,359.747C574.411,362.07 577.257,365.803 579.488,370.424C580.622,372.719 581.552,374.982 582.264,377.086C583.006,379.18 583.527,381.114 583.928,382.746C584.314,384.382 584.558,385.722 584.71,386.649C584.845,387.58 584.934,388.096 584.963,388.093Z" style="fill:rgb(12,43,52);fill-rule:nonzero;"/>
        <rect x="0.26" y="177.262" width="113.058" height="75.722" style="fill:rgb(249,249,249);fill-rule:nonzero;"/>
        <path d="M82.609,223.186L79.596,223.186L79.596,205.062C79.596,200.709 76.055,197.168 71.702,197.168C67.349,197.168 63.807,200.709 63.807,205.062L63.807,223.186L60.794,223.186L60.794,205.062C60.794,199.047 65.687,194.154 71.702,194.154C77.716,194.154 82.609,199.047 82.609,205.062L82.609,223.186Z" style="fill:rgb(12,43,52);fill-rule:nonzero;"/>
        <path d="M83.223,234.259L60.181,234.259C58.307,234.259 56.789,232.74 56.789,230.866L56.789,218.516C56.789,216.642 58.307,215.123 60.181,215.123L83.223,215.123C85.096,215.123 86.615,216.642 86.615,218.516L86.615,230.866C86.615,232.74 85.096,234.259 83.223,234.259Z" style="fill:rgb(12,43,52);fill-rule:nonzero;"/>
        <path d="M71.702,224.69C70.325,224.69 69.209,223.574 69.209,222.198C69.209,220.821 70.325,219.705 71.702,219.705C73.078,219.705 74.195,220.821 74.195,222.198C74.195,223.574 73.078,224.69 71.702,224.69Z" style="fill:rgb(51,88,99);fill-rule:nonzero;"/>
        <rect x="71.022" y="223.186" width="1.36" height="5.127" style="fill:rgb(51,88,99);fill-rule:nonzero;"/>
        <path d="M56.045,222.97C60.233,221.213 63.212,216.894 63.236,211.804C63.264,205.137 58.218,199.709 51.966,199.68C45.716,199.651 40.625,205.032 40.598,211.699C40.577,216.836 43.576,221.207 47.81,222.97C30.391,225.595 31.181,244.526 31.181,244.526L72.373,244.716C72.373,244.716 73.312,225.578 56.045,222.97Z" style="fill:rgb(133,215,239);fill-rule:nonzero;"/>
        <path d="M113.318,252.984C113.318,252.984 113.304,252.508 113.296,251.603C113.291,250.687 113.283,249.349 113.273,247.603C113.261,244.092 113.243,238.95 113.22,232.368C113.194,219.211 113.156,200.307 113.11,177.262L113.318,177.47C82.16,177.485 42.862,177.503 0.269,177.522L0.26,177.522L0.52,177.262C0.513,204.239 0.505,229.892 0.498,252.984L0.26,252.746C33.533,252.794 61.765,252.835 81.694,252.863C91.666,252.891 99.557,252.912 104.971,252.928C107.669,252.94 109.747,252.95 111.166,252.956C111.863,252.963 112.395,252.967 112.767,252.971C113.128,252.975 113.318,252.984 113.318,252.984C113.318,252.984 113.146,252.994 112.795,252.998C112.429,253.002 111.906,253.007 111.221,253.013C109.813,253.02 107.751,253.028 105.073,253.041C99.672,253.057 91.799,253.078 81.85,253.105C61.883,253.134 33.597,253.175 0.26,253.223L0.021,253.224L0.021,252.984C0.015,229.892 0.008,204.239 0,177.262L0,177.002L0.269,177.002C42.862,177.022 82.16,177.04 113.318,177.054L113.527,177.054L113.527,177.262C113.481,200.361 113.443,219.31 113.417,232.498C113.394,239.06 113.376,244.186 113.364,247.686C113.354,249.414 113.346,250.739 113.341,251.646C113.333,252.537 113.318,252.984 113.318,252.984Z" style="fill:rgb(12,43,52);fill-rule:nonzero;"/>
        <path d="M113.293,186.359C113.293,186.502 87.999,186.619 56.806,186.619C25.601,186.619 0.313,186.502 0.313,186.359C0.313,186.215 25.601,186.098 56.806,186.098C87.999,186.098 113.293,186.215 113.293,186.359Z" style="fill:rgb(12,43,52);fill-rule:nonzero;"/>
        <path d="M7.705,181.818C7.705,182.463 7.182,182.986 6.537,182.986C5.892,182.986 5.369,182.463 5.369,181.818C5.369,181.173 5.892,180.65 6.537,180.65C7.182,180.65 7.705,181.173 7.705,181.818Z" style="fill:rgb(12,43,52);fill-rule:nonzero;"/>
        <path d="M11.532,181.818C11.532,182.463 11.009,182.986 10.364,182.986C9.719,182.986 9.196,182.463 9.196,181.818C9.196,181.173 9.719,180.65 10.364,180.65C11.009,180.65 11.532,181.173 11.532,181.818Z" style="fill:rgb(12,43,52);fill-rule:nonzero;"/>
        <path d="M15.646,181.818C15.646,182.463 15.123,182.986 14.478,182.986C13.833,182.986 13.31,182.463 13.31,181.818C13.31,181.173 13.833,180.65 14.478,180.65C15.123,180.65 15.646,181.173 15.646,181.818Z" style="fill:rgb(12,43,52);fill-rule:nonzero;"/>
        <path d="M113.318,252.984C113.318,252.984 113.304,252.508 113.296,251.603C113.291,250.687 113.283,249.349 113.273,247.603C113.261,244.092 113.243,238.95 113.22,232.368C113.194,219.211 113.156,200.307 113.11,177.262L113.318,177.47C82.16,177.485 42.862,177.503 0.269,177.522L0.26,177.522L0.52,177.262C0.513,204.239 0.505,229.892 0.498,252.984L0.26,252.746C33.533,252.794 61.765,252.835 81.694,252.863C91.666,252.891 99.557,252.912 104.971,252.928C107.669,252.94 109.747,252.95 111.166,252.956C111.863,252.963 112.395,252.967 112.767,252.971C113.128,252.975 113.318,252.984 113.318,252.984C113.318,252.984 113.146,252.994 112.795,252.998C112.429,253.002 111.906,253.007 111.221,253.013C109.813,253.02 107.751,253.028 105.073,253.041C99.672,253.057 91.799,253.078 81.85,253.105C61.883,253.134 33.597,253.175 0.26,253.223L0.021,253.224L0.021,252.984C0.015,229.892 0.008,204.239 0,177.262L0,177.002L0.269,177.002C42.862,177.022 82.16,177.04 113.318,177.054L113.527,177.054L113.527,177.262C113.481,200.361 113.443,219.31 113.417,232.498C113.394,239.06 113.376,244.186 113.364,247.686C113.354,249.414 113.346,250.739 113.341,251.646C113.333,252.537 113.318,252.984 113.318,252.984Z" style="fill:rgb(12,43,52);fill-rule:nonzero;"/>
        <path d="M56.059,255.484C55.915,255.484 55.799,254.925 55.799,254.234C55.799,253.544 55.915,252.984 56.059,252.984C56.203,252.984 56.32,253.544 56.32,254.234C56.32,254.925 56.203,255.484 56.059,255.484Z" style="fill:rgb(12,43,52);fill-rule:nonzero;"/>
        <path d="M56.059,266.425C55.915,266.425 55.799,265.2 55.799,263.69C55.799,262.18 55.915,260.955 56.059,260.955C56.203,260.955 56.32,262.18 56.32,263.69C56.32,265.2 56.203,266.425 56.059,266.425Z" style="fill:rgb(12,43,52);fill-rule:nonzero;"/>
        <path d="M56.059,277.366C55.915,277.366 55.799,276.142 55.799,274.631C55.799,273.12 55.915,271.896 56.059,271.896C56.203,271.896 56.32,273.12 56.32,274.631C56.32,276.142 56.203,277.366 56.059,277.366Z" style="fill:rgb(12,43,52);fill-rule:nonzero;"/>
        <path d="M56.059,288.307C55.915,288.307 55.799,287.082 55.799,285.572C55.799,284.061 55.915,282.837 56.059,282.837C56.203,282.837 56.32,284.061 56.32,285.572C56.32,287.082 56.203,288.307 56.059,288.307Z" style="fill:rgb(12,43,52);fill-rule:nonzero;"/>
        <path d="M56.059,299.248C55.915,299.248 55.799,298.023 55.799,296.513C55.799,295.002 55.915,293.777 56.059,293.777C56.203,293.777 56.32,295.002 56.32,296.513C56.32,298.023 56.203,299.248 56.059,299.248Z" style="fill:rgb(12,43,52);fill-rule:nonzero;"/>
        <path d="M58.559,307.218C58.559,307.362 57.44,307.479 56.059,307.479C55.538,306.958 55.915,307.334 55.799,307.217L55.799,307.09L55.8,306.963L55.804,306.715C55.809,306.565 55.814,306.412 55.819,306.245C55.832,305.946 55.851,305.677 55.875,305.45C55.922,304.998 55.987,304.718 56.059,304.718C56.131,304.718 56.196,304.998 56.243,305.45C56.267,305.677 56.286,305.946 56.299,306.245C56.305,306.412 56.309,306.565 56.314,306.715L56.318,306.963L56.319,307.09L56.32,307.153L56.32,307.217C56.203,307.102 56.579,307.479 56.059,306.958C57.44,306.958 58.559,307.074 58.559,307.218Z" style="fill:rgb(12,43,52);fill-rule:nonzero;"/>
        <path d="M68.386,307.218C68.386,307.362 67.286,307.479 65.93,307.479C64.572,307.479 63.473,307.362 63.473,307.218C63.473,307.074 64.572,306.958 65.93,306.958C67.286,306.958 68.386,307.074 68.386,307.218Z" style="fill:rgb(12,43,52);fill-rule:nonzero;"/>
        <path d="M78.213,307.218C78.213,307.362 77.113,307.479 75.756,307.479C74.399,307.479 73.3,307.362 73.3,307.218C73.3,307.074 74.399,306.958 75.756,306.958C77.113,306.958 78.213,307.074 78.213,307.218Z" style="fill:rgb(12,43,52);fill-rule:nonzero;"/>
        <path d="M88.04,307.218C88.04,307.362 86.94,307.479 85.583,307.479C84.226,307.479 83.126,307.362 83.126,307.218C83.126,307.074 84.226,306.958 85.583,306.958C86.94,306.958 88.04,307.074 88.04,307.218Z" style="fill:rgb(12,43,52);fill-rule:nonzero;"/>
        <path d="M97.867,307.218C97.867,307.362 96.766,307.479 95.41,307.479C94.053,307.479 92.953,307.362 92.953,307.218C92.953,307.074 94.053,306.958 95.41,306.958C96.766,306.958 97.867,307.074 97.867,307.218Z" style="fill:rgb(12,43,52);fill-rule:nonzero;"/>
        <path d="M107.694,307.218C107.694,307.362 106.594,307.479 105.237,307.479C103.88,307.479 102.781,307.362 102.781,307.218C102.781,307.074 103.88,306.958 105.237,306.958C106.594,306.958 107.694,307.074 107.694,307.218Z" style="fill:rgb(12,43,52);fill-rule:nonzero;"/>
        <path d="M117.521,307.218C117.521,307.362 116.421,307.479 115.064,307.479C113.707,307.479 112.607,307.362 112.607,307.218C112.607,307.074 113.707,306.958 115.064,306.958C116.421,306.958 117.521,307.074 117.521,307.218Z" style="fill:rgb(12,43,52);fill-rule:nonzero;"/>
        <path d="M127.347,307.218C127.347,307.362 126.247,307.479 124.891,307.479C123.534,307.479 122.434,307.362 122.434,307.218C122.434,307.074 123.534,306.958 124.891,306.958C126.247,306.958 127.347,307.074 127.347,307.218Z" style="fill:rgb(12,43,52);fill-rule:nonzero;"/>
        <path d="M137.175,307.218C137.175,307.362 136.075,307.479 134.718,307.479C133.361,307.479 132.261,307.362 132.261,307.218C132.261,307.074 133.361,306.958 134.718,306.958C136.075,306.958 137.175,307.074 137.175,307.218Z" style="fill:rgb(12,43,52);fill-rule:nonzero;"/>
        <path d="M147.001,307.218C147.001,307.362 145.901,307.479 144.545,307.479C143.188,307.479 142.088,307.362 142.088,307.218C142.088,307.074 143.188,306.958 144.545,306.958C145.901,306.958 147.001,307.074 147.001,307.218Z" style="fill:rgb(12,43,52);fill-rule:nonzero;"/>
        <path d="M156.828,307.218C156.828,307.362 155.728,307.479 154.371,307.479C153.014,307.479 151.915,307.362 151.915,307.218C151.915,307.074 153.014,306.958 154.371,306.958C155.728,306.958 156.828,307.074 156.828,307.218Z" style="fill:rgb(12,43,52);fill-rule:nonzero;"/>
        <path d="M164.242,307.218C164.242,307.362 163.682,307.479 162.992,307.479C162.301,307.479 161.742,307.362 161.742,307.218C161.742,307.074 162.301,306.958 162.992,306.958C163.682,306.958 164.242,307.074 164.242,307.218Z" style="fill:rgb(12,43,52);fill-rule:nonzero;"/>
        <path d="M165.448,106.547L105.034,106.59L104.974,23.918L165.388,23.874L165.448,106.547Z" style="fill:white;fill-rule:nonzero;"/>
        <path d="M165.448,106.547C165.448,106.547 165.438,106.404 165.432,106.14C165.428,105.857 165.423,105.472 165.415,104.97C165.407,103.924 165.395,102.412 165.379,100.452C165.359,96.496 165.33,90.744 165.294,83.47C165.25,68.92 165.189,48.289 165.116,23.874L165.389,24.147C147.195,24.169 126.651,24.193 104.981,24.219L104.974,24.219L105.275,23.917C105.277,54.798 105.278,83.387 105.279,106.59L105.034,106.345C123.306,106.385 138.378,106.418 148.904,106.441C154.161,106.464 158.282,106.483 161.112,106.496C162.507,106.506 163.58,106.515 164.329,106.521C165.059,106.529 165.448,106.547 165.448,106.547C165.448,106.547 165.095,106.565 164.381,106.574C163.643,106.582 162.586,106.591 161.21,106.605C158.393,106.621 154.291,106.645 149.057,106.676C138.495,106.714 123.371,106.77 105.034,106.836L104.788,106.837L104.787,106.59C104.755,83.387 104.715,54.798 104.673,23.918L104.672,23.616L104.98,23.616C126.65,23.611 147.195,23.605 165.388,23.601L165.662,23.601L165.662,23.874C165.624,48.362 165.592,69.055 165.569,83.648C165.543,90.895 165.523,96.626 165.509,100.568C165.496,102.505 165.486,103.998 165.479,105.032C165.472,105.521 165.468,105.897 165.464,106.172C165.459,106.426 165.454,106.552 165.448,106.547Z" style="fill:rgb(12,43,52);fill-rule:nonzero;"/>
        <path d="M141.933,40.507C141.934,40.674 135.361,40.813 127.255,40.819C119.146,40.825 112.575,40.695 112.575,40.529C112.574,40.362 119.145,40.223 127.254,40.217C135.361,40.211 141.933,40.341 141.933,40.507Z" style="fill:rgb(12,43,52);fill-rule:nonzero;"/>
        <path d="M157.817,47.68C157.818,47.846 147.69,47.988 135.2,47.998C122.705,48.006 112.58,47.879 112.579,47.712C112.579,47.546 122.705,47.404 135.2,47.395C147.689,47.386 157.817,47.513 157.817,47.68Z" style="fill:rgb(12,43,52);fill-rule:nonzero;"/>
        <path d="M157.823,55.174C157.823,55.341 147.695,55.483 135.205,55.492C122.711,55.501 112.585,55.374 112.585,55.207C112.585,55.041 122.71,54.898 135.205,54.889C147.695,54.88 157.823,55.008 157.823,55.174Z" style="fill:rgb(12,43,52);fill-rule:nonzero;"/>
        <path d="M157.828,62.668C157.828,62.835 147.701,62.978 135.211,62.986C122.716,62.996 112.59,62.868 112.59,62.701C112.59,62.535 122.716,62.393 135.21,62.383C147.701,62.374 157.828,62.502 157.828,62.668Z" style="fill:rgb(12,43,52);fill-rule:nonzero;"/>
        <path d="M157.834,70.163C157.834,70.33 147.706,70.472 135.216,70.481C122.721,70.49 112.596,70.362 112.596,70.196C112.596,70.029 122.721,69.887 135.216,69.878C147.706,69.869 157.833,69.997 157.834,70.163Z" style="fill:rgb(12,43,52);fill-rule:nonzero;"/>
        <path d="M157.839,77.658C157.839,77.824 147.712,77.966 135.221,77.976C122.727,77.984 112.601,77.857 112.601,77.69C112.601,77.524 122.726,77.381 135.221,77.373C147.711,77.363 157.839,77.491 157.839,77.658Z" style="fill:rgb(12,43,52);fill-rule:nonzero;"/>
        <path d="M157.844,85.152C157.845,85.318 147.717,85.461 135.227,85.47C122.732,85.479 112.607,85.351 112.606,85.185C112.606,85.018 122.732,84.876 135.226,84.867C147.717,84.858 157.844,84.985 157.844,85.152Z" style="fill:rgb(12,43,52);fill-rule:nonzero;"/>
        <path d="M136.928,92.662C136.928,92.828 131.484,92.967 124.77,92.972C118.055,92.977 112.612,92.846 112.612,92.679C112.612,92.513 118.054,92.374 124.77,92.369C131.484,92.364 136.928,92.495 136.928,92.662Z" style="fill:rgb(12,43,52);fill-rule:nonzero;"/>
        <path d="M172.436,100.286C172.436,107.063 166.942,112.557 160.164,112.557C153.387,112.557 147.893,107.063 147.893,100.286C147.893,93.508 153.387,88.014 160.164,88.014C166.942,88.014 172.436,93.508 172.436,100.286Z" style="fill:rgb(253,205,51);fill-rule:nonzero;"/>
        <path d="M167.202,95.555C167.728,96.046 165.318,99.48 161.821,103.225C161.258,103.827 160.701,104.401 160.171,104.927L159.322,105.77L158.478,105.061C155.425,102.497 153.429,100.3 153.799,99.823C154.17,99.347 156.789,100.744 160.024,103.075L158.331,103.209C158.82,102.644 159.355,102.05 159.918,101.447C163.415,97.703 166.678,95.064 167.202,95.555Z" style="fill:white;fill-rule:nonzero;"/>
        <path d="M130.639,111.075C130.494,111.075 130.379,109.955 130.379,108.575C130.379,107.194 130.494,106.075 130.639,106.075C130.783,106.075 130.899,107.194 130.899,108.575C130.899,109.955 130.783,111.075 130.639,111.075Z" style="fill:rgb(12,43,52);fill-rule:nonzero;"/>
        <path d="M130.639,121.075C130.494,121.075 130.379,119.955 130.379,118.575C130.379,117.194 130.494,116.075 130.639,116.075C130.783,116.075 130.899,117.194 130.899,118.575C130.899,119.955 130.783,121.075 130.639,121.075Z" style="fill:rgb(12,43,52);fill-rule:nonzero;"/>
        <path d="M130.639,131.075C130.494,131.075 130.379,129.955 130.379,128.575C130.379,127.194 130.494,126.075 130.639,126.075C130.783,126.075 130.899,127.194 130.899,128.575C130.899,129.955 130.783,131.075 130.639,131.075Z" style="fill:rgb(12,43,52);fill-rule:nonzero;"/>
        <path d="M130.639,141.075C130.494,141.075 130.379,139.955 130.379,138.575C130.379,137.194 130.494,136.075 130.639,136.075C130.783,136.075 130.899,137.194 130.899,138.575C130.899,139.955 130.783,141.075 130.639,141.075Z" style="fill:rgb(12,43,52);fill-rule:nonzero;"/>
        <path d="M130.639,151.075C130.494,151.075 130.379,149.955 130.379,148.575C130.379,147.194 130.494,146.075 130.639,146.075C130.783,146.075 130.899,147.194 130.899,148.575C130.899,149.955 130.783,151.075 130.639,151.075Z" style="fill:rgb(12,43,52);fill-rule:nonzero;"/>
        <path d="M130.639,161.075C130.494,161.075 130.379,159.955 130.379,158.575C130.379,157.194 130.494,156.075 130.639,156.075C130.783,156.075 130.899,157.194 130.899,158.575C130.899,159.955 130.783,161.075 130.639,161.075Z" style="fill:rgb(12,43,52);fill-rule:nonzero;"/>
        <path d="M130.639,171.075C130.494,171.075 130.379,169.955 130.379,168.575C130.379,167.194 130.494,166.075 130.639,166.075C130.783,166.075 130.899,167.194 130.899,168.575C130.899,169.955 130.783,171.075 130.639,171.075Z" style="fill:rgb(12,43,52);fill-rule:nonzero;"/>
        <path d="M130.639,181.075C130.494,181.075 130.379,179.955 130.379,178.575C130.379,177.194 130.494,176.075 130.639,176.075C130.783,176.075 130.899,177.194 130.899,178.575C130.899,179.955 130.783,181.075 130.639,181.075Z" style="fill:rgb(12,43,52);fill-rule:nonzero;"/>
        <path d="M135.464,186.25C135.464,186.393 134.345,186.51 132.964,186.51C131.903,186.51 130.996,186.441 130.639,186.344L130.529,186.314L130.545,186.25C130.574,186.135 130.606,186.075 130.639,186.075C130.672,186.075 130.703,186.135 130.733,186.25L130.639,186.155C130.996,186.058 131.903,185.989 132.964,185.989C134.345,185.989 135.464,186.105 135.464,186.25Z" style="fill:rgb(12,43,52);fill-rule:nonzero;"/>
        <path d="M145.464,186.25C145.464,186.393 144.345,186.51 142.964,186.51C141.583,186.51 140.464,186.393 140.464,186.25C140.464,186.105 141.583,185.989 142.964,185.989C144.345,185.989 145.464,186.105 145.464,186.25Z" style="fill:rgb(12,43,52);fill-rule:nonzero;"/>
        <path d="M155.464,186.25C155.464,186.393 154.345,186.51 152.964,186.51C151.583,186.51 150.464,186.393 150.464,186.25C150.464,186.105 151.583,185.989 152.964,185.989C154.345,185.989 155.464,186.105 155.464,186.25Z" style="fill:rgb(12,43,52);fill-rule:nonzero;"/>
        <path d="M165.464,186.25C165.464,186.393 164.345,186.51 162.964,186.51C161.583,186.51 160.464,186.393 160.464,186.25C160.464,186.105 161.583,185.989 162.964,185.989C164.345,185.989 165.464,186.105 165.464,186.25Z" style="fill:rgb(12,43,52);fill-rule:nonzero;"/>
        <path d="M175.464,186.25C175.464,186.393 174.345,186.51 172.964,186.51C171.583,186.51 170.464,186.393 170.464,186.25C170.464,186.105 171.583,185.989 172.964,185.989C174.345,185.989 175.464,186.105 175.464,186.25Z" style="fill:rgb(12,43,52);fill-rule:nonzero;"/>
        <path d="M342.018,95.791C341.874,95.791 341.758,94.672 341.758,93.292C341.758,91.912 341.874,90.793 342.018,90.793C342.161,90.793 342.279,91.912 342.279,93.292C342.279,94.672 342.161,95.791 342.018,95.791Z" style="fill:rgb(12,43,52);fill-rule:nonzero;"/>
        <path d="M342.018,105.788C341.874,105.788 341.758,104.668 341.758,103.288C341.758,101.907 341.874,100.788 342.018,100.788C342.161,100.788 342.279,101.907 342.279,103.288C342.279,104.668 342.161,105.788 342.018,105.788Z" style="fill:rgb(12,43,52);fill-rule:nonzero;"/>
        <path d="M342.018,115.785C341.874,115.785 341.758,114.667 341.758,113.287C341.758,111.906 341.874,110.788 342.018,110.788C342.161,110.788 342.279,111.906 342.279,113.287C342.279,114.667 342.161,115.785 342.018,115.785Z" style="fill:rgb(12,43,52);fill-rule:nonzero;"/>
        <path d="M342.018,125.781C341.874,125.781 341.758,124.662 341.758,123.282C341.758,121.901 341.874,120.783 342.018,120.783C342.161,120.783 342.279,121.901 342.279,123.282C342.279,124.662 342.161,125.781 342.018,125.781Z" style="fill:rgb(12,43,52);fill-rule:nonzero;"/>
        <path d="M342.018,135.784C341.874,135.784 341.758,134.664 341.758,133.283C341.758,131.901 341.874,130.781 342.018,130.781C342.161,130.781 342.279,131.901 342.279,133.283C342.279,134.664 342.161,135.784 342.018,135.784Z" style="fill:rgb(12,43,52);fill-rule:nonzero;"/>
        <path d="M342.018,145.788C341.874,145.788 341.758,144.669 341.758,143.289C341.758,141.907 341.874,140.788 342.018,140.788C342.161,140.788 342.279,141.907 342.279,143.289C342.279,144.669 342.161,145.788 342.018,145.788Z" style="fill:rgb(12,43,52);fill-rule:nonzero;"/>
        <path d="M342.018,155.789C341.874,155.789 341.758,154.669 341.758,153.289C341.758,151.908 341.874,150.789 342.018,150.789C342.161,150.789 342.279,151.908 342.279,153.289C342.279,154.669 342.161,155.789 342.018,155.789Z" style="fill:rgb(12,43,52);fill-rule:nonzero;"/>
        <path d="M342.018,165.793C341.874,165.793 341.758,164.673 341.758,163.292C341.758,161.909 341.874,160.789 342.018,160.789C342.161,160.789 342.279,161.909 342.279,163.292C342.279,164.673 342.161,165.793 342.018,165.793Z" style="fill:rgb(12,43,52);fill-rule:nonzero;"/>
        <path d="M409.929,102.208C409.929,102.208 409.736,102.223 409.339,102.231C408.92,102.236 408.333,102.244 407.57,102.254C405.98,102.265 403.669,102.28 400.68,102.3C394.629,102.321 385.852,102.352 374.837,102.391C352.712,102.425 321.618,102.474 285.645,102.529L285.405,102.53L285.337,102.298C283.49,95.996 284.618,88.61 288.746,82.962C292.86,77.33 299.925,73.741 307.205,73.928L306.874,74.354C306.34,72.513 306.091,70.436 306.184,68.367C306.459,61.472 310.379,54.813 316.397,51.73C322.336,48.594 329.668,48.71 335.295,51.832L334.834,51.995C338.04,44.174 344.804,38.502 352.143,35.874C359.503,33.199 367.666,33.551 374.084,36.908C380.535,40.213 385.126,45.842 387.669,51.749C390.279,57.688 390.639,64.065 389.34,69.541L389.091,69.258C392.781,68.85 396.35,69.483 399.416,70.738C402.488,71.997 405.096,73.845 407.076,75.987C408.061,77.054 408.914,78.212 409.488,79.445C410.059,80.675 410.484,81.91 410.772,83.12C411.366,85.536 411.577,87.801 411.651,89.83C411.781,93.896 411.289,97.03 410.846,99.105C410.607,100.143 410.399,100.921 410.206,101.443C410.027,101.962 409.929,102.208 409.929,102.208Z" style="fill:rgb(253,205,51);fill-rule:nonzero;"/>
        <path d="M398.615,67.957L394.763,67.957L394.763,44.794C394.763,39.231 390.237,34.705 384.674,34.705C379.111,34.705 374.584,39.231 374.584,44.794L374.584,67.957L370.733,67.957L370.733,44.794C370.733,37.107 376.987,30.854 384.674,30.854C392.361,30.854 398.615,37.107 398.615,44.794L398.615,67.957Z" style="fill:rgb(133,215,239);fill-rule:nonzero;"/>
        <path d="M400.341,82.109L369.006,82.109C367.133,82.109 365.615,80.59 365.615,78.717L365.615,61.045C365.615,59.172 367.133,57.653 369.006,57.653L400.341,57.653C402.214,57.653 403.733,59.172 403.733,61.045L403.733,78.717C403.733,80.59 402.214,82.109 400.341,82.109Z" style="fill:rgb(133,215,239);fill-rule:nonzero;"/>
        <path d="M384.673,69.881C382.914,69.881 381.488,68.455 381.488,66.695C381.488,64.936 382.914,63.509 384.673,63.509C386.433,63.509 387.86,64.936 387.86,66.695C387.86,68.455 386.433,69.881 384.673,69.881Z" style="fill:white;fill-rule:nonzero;"/>
        <rect x="383.804" y="67.957" width="1.738" height="6.552" style="fill:white;fill-rule:nonzero;"/>
        <path d="M615.975,34.627C618.229,37.043 618.097,40.829 615.682,43.083C613.266,45.336 609.48,45.205 607.226,42.79C604.973,40.374 605.104,36.588 607.52,34.334C609.936,32.081 613.721,32.212 615.975,34.627ZM619.058,60.272C627.479,52.415 627.937,39.219 620.08,30.797C612.223,22.376 599.027,21.918 590.606,29.775C583.403,36.496 582.032,47.12 586.701,55.324L582.457,59.282L583.471,66.325L576.886,64.479L571.577,69.433L572.591,76.476L566.006,74.63L561.443,78.888L562.061,83.18L558.048,82.055L555.392,84.533L554.994,91.056L564.723,93.504L596.29,64.053C603.716,67.383 612.734,66.172 619.058,60.272Z" style="fill:rgb(12,43,52);fill-rule:nonzero;"/>
        <path d="M615.975,34.627C615.937,34.667 615.584,34.263 614.786,33.772C614.003,33.292 612.675,32.76 611.022,32.946C609.399,33.099 607.468,34.14 606.492,36.1C605.484,38.001 605.677,40.78 607.416,42.611C609.122,44.475 611.882,44.86 613.849,43.986C615.871,43.147 617.044,41.294 617.31,39.685C617.609,38.048 617.17,36.687 616.745,35.872C616.311,35.042 615.933,34.663 615.975,34.627C615.988,34.615 616.085,34.704 616.261,34.886C616.44,35.064 616.676,35.359 616.923,35.774C617.416,36.586 617.942,37.997 617.672,39.747C617.439,41.465 616.22,43.492 614.037,44.428C612.97,44.896 611.695,45.074 610.443,44.831C609.184,44.612 607.967,43.949 607.035,42.966C606.12,41.969 605.543,40.709 605.412,39.439C605.257,38.173 605.523,36.913 606.064,35.881C607.149,33.769 609.255,32.693 610.985,32.58C612.749,32.432 614.12,33.053 614.897,33.602C615.293,33.877 615.571,34.133 615.737,34.324C615.907,34.512 615.988,34.615 615.975,34.627Z" style="fill:rgb(12,43,52);fill-rule:nonzero;"/>
        <path d="M619.058,60.272C619.058,60.272 618.961,60.374 618.758,60.56C618.538,60.756 618.235,61.027 617.839,61.379C616.981,62.037 615.698,63.032 613.803,63.944C611.917,64.849 609.422,65.685 606.393,65.936C603.377,66.163 599.806,65.777 596.226,64.197L596.398,64.168C588.261,71.787 577.437,81.921 564.883,93.676L564.79,93.763L564.665,93.731C561.612,92.966 558.312,92.139 554.935,91.292L554.739,91.243L554.75,91.041C554.873,89.007 555.007,86.777 555.143,84.518L555.149,84.419L555.222,84.351C556.046,83.582 556.958,82.729 557.876,81.872L557.98,81.775L558.116,81.813C559.366,82.163 560.742,82.548 562.129,82.936L561.81,83.216C561.617,81.875 561.404,80.405 561.19,78.924L561.171,78.792L561.269,78.701C562.702,77.362 564.259,75.908 565.83,74.442L565.936,74.343L566.076,74.382C568.155,74.964 570.399,75.592 572.66,76.226L572.333,76.513C572.012,74.28 571.667,71.884 571.32,69.47L571.3,69.335L571.4,69.242C571.844,68.828 572.325,68.379 572.807,67.929C574.116,66.709 575.416,65.495 576.708,64.29L576.816,64.19L576.956,64.229C579.17,64.85 581.366,65.466 583.54,66.076L583.214,66.362C582.873,63.99 582.536,61.642 582.202,59.319L582.184,59.186L582.282,59.094C583.711,57.762 585.126,56.443 586.527,55.138L586.479,55.45C584.835,52.497 583.89,49.22 583.768,45.955C583.701,44.326 583.797,42.7 584.114,41.129C584.384,39.55 584.889,38.035 585.502,36.594C588.003,30.801 593.051,26.63 598.466,24.953C603.91,23.225 609.618,23.917 614.077,26.132C618.602,28.315 621.808,31.987 623.676,35.721C625.5,39.515 626.034,43.388 625.726,46.666C625.455,49.962 624.467,52.676 623.387,54.696C623.254,54.951 623.124,55.198 622.999,55.438C622.852,55.666 622.708,55.886 622.571,56.1C622.286,56.522 622.05,56.936 621.78,57.284C621.216,57.961 620.784,58.57 620.36,58.995C619.945,59.409 619.625,59.728 619.395,59.957C619.177,60.171 619.058,60.272 619.058,60.272C619.058,60.272 619.156,60.148 619.363,59.924C619.584,59.687 619.892,59.359 620.291,58.933C620.703,58.501 621.122,57.886 621.669,57.204C621.933,56.855 622.161,56.439 622.438,56.017C622.572,55.803 622.711,55.583 622.854,55.355C622.975,55.115 623.101,54.868 623.229,54.614C624.277,52.598 625.227,49.904 625.47,46.646C625.749,43.406 625.196,39.59 623.381,35.867C621.522,32.203 618.354,28.608 613.905,26.484C609.522,24.327 603.924,23.669 598.6,25.375C593.305,27.031 588.377,31.124 585.945,36.787C585.349,38.196 584.858,39.676 584.596,41.22C584.288,42.754 584.197,44.342 584.265,45.933C584.389,49.122 585.316,52.318 586.921,55.198L587.02,55.374L586.873,55.51C585.475,56.816 584.061,58.136 582.632,59.47L582.711,59.246C583.046,61.568 583.385,63.917 583.727,66.288L583.784,66.682L583.401,66.575C581.225,65.965 579.031,65.351 576.816,64.73L577.064,64.67C575.772,65.875 574.47,67.09 573.162,68.31C572.68,68.76 572.199,69.208 571.755,69.623L571.835,69.395C572.182,71.81 572.527,74.206 572.848,76.438L572.905,76.833L572.521,76.726C570.258,76.091 568.015,75.461 565.937,74.878L566.182,74.819C564.611,76.284 563.052,77.737 561.617,79.074L561.696,78.851C561.909,80.332 562.119,81.803 562.312,83.144L562.367,83.529L561.992,83.424C560.606,83.035 559.23,82.648 557.98,82.297L558.219,82.239C557.299,83.096 556.386,83.946 555.562,84.715L555.64,84.548C555.5,86.808 555.363,89.037 555.238,91.071L555.054,90.819C558.429,91.672 561.728,92.506 564.78,93.277L564.563,93.333C577.159,81.624 588.019,71.528 596.183,63.938L596.259,63.867L596.355,63.91C599.871,65.485 603.392,65.891 606.374,65.691C609.371,65.467 611.849,64.665 613.731,63.791C615.621,62.911 616.912,61.945 617.785,61.311C618.191,60.974 618.503,60.715 618.729,60.527C618.942,60.353 619.058,60.272 619.058,60.272Z" style="fill:rgb(12,43,52);fill-rule:nonzero;"/>
        <path d="M615.276,32.261C617.53,34.676 617.399,38.462 614.983,40.716C612.567,42.97 608.782,42.838 606.528,40.422C604.274,38.007 604.405,34.221 606.821,31.967C609.237,29.714 613.022,29.845 615.276,32.261ZM618.359,57.905C626.781,50.048 627.238,36.852 619.381,28.431C611.525,20.009 598.328,19.551 589.907,27.408C582.703,34.128 581.332,44.753 586.001,52.957L585.995,52.962L581.758,56.915L582.772,63.958L576.187,62.113L570.878,67.066L571.892,74.109L565.307,72.263L560.744,76.52L561.362,80.813L557.349,79.688L554.693,82.166L554.295,88.689L564.024,91.137L595.591,61.687C603.018,65.016 612.034,63.806 618.359,57.905Z" style="fill:rgb(215,217,217);fill-rule:nonzero;"/>
        <path d="M615.276,32.261C615.238,32.3 614.885,31.896 614.087,31.405C613.304,30.925 611.977,30.394 610.323,30.579C608.7,30.731 606.77,31.773 605.792,33.732C604.785,35.634 604.978,38.413 606.717,40.244C608.424,42.107 611.184,42.493 613.151,41.619C615.173,40.78 616.346,38.927 616.611,37.318C616.91,35.681 616.472,34.32 616.046,33.505C615.613,32.676 615.234,32.296 615.276,32.261C615.289,32.249 615.387,32.337 615.563,32.519C615.742,32.698 615.977,32.992 616.224,33.407C616.718,34.219 617.243,35.63 616.974,37.38C616.741,39.098 615.521,41.125 613.338,42.061C612.272,42.53 610.996,42.707 609.743,42.464C608.486,42.246 607.268,41.582 606.336,40.599C605.422,39.603 604.844,38.342 604.714,37.072C604.559,35.806 604.824,34.546 605.366,33.514C606.45,31.402 608.556,30.326 610.286,30.212C612.05,30.065 613.422,30.687 614.198,31.235C614.595,31.51 614.872,31.766 615.037,31.957C615.207,32.145 615.289,32.249 615.276,32.261Z" style="fill:rgb(12,43,52);fill-rule:nonzero;"/>
        <path d="M618.359,57.905C618.359,57.905 618.263,58.007 618.059,58.193C617.839,58.389 617.535,58.66 617.141,59.012C616.283,59.67 614.999,60.665 613.105,61.578C611.219,62.482 608.724,63.318 605.694,63.569C602.678,63.795 599.107,63.41 595.527,61.83L595.699,61.802C587.562,69.42 576.738,79.555 564.184,91.309L564.091,91.396L563.967,91.365C560.912,90.599 557.613,89.772 554.236,88.926L554.039,88.876L554.052,88.674C554.174,86.64 554.308,84.41 554.445,82.151L554.451,82.052L554.523,81.984C555.347,81.214 556.259,80.362 557.177,79.504L557.281,79.408L557.416,79.446C558.666,79.796 560.043,80.181 561.43,80.569L561.111,80.849C560.917,79.509 560.704,78.038 560.492,76.557L560.472,76.425L560.57,76.333C562.003,74.995 563.561,73.541 565.131,72.075L565.238,71.976L565.377,72.015C567.455,72.597 569.7,73.225 571.962,73.859L571.635,74.145C571.314,71.913 570.968,69.517 570.62,67.103L570.601,66.968L570.701,66.875C571.145,66.461 571.626,66.012 572.108,65.562C573.416,64.342 574.717,63.128 576.01,61.923L576.117,61.823L576.257,61.862C578.472,62.483 580.666,63.099 582.842,63.709L582.515,63.995C582.175,61.624 581.837,59.274 581.504,56.952L581.485,56.819L581.583,56.727C583.012,55.395 584.427,54.076 585.827,52.77L585.78,53.083C584.137,50.129 583.192,46.853 583.07,43.588C583.001,41.959 583.099,40.333 583.414,38.763C583.686,37.183 584.191,35.668 584.803,34.227C587.305,28.434 592.353,24.264 597.767,22.586C603.211,20.858 608.92,21.55 613.378,23.765C617.904,25.949 621.109,29.621 622.977,33.354C624.801,37.147 625.335,41.021 625.028,44.3C624.756,47.595 623.769,50.309 622.688,52.329C622.555,52.584 622.426,52.832 622.3,53.072C622.153,53.299 622.01,53.52 621.871,53.733C621.588,54.155 621.352,54.569 621.08,54.916C620.518,55.595 620.085,56.204 619.66,56.627C619.245,57.042 618.926,57.36 618.697,57.59C618.478,57.804 618.359,57.905 618.359,57.905C618.359,57.905 618.457,57.782 618.664,57.557C618.886,57.321 619.193,56.993 619.592,56.566C620.005,56.134 620.423,55.519 620.971,54.837C621.235,54.488 621.463,54.072 621.739,53.65C621.873,53.437 622.012,53.216 622.155,52.988C622.277,52.749 622.402,52.501 622.531,52.247C623.577,50.231 624.529,47.537 624.771,44.279C625.051,41.039 624.497,37.224 622.682,33.5C620.824,29.835 617.655,26.241 613.206,24.117C608.824,21.96 603.225,21.302 597.901,23.008C592.607,24.664 587.678,28.756 585.246,34.419C584.65,35.829 584.159,37.309 583.897,38.853C583.59,40.387 583.498,41.976 583.567,43.566C583.69,46.755 584.617,49.951 586.223,52.831L586.321,53.007L586.175,53.143C584.776,54.449 583.362,55.77 581.934,57.103L582.013,56.879C582.348,59.201 582.686,61.55 583.029,63.921L583.085,64.315L582.701,64.208C580.527,63.598 578.331,62.983 576.117,62.363L576.365,62.303C575.073,63.509 573.772,64.723 572.463,65.943C571.982,66.393 571.5,66.842 571.056,67.256L571.136,67.029C571.484,69.443 571.827,71.839 572.149,74.072L572.205,74.466L571.822,74.359C569.56,73.724 567.316,73.095 565.238,72.512L565.484,72.452C563.911,73.917 562.353,75.37 560.918,76.708L560.997,76.484C561.209,77.965 561.42,79.436 561.613,80.777L561.668,81.163L561.293,81.057C559.908,80.668 558.531,80.281 557.282,79.93L557.52,79.872C556.601,80.729 555.688,81.58 554.863,82.348L554.942,82.181C554.802,84.44 554.664,86.67 554.538,88.704L554.355,88.453C557.73,89.305 561.029,90.139 564.081,90.91L563.865,90.966C576.46,79.256 587.32,69.161 595.484,61.571L595.561,61.5L595.656,61.543C599.172,63.119 602.693,63.524 605.675,63.325C608.672,63.1 611.151,62.298 613.033,61.425C614.922,60.544 616.214,59.578 617.086,58.944C617.492,58.607 617.804,58.348 618.03,58.161C618.242,57.986 618.359,57.905 618.359,57.905Z" style="fill:rgb(12,43,52);fill-rule:nonzero;"/>
        <path d="M616.445,56.278C616.373,56.216 617.664,55.186 619.245,52.746C620.052,51.541 620.814,49.915 621.389,47.945C621.953,45.974 622.257,43.611 621.985,41.04C621.706,38.484 620.893,35.693 619.236,33.146C617.578,30.626 615.22,28.239 612.153,26.733C610.648,25.939 608.973,25.382 607.223,25.068C606.351,24.875 605.45,24.837 604.544,24.759C603.636,24.774 602.717,24.757 601.8,24.895C598.114,25.288 594.472,26.968 591.576,29.62C588.73,32.324 586.799,35.841 586.152,39.493C585.95,40.398 585.904,41.316 585.826,42.222C585.84,43.13 585.816,44.032 585.949,44.916C586.14,46.684 586.58,48.394 587.268,49.95C588.557,53.115 590.776,55.633 593.175,57.46C595.602,59.29 598.329,60.295 600.861,60.75C603.406,61.199 605.784,61.06 607.789,60.634C609.794,60.196 611.469,59.549 612.727,58.827C615.27,57.419 616.387,56.203 616.445,56.278C616.451,56.285 616.379,56.356 616.235,56.49C616.066,56.641 615.851,56.833 615.582,57.074C615.299,57.336 614.935,57.645 614.463,57.955C614.003,58.28 613.479,58.67 612.825,59.005C611.569,59.761 609.883,60.447 607.851,60.918C605.82,61.378 603.4,61.548 600.798,61.113C598.212,60.673 595.415,59.666 592.919,57.808C590.451,55.953 588.164,53.382 586.826,50.138C586.115,48.542 585.657,46.788 585.454,44.972C585.317,44.064 585.337,43.138 585.322,42.204C585.399,41.273 585.446,40.33 585.651,39.398C586.31,35.644 588.292,32.019 591.222,29.239C594.198,26.511 597.951,24.785 601.741,24.389C602.684,24.249 603.628,24.268 604.562,24.255C605.492,24.335 606.417,24.379 607.313,24.58C609.111,24.907 610.828,25.486 612.371,26.306C615.514,27.865 617.92,30.324 619.6,32.915C621.281,35.534 622.091,38.394 622.351,41.003C622.605,43.629 622.269,46.031 621.669,48.026C621.058,50.02 620.257,51.654 619.415,52.855C619.036,53.485 618.612,53.981 618.254,54.417C617.912,54.867 617.579,55.208 617.298,55.473C617.039,55.725 616.832,55.926 616.67,56.083C616.527,56.219 616.451,56.285 616.445,56.278Z" style="fill:rgb(12,43,52);fill-rule:nonzero;"/>
        <path d="M615.597,41.48C615.555,41.44 616.033,41.031 616.615,40.097C617.183,39.178 617.815,37.619 617.6,35.67C617.488,34.71 617.176,33.666 616.55,32.714C615.924,31.774 615.038,30.884 613.89,30.325C612.761,29.748 611.392,29.472 610.021,29.647C608.644,29.796 607.287,30.424 606.206,31.414C605.144,32.423 604.423,33.734 604.179,35.097C603.909,36.453 604.089,37.839 604.587,39.004C605.065,40.189 605.891,41.135 606.786,41.824C607.692,42.515 608.712,42.898 609.662,43.076C611.591,43.425 613.191,42.903 614.146,42.399C615.118,41.883 615.56,41.436 615.597,41.48C615.609,41.493 615.503,41.605 615.287,41.809C615.077,42.016 614.731,42.29 614.244,42.577C613.292,43.149 611.642,43.757 609.6,43.439C608.596,43.275 607.505,42.891 606.531,42.172C605.566,41.455 604.671,40.457 604.146,39.192C603.6,37.948 603.395,36.462 603.678,35.002C603.933,33.536 604.706,32.118 605.851,31.033C607.013,29.967 608.481,29.293 609.961,29.141C611.437,28.959 612.905,29.267 614.108,29.898C615.332,30.51 616.266,31.471 616.915,32.483C617.564,33.505 617.873,34.62 617.966,35.633C618.143,37.692 617.422,39.296 616.784,40.207C616.465,40.672 616.167,40.999 615.947,41.195C615.728,41.395 615.609,41.493 615.597,41.48Z" style="fill:rgb(12,43,52);fill-rule:nonzero;"/>
        <path d="M561.474,89.982C561.376,89.877 568.485,83.086 577.35,74.815C586.217,66.542 593.484,59.923 593.581,60.028C593.68,60.133 586.573,66.923 577.704,75.196C568.84,83.467 561.573,90.087 561.474,89.982Z" style="fill:rgb(12,43,52);fill-rule:nonzero;"/>
        <path d="M530.758,180.319C530.758,180.463 529.639,180.58 528.258,180.58C526.877,180.58 525.758,180.463 525.758,180.319C525.758,180.175 526.877,180.059 528.258,180.059C529.639,180.059 530.758,180.175 530.758,180.319Z" style="fill:rgb(12,43,52);fill-rule:nonzero;"/>
        <path d="M540.758,180.319C540.758,180.463 539.639,180.58 538.258,180.58C536.877,180.58 535.758,180.463 535.758,180.319C535.758,180.175 536.877,180.059 538.258,180.059C539.639,180.059 540.758,180.175 540.758,180.319Z" style="fill:rgb(12,43,52);fill-rule:nonzero;"/>
        <path d="M550.758,180.319C550.758,180.463 549.639,180.58 548.258,180.58C546.877,180.58 545.758,180.463 545.758,180.319C545.758,180.175 546.877,180.059 548.258,180.059C549.639,180.059 550.758,180.175 550.758,180.319Z" style="fill:rgb(12,43,52);fill-rule:nonzero;"/>
        <path d="M560.758,180.319C560.758,180.463 559.639,180.58 558.258,180.58C556.877,180.58 555.758,180.463 555.758,180.319C555.758,180.175 556.877,180.059 558.258,180.059C559.639,180.059 560.758,180.175 560.758,180.319Z" style="fill:rgb(12,43,52);fill-rule:nonzero;"/>
        <path d="M570.758,180.319C570.758,180.463 569.639,180.58 568.258,180.58C566.877,180.58 565.758,180.463 565.758,180.319C565.758,180.175 566.877,180.059 568.258,180.059C569.639,180.059 570.758,180.175 570.758,180.319Z" style="fill:rgb(12,43,52);fill-rule:nonzero;"/>
        <path d="M580.758,180.319C580.758,180.463 579.639,180.58 578.258,180.58C576.877,180.58 575.758,180.463 575.758,180.319C575.758,180.175 576.877,180.059 578.258,180.059C579.639,180.059 580.758,180.175 580.758,180.319Z" style="fill:rgb(12,43,52);fill-rule:nonzero;"/>
        <path d="M589.242,178.804C589.35,178.804 589.442,179.428 589.482,180.319L589.492,180.547L589.242,180.559C588.941,180.572 588.608,180.58 588.258,180.58C586.877,180.58 585.758,180.463 585.758,180.319C585.758,180.175 586.877,180.059 588.258,180.059C588.608,180.059 588.941,180.066 589.242,180.08L589.003,180.319C589.043,179.428 589.135,178.804 589.242,178.804Z" style="fill:rgb(12,43,52);fill-rule:nonzero;"/>
        <path d="M589.242,168.804C589.386,168.804 589.503,169.923 589.503,171.304C589.503,172.685 589.386,173.804 589.242,173.804C589.099,173.804 588.982,172.685 588.982,171.304C588.982,169.923 589.099,168.804 589.242,168.804Z" style="fill:rgb(12,43,52);fill-rule:nonzero;"/>
        <path d="M589.242,158.804C589.386,158.804 589.503,159.923 589.503,161.304C589.503,162.685 589.386,163.804 589.242,163.804C589.099,163.804 588.982,162.685 588.982,161.304C588.982,159.923 589.099,158.804 589.242,158.804Z" style="fill:rgb(12,43,52);fill-rule:nonzero;"/>
        <path d="M589.242,148.804C589.386,148.804 589.503,149.923 589.503,151.304C589.503,152.685 589.386,153.804 589.242,153.804C589.099,153.804 588.982,152.685 588.982,151.304C588.982,149.923 589.099,148.804 589.242,148.804Z" style="fill:rgb(12,43,52);fill-rule:nonzero;"/>
        <path d="M589.242,138.804C589.386,138.804 589.503,139.923 589.503,141.304C589.503,142.685 589.386,143.804 589.242,143.804C589.099,143.804 588.982,142.685 588.982,141.304C588.982,139.923 589.099,138.804 589.242,138.804Z" style="fill:rgb(12,43,52);fill-rule:nonzero;"/>
        <path d="M589.242,128.804C589.386,128.804 589.503,129.923 589.503,131.304C589.503,132.685 589.386,133.804 589.242,133.804C589.099,133.804 588.982,132.685 588.982,131.304C588.982,129.923 589.099,128.804 589.242,128.804Z" style="fill:rgb(12,43,52);fill-rule:nonzero;"/>
        <path d="M589.242,118.804C589.386,118.804 589.503,119.923 589.503,121.304C589.503,122.685 589.386,123.804 589.242,123.804C589.099,123.804 588.982,122.685 588.982,121.304C588.982,119.923 589.099,118.804 589.242,118.804Z" style="fill:rgb(12,43,52);fill-rule:nonzero;"/>
        <path d="M589.242,108.804C589.386,108.804 589.503,109.923 589.503,111.304C589.503,112.685 589.386,113.804 589.242,113.804C589.099,113.804 588.982,112.685 588.982,111.304C588.982,109.923 589.099,108.804 589.242,108.804Z" style="fill:rgb(12,43,52);fill-rule:nonzero;"/>
        <path d="M589.242,98.804C589.386,98.804 589.503,99.923 589.503,101.304C589.503,102.685 589.386,103.804 589.242,103.804C589.099,103.804 588.982,102.685 588.982,101.304C588.982,99.923 589.099,98.804 589.242,98.804Z" style="fill:rgb(12,43,52);fill-rule:nonzero;"/>
        <path d="M589.242,88.804C589.386,88.804 589.503,89.923 589.503,91.304C589.503,92.685 589.386,93.804 589.242,93.804C589.099,93.804 588.982,92.685 588.982,91.304C588.982,89.923 589.099,88.804 589.242,88.804Z" style="fill:rgb(12,43,52);fill-rule:nonzero;"/>
        <path d="M589.242,78.804C589.386,78.804 589.503,79.923 589.503,81.304C589.503,82.685 589.386,83.804 589.242,83.804C589.099,83.804 588.982,82.685 588.982,81.304C588.982,79.923 589.099,78.804 589.242,78.804Z" style="fill:rgb(12,43,52);fill-rule:nonzero;"/>
        <path d="M514.265,279.992C514.265,280.137 513.146,280.253 511.765,280.253C510.384,280.253 509.265,280.137 509.265,279.992C509.265,279.849 510.384,279.732 511.765,279.732C513.146,279.732 514.265,279.849 514.265,279.992Z" style="fill:rgb(12,43,52);fill-rule:nonzero;"/>
        <path d="M524.265,279.992C524.265,280.137 523.146,280.253 521.765,280.253C520.383,280.253 519.265,280.137 519.265,279.992C519.265,279.849 520.383,279.732 521.765,279.732C523.146,279.732 524.265,279.849 524.265,279.992Z" style="fill:rgb(12,43,52);fill-rule:nonzero;"/>
        <path d="M534.265,279.992C534.265,280.137 533.146,280.253 531.765,280.253C530.384,280.253 529.265,280.137 529.265,279.992C529.265,279.849 530.384,279.732 531.765,279.732C533.146,279.732 534.265,279.849 534.265,279.992Z" style="fill:rgb(12,43,52);fill-rule:nonzero;"/>
        <path d="M544.265,279.992C544.265,280.137 543.146,280.253 541.765,280.253C540.384,280.253 539.265,280.137 539.265,279.992C539.265,279.849 540.384,279.732 541.765,279.732C543.146,279.732 544.265,279.849 544.265,279.992Z" style="fill:rgb(12,43,52);fill-rule:nonzero;"/>
        <path d="M554.265,279.992C554.265,280.137 553.146,280.253 551.765,280.253C550.384,280.253 549.265,280.137 549.265,279.992C549.265,279.849 550.384,279.732 551.765,279.732C553.146,279.732 554.265,279.849 554.265,279.992Z" style="fill:rgb(12,43,52);fill-rule:nonzero;"/>
        <path d="M564.265,279.992C564.265,280.137 563.146,280.253 561.765,280.253C560.384,280.253 559.265,280.137 559.265,279.992C559.265,279.849 560.384,279.732 561.765,279.732C563.146,279.732 564.265,279.849 564.265,279.992Z" style="fill:rgb(12,43,52);fill-rule:nonzero;"/>
        <path d="M574.265,279.992C574.265,280.137 573.146,280.253 571.765,280.253C570.384,280.253 569.265,280.137 569.265,279.992C569.265,279.849 570.384,279.732 571.765,279.732C573.146,279.732 574.265,279.849 574.265,279.992Z" style="fill:rgb(12,43,52);fill-rule:nonzero;"/>
        <path d="M584.265,279.992C584.265,280.137 583.146,280.253 581.765,280.253C580.384,280.253 579.265,280.137 579.265,279.992C579.265,279.849 580.384,279.732 581.765,279.732C583.146,279.732 584.265,279.849 584.265,279.992Z" style="fill:rgb(12,43,52);fill-rule:nonzero;"/>
        <path d="M594.265,279.992C594.265,280.137 593.146,280.253 591.765,280.253C590.384,280.253 589.265,280.137 589.265,279.992C589.265,279.849 590.384,279.732 591.765,279.732C593.146,279.732 594.265,279.849 594.265,279.992Z" style="fill:rgb(12,43,52);fill-rule:nonzero;"/>
        <path d="M604.265,279.992C604.265,280.137 603.146,280.253 601.765,280.253C600.384,280.253 599.265,280.137 599.265,279.992C599.265,279.849 600.384,279.732 601.765,279.732C603.146,279.732 604.265,279.849 604.265,279.992Z" style="fill:rgb(12,43,52);fill-rule:nonzero;"/>
        <path d="M613.338,279.057C613.42,279.058 613.49,279.42 613.532,279.994L613.545,280.177L613.329,280.195C612.908,280.231 612.361,280.253 611.765,280.253C610.384,280.253 609.265,280.137 609.265,279.992C609.265,279.849 610.384,279.732 611.765,279.732C612.361,279.732 612.908,279.754 613.329,279.79L613.126,279.99C613.18,279.417 613.256,279.056 613.338,279.057Z" style="fill:rgb(12,43,52);fill-rule:nonzero;"/>
        <path d="M613.437,269.057C613.581,269.059 613.687,270.179 613.673,271.56C613.659,272.94 613.532,274.058 613.388,274.057C613.244,274.056 613.138,272.936 613.153,271.554C613.165,270.174 613.293,269.056 613.437,269.057Z" style="fill:rgb(12,43,52);fill-rule:nonzero;"/>
        <path d="M613.536,259.058C613.68,259.059 613.785,260.18 613.772,261.561C613.758,262.94 613.63,264.059 613.487,264.058C613.343,264.056 613.238,262.936 613.251,261.555C613.265,260.174 613.392,259.057 613.536,259.058Z" style="fill:rgb(12,43,52);fill-rule:nonzero;"/>
        <path d="M613.635,249.058C613.779,249.06 613.884,250.18 613.87,251.561C613.857,252.941 613.73,254.059 613.585,254.058C613.442,254.057 613.336,252.936 613.35,251.555C613.364,250.175 613.492,249.057 613.635,249.058Z" style="fill:rgb(12,43,52);fill-rule:nonzero;"/>
        <path d="M580.543,217.719L582.38,251.513C582.446,252.717 583.436,253.662 584.642,253.671L645.453,254.116C646.713,254.125 647.742,253.111 647.751,251.852L647.944,225.546C647.953,224.28 646.93,223.249 645.664,223.247L608.264,223.214C607.66,223.214 607.08,222.974 606.654,222.546L600.201,216.096C599.777,215.673 599.203,215.433 598.604,215.429L582.838,215.313C581.523,215.303 580.471,216.405 580.543,217.719Z" style="fill:rgb(133,215,239);fill-rule:nonzero;"/>
        <path d="M647.7,258.976L581.255,258.489L581.546,218.785L647.991,219.272L647.7,258.976Z" style="fill:rgb(240,240,240);fill-rule:nonzero;"/>
        <path d="M576.235,222.31L581.004,263.75C581.089,264.486 581.71,265.044 582.451,265.05L647.204,265.524C647.97,265.529 648.612,264.945 648.677,264.183L652.241,222.803C652.314,221.95 651.646,221.216 650.789,221.21L577.703,220.674C576.822,220.668 576.134,221.434 576.235,222.31Z" style="fill:rgb(133,215,239);fill-rule:nonzero;"/>
        <path d="M521.974,398.482L187.275,398.482C179.23,398.482 172.708,391.961 172.708,383.915L172.708,172.45C172.708,164.405 179.23,157.883 187.275,157.883L521.974,157.883C530.02,157.883 536.541,164.405 536.541,172.45L536.541,383.915C536.541,391.961 530.02,398.482 521.974,398.482Z" style="fill:rgb(12,43,52);fill-rule:nonzero;"/>
        <path d="M533.881,401.74L175.29,401.74C165.461,401.74 157.493,393.772 157.493,383.942L157.493,380.688L551.679,380.688L551.679,383.942C551.679,393.772 543.71,401.74 533.881,401.74Z" style="fill:rgb(12,43,52);fill-rule:nonzero;"/>
        <rect x="182.474" y="167.442" width="343.284" height="203.183" style="fill:rgb(51,88,99);fill-rule:nonzero;"/>
        <path d="M318.758,380.688L323.65,388.469L392.48,388.469L397.022,380.688L318.758,380.688Z" style="fill:rgb(51,88,99);fill-rule:nonzero;"/>
        <path d="M516.12,369.975L192.818,369.975C191.01,369.975 189.545,368.509 189.545,366.701L189.545,177.594C189.545,175.786 191.01,174.321 192.818,174.321L516.12,174.321C517.927,174.321 519.393,175.786 519.393,177.593L519.393,366.702C519.393,368.51 517.927,369.975 516.12,369.975Z" style="fill:rgb(229,229,228);fill-rule:nonzero;"/>
        <rect x="189.545" y="188.656" width="329.848" height="181.319" style="fill:rgb(249,249,249);fill-rule:nonzero;"/>
        <path d="M216.597,181.876C216.597,183.332 215.418,184.511 213.963,184.511C212.508,184.511 211.329,183.332 211.329,181.876C211.329,180.422 212.508,179.243 213.963,179.243C215.418,179.243 216.597,180.422 216.597,181.876Z" style="fill:rgb(12,43,52);fill-rule:nonzero;"/>
        <path d="M200.632,181.876C200.632,183.332 199.452,184.511 197.997,184.511C196.543,184.511 195.363,183.332 195.363,181.876C195.363,180.422 196.543,179.243 197.997,179.243C199.452,179.243 200.632,180.422 200.632,181.876Z" style="fill:rgb(12,43,52);fill-rule:nonzero;"/>
        <path d="M208.295,181.876C208.295,183.332 207.116,184.511 205.661,184.511C204.206,184.511 203.027,183.332 203.027,181.876C203.027,180.422 204.206,179.243 205.661,179.243C207.116,179.243 208.295,180.422 208.295,181.876Z" style="fill:rgb(12,43,52);fill-rule:nonzero;"/>
        <path d="M533.415,380.688C533.415,380.818 452.661,380.924 353.07,380.924C253.444,380.924 172.708,380.818 172.708,380.688C172.708,380.558 253.444,380.452 353.07,380.452C452.661,380.452 533.415,380.558 533.415,380.688Z" style="fill:rgb(51,88,99);fill-rule:nonzero;"/>
        <rect x="212.404" y="279.995" width="75.27" height="5.035" style="fill:rgb(215,217,217);fill-rule:nonzero;"/>
        <rect x="309.626" y="210.088" width="75.27" height="5.035" style="fill:rgb(215,217,217);fill-rule:nonzero;"/>
        <path d="M496.845,228.84C496.845,228.97 454.931,229.075 403.24,229.075C351.531,229.075 309.626,228.97 309.626,228.84C309.626,228.71 351.531,228.605 403.24,228.605C454.931,228.605 496.845,228.71 496.845,228.84Z" style="fill:rgb(215,217,217);fill-rule:nonzero;"/>
        <path d="M496.845,239.835C496.845,239.965 454.931,240.07 403.24,240.07C351.531,240.07 309.626,239.965 309.626,239.835C309.626,239.705 351.531,239.6 403.24,239.6C454.931,239.6 496.845,239.705 496.845,239.835Z" style="fill:rgb(215,217,217);fill-rule:nonzero;"/>
        <path d="M496.845,250.83C496.845,250.96 454.931,251.065 403.24,251.065C351.531,251.065 309.626,250.96 309.626,250.83C309.626,250.699 351.531,250.594 403.24,250.594C454.931,250.594 496.845,250.699 496.845,250.83Z" style="fill:rgb(215,217,217);fill-rule:nonzero;"/>
        <path d="M496.845,261.825C496.845,261.955 454.931,262.061 403.24,262.061C351.531,262.061 309.626,261.955 309.626,261.825C309.626,261.695 351.531,261.589 403.24,261.589C454.931,261.589 496.845,261.695 496.845,261.825Z" style="fill:rgb(215,217,217);fill-rule:nonzero;"/>
        <path d="M496.845,272.819C496.845,272.95 454.931,273.056 403.24,273.056C351.531,273.056 309.626,272.95 309.626,272.819C309.626,272.689 351.531,272.584 403.24,272.584C454.931,272.584 496.845,272.689 496.845,272.819Z" style="fill:rgb(215,217,217);fill-rule:nonzero;"/>
        <path d="M382.706,283.814C382.706,283.944 366.346,284.05 346.168,284.05C325.983,284.05 309.626,283.944 309.626,283.814C309.626,283.685 325.983,283.579 346.168,283.579C366.346,283.579 382.706,283.685 382.706,283.814Z" style="fill:rgb(215,217,217);fill-rule:nonzero;"/>
        <path d="M495.476,305.153C495.476,305.283 467.927,305.389 433.951,305.389C399.964,305.389 372.421,305.283 372.421,305.153C372.421,305.023 399.964,304.917 433.951,304.917C467.927,304.917 495.476,305.023 495.476,305.153Z" style="fill:rgb(215,217,217);fill-rule:nonzero;"/>
        <path d="M495.476,316.824C495.476,316.954 467.927,317.061 433.951,317.061C399.964,317.061 372.421,316.954 372.421,316.824C372.421,316.694 399.964,316.589 433.951,316.589C467.927,316.589 495.476,316.694 495.476,316.824Z" style="fill:rgb(215,217,217);fill-rule:nonzero;"/>
        <path d="M495.476,328.496C495.476,328.626 467.927,328.731 433.951,328.731C399.964,328.731 372.421,328.626 372.421,328.496C372.421,328.365 399.964,328.26 433.951,328.26C467.927,328.26 495.476,328.365 495.476,328.496Z" style="fill:rgb(215,217,217);fill-rule:nonzero;"/>
        <path d="M495.476,340.167C495.476,340.297 467.927,340.402 433.951,340.402C399.964,340.402 372.421,340.297 372.421,340.167C372.421,340.037 399.964,339.932 433.951,339.932C467.927,339.932 495.476,340.037 495.476,340.167Z" style="fill:rgb(215,217,217);fill-rule:nonzero;"/>
        <path d="M287.865,304.036C287.865,304.167 271.442,304.273 251.189,304.273C230.929,304.273 214.51,304.167 214.51,304.036C214.51,303.906 230.929,303.801 251.189,303.801C271.442,303.801 287.865,303.906 287.865,304.036Z" style="fill:rgb(215,217,217);fill-rule:nonzero;"/>
        <path d="M287.865,313.202C287.865,313.333 271.442,313.439 251.189,313.439C230.929,313.439 214.51,313.333 214.51,313.202C214.51,313.072 230.929,312.967 251.189,312.967C271.442,312.967 287.865,313.072 287.865,313.202Z" style="fill:rgb(215,217,217);fill-rule:nonzero;"/>
        <path d="M287.865,322.368C287.865,322.498 271.442,322.604 251.189,322.604C230.929,322.604 214.51,322.498 214.51,322.368C214.51,322.238 230.929,322.133 251.189,322.133C271.442,322.133 287.865,322.238 287.865,322.368Z" style="fill:rgb(215,217,217);fill-rule:nonzero;"/>
        <path d="M287.865,331.534C287.865,331.664 271.442,331.77 251.189,331.77C230.929,331.77 214.51,331.664 214.51,331.534C214.51,331.404 230.929,331.299 251.189,331.299C271.442,331.299 287.865,331.404 287.865,331.534Z" style="fill:rgb(215,217,217);fill-rule:nonzero;"/>
        <path d="M287.865,340.7C287.865,340.83 271.442,340.936 251.189,340.936C230.929,340.936 214.51,340.83 214.51,340.7C214.51,340.569 230.929,340.464 251.189,340.464C271.442,340.464 287.865,340.569 287.865,340.7Z" style="fill:rgb(215,217,217);fill-rule:nonzero;"/>
        <rect x="309.58" y="299.585" width="53.404" height="51.667" style="fill:rgb(240,240,240);fill-rule:nonzero;"/>
        <path d="M313.721,346.83L328.493,320.242L340.577,337.236L347.919,328.212L358.843,346.83L313.721,346.83Z" style="fill:rgb(229,229,228);fill-rule:nonzero;"/>
        <path d="M345.725,315.071C345.725,317.194 344.004,318.915 341.881,318.915C339.759,318.915 338.038,317.194 338.038,315.071C338.038,312.949 339.759,311.229 341.881,311.229C344.004,311.229 345.725,312.949 345.725,315.071Z" style="fill:rgb(229,229,228);fill-rule:nonzero;"/>
        <path d="M358.843,346.974C358.839,346.97 358.835,346.898 358.831,346.762C358.828,346.607 358.824,346.41 358.819,346.16C358.813,345.61 358.804,344.834 358.793,343.835C358.781,341.786 358.761,338.822 358.737,335.06C358.709,327.514 358.671,316.767 358.625,303.863L358.843,304.081C345.775,304.092 330.283,304.105 313.725,304.117C313.664,304.171 314.202,303.64 313.974,303.87L313.974,309.717C313.973,311.652 313.973,313.571 313.972,315.47C313.971,319.267 313.969,322.983 313.966,326.603C313.958,333.839 313.95,340.681 313.942,346.974L313.721,346.752C327.188,346.799 338.437,346.838 346.345,346.865C350.288,346.89 353.399,346.909 355.547,346.923C356.598,346.934 357.412,346.942 357.989,346.949C358.253,346.954 358.459,346.958 358.621,346.961C358.764,346.966 358.839,346.97 358.843,346.974C358.848,346.978 358.781,346.982 358.646,346.986C358.491,346.989 358.291,346.994 358.037,346.999C357.471,347.005 356.671,347.014 355.64,347.024C353.502,347.038 350.409,347.058 346.488,347.083C338.545,347.11 327.246,347.149 313.721,347.195L313.499,347.196L313.499,346.974C313.492,340.681 313.483,333.839 313.474,326.603C313.472,322.983 313.471,319.267 313.468,315.47C313.468,313.571 313.467,311.652 313.467,309.717C313.466,308.749 313.466,307.776 313.466,306.8L313.466,303.87C313.239,304.094 313.775,303.552 313.725,303.608C330.283,303.622 345.775,303.635 358.843,303.645L359.063,303.645L359.062,303.863C359.015,316.824 358.977,327.618 358.951,335.199C358.926,338.94 358.907,341.887 358.893,343.924C358.882,344.906 358.873,345.668 358.868,346.207C358.863,346.448 358.859,346.638 358.856,346.786C358.852,346.915 358.848,346.978 358.843,346.974Z" style="fill:rgb(229,229,228);fill-rule:nonzero;"/>
        <rect x="213.823" y="201.492" width="72.432" height="70.077" style="fill:rgb(240,240,240);fill-rule:nonzero;"/>
        <path d="M219.439,265.571L239.476,229.511L255.865,252.56L265.824,240.319L280.639,265.571L219.439,265.571Z" style="fill:rgb(215,217,217);fill-rule:nonzero;"/>
        <path d="M262.846,222.497C262.846,225.376 260.513,227.709 257.634,227.709C254.755,227.709 252.421,225.376 252.421,222.497C252.421,219.618 254.755,217.284 257.634,217.284C260.513,217.284 262.846,219.618 262.846,222.497Z" style="fill:rgb(215,217,217);fill-rule:nonzero;"/>
        <path d="M280.639,265.767C280.634,265.761 280.629,265.664 280.622,265.479C280.619,265.27 280.613,265.002 280.606,264.662C280.598,263.916 280.587,262.864 280.572,261.51C280.554,258.73 280.528,254.71 280.495,249.607C280.458,239.372 280.406,224.796 280.343,207.295L280.639,207.591C262.914,207.605 241.903,207.622 219.445,207.64C219.363,207.713 220.093,206.991 219.784,207.305L219.784,215.234C219.783,217.86 219.782,220.462 219.781,223.037C219.778,228.187 219.775,233.229 219.772,238.137C219.761,247.951 219.75,257.23 219.74,265.766L219.439,265.465C237.705,265.528 252.962,265.581 263.688,265.618C269.037,265.652 273.254,265.679 276.169,265.697C277.594,265.712 278.699,265.724 279.48,265.732C279.839,265.739 280.119,265.745 280.338,265.749C280.532,265.755 280.634,265.761 280.639,265.767C280.645,265.771 280.555,265.777 280.372,265.783C280.16,265.787 279.891,265.793 279.547,265.801C278.779,265.809 277.694,265.82 276.294,265.835C273.395,265.854 269.201,265.88 263.881,265.914C253.108,265.951 237.785,266.004 219.439,266.066L219.139,266.068L219.139,265.766C219.128,257.23 219.117,247.951 219.106,238.137C219.102,233.229 219.1,228.187 219.097,223.037C219.096,220.462 219.096,217.86 219.095,215.234L219.095,209.288L219.094,208.289L219.094,207.305C218.786,207.607 219.513,206.873 219.445,206.95C241.903,206.968 262.914,206.984 280.639,206.998L280.937,206.999L280.936,207.295C280.873,224.874 280.821,239.515 280.784,249.796C280.751,254.87 280.725,258.867 280.707,261.63C280.692,262.962 280.68,263.995 280.673,264.727C280.666,265.054 280.66,265.311 280.656,265.512C280.651,265.687 280.645,265.771 280.639,265.767Z" style="fill:rgb(215,217,217);fill-rule:nonzero;"/>
        <path d="M295.963,228.121L299.541,235.371L307.542,236.533L301.753,242.177L303.119,250.146L295.963,246.383L288.807,250.146L290.174,242.177L284.384,236.533L292.385,235.371L295.963,228.121Z" style="fill:rgb(133,215,239);fill-rule:nonzero;"/>
        <path d="M321.165,202.919L324.743,210.169L332.744,211.332L326.954,216.976L328.321,224.943L321.165,221.182L314.009,224.943L315.375,216.976L309.586,211.332L317.587,210.169L321.165,202.919Z" style="fill:rgb(133,215,239);fill-rule:nonzero;"/>
        <path d="M354.846,193.027L358.424,200.277L366.425,201.439L360.635,207.083L362.002,215.052L354.846,211.289L347.69,215.052L349.056,207.083L343.267,201.439L351.268,200.277L354.846,193.027Z" style="fill:rgb(133,215,239);fill-rule:nonzero;"/>
        <path d="M389.704,203.154L393.283,210.404L401.284,211.567L395.493,217.211L396.861,225.18L389.704,221.417L382.548,225.18L383.914,217.211L378.125,211.567L386.126,210.404L389.704,203.154Z" style="fill:rgb(133,215,239);fill-rule:nonzero;"/>
        <path d="M413.729,227.179L417.307,234.429L425.307,235.592L419.518,241.235L420.885,249.203L413.729,245.441L406.573,249.203L407.939,241.235L402.15,235.592L410.151,234.429L413.729,227.179Z" style="fill:rgb(133,215,239);fill-rule:nonzero;"/>
        <path d="M422.443,262.037L426.021,269.287L434.022,270.45L428.233,276.094L429.599,284.062L422.443,280.3L415.286,284.062L416.654,276.094L410.864,270.45L418.865,269.287L422.443,262.037Z" style="fill:rgb(133,215,239);fill-rule:nonzero;"/>
        <path d="M413.964,296.66L417.542,303.91L425.543,305.073L419.753,310.717L421.12,318.685L413.964,314.923L406.808,318.685L408.174,310.717L402.385,305.073L410.386,303.91L413.964,296.66Z" style="fill:rgb(133,215,239);fill-rule:nonzero;"/>
        <path d="M388.45,320.685L392.028,327.935L400.029,329.097L394.24,334.74L395.606,342.709L388.45,338.946L381.293,342.709L382.66,334.74L376.87,329.097L384.871,327.935L388.45,320.685Z" style="fill:rgb(133,215,239);fill-rule:nonzero;"/>
        <path d="M354.168,330.588L357.746,337.838L365.747,339.001L359.957,344.644L361.325,352.612L354.168,348.851L347.012,352.612L348.378,344.644L342.589,339.001L350.59,337.838L354.168,330.588Z" style="fill:rgb(133,215,239);fill-rule:nonzero;"/>
        <path d="M321.429,320.695L325.007,327.945L333.008,329.108L327.219,334.752L328.585,342.721L321.429,338.958L314.273,342.721L315.639,334.752L309.85,329.108L317.851,327.945L321.429,320.695Z" style="fill:rgb(133,215,239);fill-rule:nonzero;"/>
        <path d="M295.521,296.034L299.099,303.284L307.1,304.446L301.31,310.09L302.677,318.059L295.521,314.296L288.365,318.059L289.731,310.09L283.942,304.446L291.943,303.284L295.521,296.034Z" style="fill:rgb(133,215,239);fill-rule:nonzero;"/>
        <path d="M286.806,262.077L290.384,269.327L298.385,270.49L292.596,276.134L293.962,284.102L286.806,280.34L279.65,284.102L281.017,276.134L275.227,270.49L283.228,269.327L286.806,262.077Z" style="fill:rgb(133,215,239);fill-rule:nonzero;"/>
        <path d="M379.539,286.945L372.539,286.945L372.539,248.845C372.539,239.877 365.243,232.581 356.276,232.581C347.308,232.581 340.012,239.877 340.012,248.845L340.012,286.945L333.012,286.945L333.012,248.845C333.012,236.018 343.449,225.581 356.276,225.581C369.103,225.581 379.539,236.018 379.539,248.845L379.539,286.945Z" style="fill:rgb(12,43,52);fill-rule:nonzero;"/>
        <path d="M381.816,310.225L330.735,310.225C327.526,310.225 324.925,307.623 324.925,304.414L324.925,275.808C324.925,272.599 327.526,269.997 330.735,269.997L381.816,269.997C385.025,269.997 387.626,272.599 387.626,275.808L387.626,304.414C387.626,307.623 385.025,310.225 381.816,310.225Z" style="fill:rgb(253,205,51);fill-rule:nonzero;"/>
        <path d="M361.517,284.87C361.517,287.765 359.17,290.111 356.276,290.111C353.381,290.111 351.034,287.765 351.034,284.87C351.034,281.976 353.381,279.629 356.276,279.629C359.17,279.629 361.517,281.976 361.517,284.87Z" style="fill:rgb(12,43,52);fill-rule:nonzero;"/>
        <rect x="354.846" y="286.945" width="2.859" height="10.78" style="fill:rgb(12,43,52);fill-rule:nonzero;"/>
        <path d="M328.268,306.41C328.124,306.41 328.008,299.701 328.008,291.428C328.008,283.15 328.124,276.443 328.268,276.443C328.412,276.443 328.529,283.15 328.529,291.428C328.529,299.701 328.412,306.41 328.268,306.41Z" style="fill:rgb(249,249,249);fill-rule:nonzero;"/>
        <path d="M352.171,291.588C352.155,291.614 351.926,291.506 351.557,291.239C351.187,290.975 350.695,290.522 350.205,289.862C349.228,288.581 348.334,286.252 348.914,283.738C349.524,281.23 351.367,279.549 352.816,278.842C353.548,278.472 354.191,278.288 354.64,278.217C355.09,278.144 355.342,278.15 355.346,278.181C355.367,278.279 354.352,278.374 352.992,279.164C351.655,279.92 349.982,281.541 349.421,283.858C348.884,286.18 349.652,288.378 350.508,289.653C351.369,290.969 352.235,291.51 352.171,291.588Z" style="fill:rgb(249,249,249);fill-rule:nonzero;"/>
        <path d="M135.719,252.14C134.922,254.382 135.144,256.885 135.878,259.148C136.612,261.411 137.828,263.482 139.035,265.532C140.607,261.505 142.181,257.465 143.287,253.284C143.53,252.365 143.707,251.26 143.052,250.57C142.555,250.047 141.754,249.972 141.034,250.015C138.923,250.14 136.864,251.019 135.314,252.457" style="fill:rgb(12,43,52);fill-rule:nonzero;"/>
        <path d="M47.536,364.304L31.176,401.704L53.697,401.704L69.732,364.007L47.536,364.304Z" style="fill:rgb(12,43,52);fill-rule:nonzero;"/>
        <path d="M144.817,401.256C166.889,393.948 151.754,364.754 151.754,364.754L55.288,373.827C47.543,373.774 41.237,380.039 41.237,387.783C41.237,395.491 47.486,401.74 55.194,401.74L144.817,401.256Z" style="fill:rgb(51,88,99);fill-rule:nonzero;"/>
        <path d="M166.759,401.74C188.265,394.481 174.086,364.746 174.086,364.746L80.045,373.612C70.86,373.732 66.374,378.163 66.374,387.537C66.39,395.243 69.239,401.74 80.013,401.521L166.759,401.74Z" style="fill:rgb(51,88,99);fill-rule:nonzero;"/>
        <path d="M145.569,369.681C145.569,369.672 145.478,369.669 145.301,369.67C145.097,369.675 144.84,369.682 144.518,369.689C143.795,369.719 142.787,369.761 141.508,369.813C138.859,369.944 135.088,370.131 130.442,370.361C121.073,370.875 108.186,371.581 93.95,372.361C92.169,372.446 90.406,372.602 88.675,372.626C86.932,372.653 85.218,372.726 83.536,372.827C81.853,372.93 80.201,373.055 78.586,373.229C76.985,373.415 75.358,373.588 73.883,374.193C72.408,374.768 71.059,375.609 69.971,376.699C68.88,377.789 68.101,379.133 67.599,380.506C67.091,381.881 66.813,383.277 66.634,384.62C66.459,385.963 66.366,387.264 66.375,388.509C66.385,390.996 66.819,393.258 67.616,395.059C68.406,396.865 69.506,398.184 70.541,399.042C71.581,399.908 72.542,400.34 73.204,400.546C73.869,400.756 73.881,400.688 73.234,400.448C72.591,400.214 71.66,399.761 70.659,398.889C69.662,398.024 68.608,396.715 67.862,394.941C67.107,393.172 66.704,390.955 66.716,388.508C66.718,387.284 66.819,386 67.001,384.676C67.188,383.355 67.47,381.989 67.971,380.661C68.466,379.333 69.216,378.06 70.262,377.024C71.307,375.988 72.608,375.183 74.036,374.634C75.459,374.055 77.024,373.896 78.632,373.712C80.238,373.544 81.885,373.424 83.562,373.324C85.239,373.227 86.948,373.157 88.681,373.132C90.425,373.108 92.18,372.955 93.964,372.87C108.201,372.031 121.088,371.272 130.459,370.721C135.101,370.422 138.87,370.181 141.517,370.011C142.795,369.918 143.801,369.845 144.523,369.792C144.844,369.763 145.101,369.74 145.304,369.723C145.48,369.703 145.57,369.689 145.569,369.681Z" style="fill:rgb(12,43,52);fill-rule:nonzero;"/>
        <path d="M166.806,378.889C166.818,378.916 166.556,379.072 166.041,379.269C165.528,379.468 164.746,379.668 163.757,379.734C161.815,379.888 158.869,379.281 156.686,377.067C154.527,374.829 153.995,371.868 154.198,369.932C154.289,368.944 154.509,368.167 154.721,367.659C154.93,367.149 155.093,366.892 155.119,366.904C155.221,366.938 154.645,368.039 154.563,369.954C154.459,371.825 155.031,374.61 157.056,376.707C159.1,378.783 161.87,379.425 163.743,379.369C165.659,379.335 166.774,378.787 166.806,378.889Z" style="fill:rgb(12,43,52);fill-rule:nonzero;"/>
        <path d="M118.962,319.763L110.039,350.295L77.009,353.837L77.009,359.7L125.541,360.37L132.149,320.611L118.962,319.763Z" style="fill:rgb(249,178,153);fill-rule:nonzero;"/>
        <path d="M162.031,287.862C167.892,287.874 183.761,290.866 185.155,301.562C186.414,311.221 188.3,322.182 188.3,322.182L167.41,322.743L174.527,324.627L177.575,369.715L123.517,367.842L126.385,344.661L128.739,321.49L116.926,320.525C116.926,320.525 120.968,300.355 128.017,294.131C128.017,294.131 134.468,288.463 143.575,287.862C152.683,287.262 162.031,287.862 162.031,287.862Z" style="fill:rgb(133,215,239);fill-rule:nonzero;"/>
        <path d="M130.677,306.51C130.802,306.524 129.977,314.674 128.834,324.71C127.691,334.749 126.663,342.874 126.538,342.859C126.412,342.846 127.238,334.698 128.381,324.658C129.524,314.622 130.552,306.495 130.677,306.51Z" style="fill:rgb(12,43,52);fill-rule:nonzero;"/>
        <path d="M163.648,287.931C163.663,287.93 163.682,288.061 163.706,288.31C163.729,288.559 163.753,288.927 163.762,289.403C163.78,290.35 163.706,291.757 163.177,293.396C162.68,295.015 161.825,296.982 160.112,298.595C159.269,299.4 158.212,300.102 156.986,300.536C155.76,300.969 154.412,301.137 153.053,301.16C151.692,301.173 150.365,301.119 149.09,300.892C147.82,300.665 146.612,300.209 145.659,299.499C143.739,298.073 142.826,296.07 142.403,294.43C141.954,292.77 141.914,291.367 141.954,290.42C141.972,289.944 142.009,289.577 142.036,289.328C142.067,289.08 142.091,288.95 142.106,288.951C142.14,288.953 142.113,289.478 142.123,290.422C142.136,291.364 142.222,292.734 142.7,294.354C143.149,295.95 144.07,297.861 145.9,299.192C146.805,299.853 147.941,300.276 149.168,300.49C150.394,300.705 151.712,300.756 153.044,300.744C154.374,300.721 155.673,300.56 156.839,300.152C158.004,299.746 159.015,299.087 159.831,298.32C161.495,296.782 162.353,294.903 162.884,293.308C163.44,291.711 163.558,290.343 163.593,289.401C163.626,288.457 163.613,287.932 163.648,287.931Z" style="fill:rgb(12,43,52);fill-rule:nonzero;"/>
        <path d="M142.22,351.325C146.853,349.636 151.012,346.865 154.956,343.904C155.994,343.126 157.035,342.318 157.811,341.278C159.053,339.613 159.51,337.509 159.935,335.476C161.936,325.909 164.545,316.077 166.546,306.511C166.94,318.855 167.356,331.228 165.916,343.494C165.799,344.493 165.653,345.548 165.026,346.334C164.316,347.224 163.147,347.581 162.048,347.874C155.556,349.603 148.913,350.76 142.22,351.325Z" style="fill:rgb(133,215,239);fill-rule:nonzero;"/>
        <path d="M188.634,322.343C188.635,322.374 188.076,322.415 187.064,322.463C185.978,322.503 184.532,322.557 182.78,322.621C179.161,322.734 174.162,322.859 168.64,322.969C168.032,322.98 167.43,322.992 166.865,323.003L166.642,323.008L166.634,322.788C166.434,317.661 166.526,313.103 166.622,309.823C166.673,308.184 166.735,306.865 166.791,305.957C166.846,305.049 166.891,304.55 166.921,304.551C166.951,304.552 166.963,305.053 166.96,305.962C166.952,306.945 166.943,308.246 166.931,309.829C166.915,313.104 166.879,317.665 167.088,322.765L166.856,322.549C167.421,322.537 168.023,322.525 168.631,322.513C174.153,322.402 179.153,322.329 182.773,322.298C184.527,322.293 185.974,322.288 187.06,322.285C188.073,322.292 188.634,322.312 188.634,322.343Z" style="fill:rgb(12,43,52);fill-rule:nonzero;"/>
        <path d="M35.636,324.538L54.088,360.813L112.26,360.813L109.906,356.074L93.053,355.573L79.317,324.988C78.463,323.087 76.572,321.863 74.488,321.863L37.276,321.863C35.903,321.863 35.014,323.313 35.636,324.538Z" style="fill:rgb(215,217,217);fill-rule:nonzero;"/>
        <path d="M64.768,340.781C64.768,342.011 63.772,343.008 62.542,343.008C61.313,343.008 60.317,342.011 60.317,340.781C60.317,339.553 61.313,338.556 62.542,338.556C63.772,338.556 64.768,339.553 64.768,340.781Z" style="fill:rgb(12,43,52);fill-rule:nonzero;"/>
        <path d="M163.933,260.527L161.85,290.044C161.51,294.862 157.501,298.599 152.67,298.599C147.351,298.599 143.138,294.101 143.487,288.794C143.672,285.984 143.839,283.684 143.839,283.684C143.839,283.684 136.705,282.572 136.605,275.428C136.558,272.063 137.006,265.4 137.509,259.139C138.095,251.828 144.191,246.191 151.525,246.191L151.531,246.191C158.965,246.625 164.574,253.108 163.933,260.527Z" style="fill:rgb(249,178,153);fill-rule:nonzero;"/>
        <path d="M143.796,284.027C143.796,284.027 148.311,284.395 153.11,281.38C153.11,281.38 150.909,286.521 143.78,285.878L143.796,284.027Z" style="fill:rgb(247,149,112);fill-rule:nonzero;"/>
        <path d="M139.741,263.78C139.722,264.318 140.162,264.779 140.725,264.81C141.286,264.84 141.758,264.429 141.777,263.89C141.796,263.351 141.355,262.89 140.794,262.859C140.232,262.829 139.76,263.241 139.741,263.78Z" style="fill:rgb(12,43,52);fill-rule:nonzero;"/>
        <path d="M139.107,262.376C139.234,262.508 140.007,261.937 141.105,261.939C142.201,261.926 143.007,262.492 143.126,262.356C143.185,262.298 143.056,262.057 142.705,261.803C142.36,261.548 141.771,261.3 141.087,261.303C140.403,261.307 139.827,261.558 139.497,261.816C139.159,262.075 139.045,262.316 139.107,262.376Z" style="fill:rgb(12,43,52);fill-rule:nonzero;"/>
        <path d="M150.082,264.076C150.063,264.614 150.504,265.075 151.066,265.105C151.627,265.136 152.098,264.725 152.118,264.186C152.137,263.646 151.696,263.186 151.135,263.155C150.573,263.125 150.101,263.537 150.082,264.076Z" style="fill:rgb(12,43,52);fill-rule:nonzero;"/>
        <path d="M149.899,262.58C150.026,262.713 150.8,262.141 151.897,262.145C152.993,262.131 153.8,262.696 153.919,262.562C153.977,262.502 153.849,262.262 153.497,262.007C153.152,261.752 152.563,261.505 151.879,261.508C151.195,261.512 150.62,261.764 150.289,262.021C149.952,262.279 149.838,262.521 149.899,262.58Z" style="fill:rgb(12,43,52);fill-rule:nonzero;"/>
        <path d="M145.915,270.723C145.92,270.66 145.238,270.542 144.132,270.4C143.851,270.371 143.586,270.315 143.539,270.124C143.472,269.922 143.59,269.62 143.726,269.294C143.99,268.615 144.265,267.904 144.555,267.158C145.706,264.119 146.54,261.62 146.417,261.574C146.294,261.529 145.261,263.956 144.11,266.996C143.833,267.745 143.568,268.46 143.316,269.144C143.21,269.462 143.027,269.823 143.17,270.243C143.246,270.453 143.451,270.605 143.631,270.653C143.811,270.708 143.969,270.711 144.107,270.72C145.221,270.779 145.91,270.784 145.915,270.723Z" style="fill:rgb(12,43,52);fill-rule:nonzero;"/>
        <path d="M149.146,271.481C148.968,271.471 148.965,272.663 147.945,273.509C146.927,274.357 145.657,274.224 145.647,274.391C145.631,274.465 145.93,274.622 146.466,274.637C146.992,274.654 147.761,274.485 148.385,273.968C149.007,273.449 149.274,272.757 149.315,272.269C149.361,271.77 149.227,271.475 149.146,271.481Z" style="fill:rgb(12,43,52);fill-rule:nonzero;"/>
        <path d="M149.616,258.277C149.724,258.576 150.821,258.436 152.108,258.59C153.4,258.719 154.439,259.096 154.609,258.829C154.685,258.7 154.505,258.419 154.084,258.131C153.668,257.842 153.004,257.567 152.231,257.481C151.458,257.398 150.749,257.52 150.281,257.712C149.807,257.902 149.569,258.136 149.616,258.277Z" style="fill:rgb(12,43,52);fill-rule:nonzero;"/>
        <path d="M139.511,259.197C139.704,259.447 140.46,259.188 141.37,259.176C142.279,259.132 143.05,259.344 143.227,259.083C143.305,258.956 143.183,258.706 142.847,258.471C142.515,258.235 141.961,258.044 141.336,258.062C140.711,258.081 140.169,258.308 139.853,258.563C139.532,258.82 139.426,259.076 139.511,259.197Z" style="fill:rgb(12,43,52);fill-rule:nonzero;"/>
        <path d="M161.525,266.336C161.647,266.283 166.434,264.884 166.278,269.769C166.122,274.653 161.25,273.489 161.246,273.349C161.242,273.208 161.525,266.336 161.525,266.336Z" style="fill:rgb(249,178,153);fill-rule:nonzero;"/>
        <path d="M162.797,271.546C162.819,271.53 162.881,271.608 163.022,271.679C163.16,271.747 163.4,271.799 163.658,271.712C164.18,271.539 164.641,270.733 164.693,269.855C164.719,269.41 164.639,268.983 164.493,268.628C164.356,268.266 164.133,268.009 163.874,267.954C163.617,267.887 163.429,268.036 163.365,268.172C163.295,268.307 163.323,268.404 163.297,268.412C163.283,268.424 163.194,268.327 163.24,268.127C163.263,268.03 163.324,267.917 163.442,267.827C163.562,267.735 163.736,267.692 163.916,267.718C164.292,267.756 164.62,268.112 164.781,268.503C164.963,268.896 165.062,269.375 165.033,269.874C164.97,270.857 164.437,271.762 163.724,271.943C163.378,272.022 163.094,271.909 162.95,271.789C162.803,271.664 162.78,271.554 162.797,271.546Z" style="fill:rgb(247,149,112);fill-rule:nonzero;"/>
        <rect x="47.346" y="360.87" width="71.113" height="3.47" style="fill:rgb(12,43,52);fill-rule:nonzero;"/>
        <path d="M96.557,362.605L118.186,401.74L137.551,401.74L118.459,364.34L96.557,362.605Z" style="fill:rgb(12,43,52);fill-rule:nonzero;"/>
        <path d="M118.461,364.34C118.461,364.483 102.523,364.68 82.866,364.778C63.202,364.877 47.266,364.84 47.266,364.696C47.265,364.553 63.2,364.356 82.864,364.258C102.521,364.159 118.46,364.195 118.461,364.34Z" style="fill:rgb(51,88,99);fill-rule:nonzero;"/>
        <path d="M135.537,255.937C136.833,256.43 138.345,256.321 139.557,255.648C139.049,256.065 139.23,256.952 139.751,257.355C140.272,257.755 140.981,257.794 141.638,257.771C145.153,257.646 148.603,256.171 151.121,253.716C151.149,254.951 152.141,256.016 153.303,256.436C154.465,256.856 155.756,256.739 156.957,256.45C156.638,258.275 156.318,260.158 156.732,261.964C157.146,263.77 158.486,265.496 160.318,265.771C160.686,266.669 160.479,267.688 160.546,268.656C160.612,269.625 161.18,270.739 162.151,270.767C163.007,270.79 163.647,269.912 163.76,269.063C163.873,268.213 163.375,266.483 163.983,265.106C164.644,263.613 164.381,263.89 165.038,262.396C165.695,260.9 166.065,258.846 166.577,257.294C167.089,255.743 167.287,254.018 166.702,252.493C166.118,250.968 164.604,249.73 162.975,249.844C163.569,248.312 163.073,246.425 161.803,245.384C160.533,244.342 158.585,244.226 157.2,245.108C157.2,245.108 151.633,241.328 145.484,243.415C139.37,245.491 138.415,251.087 137.079,251.262C135.743,251.436 131.678,249.229 132.375,250.623C133.072,252.017 134.233,253.353 134.814,253.411C135.395,253.469 130.167,251.262 131.968,253.236C133.768,255.211 135.537,255.937 135.537,255.937Z" style="fill:rgb(12,43,52);fill-rule:nonzero;"/>
        <path d="M184.556,303.542C184.496,303.597 184.029,302.703 182.627,301.688C181.261,300.671 178.858,299.624 175.767,299.665C172.679,299.654 169.132,300.996 165.657,303.129C162.141,305.21 158.608,308.139 154.189,310.063C151.991,311.023 149.651,311.569 147.377,311.605C145.105,311.654 142.913,311.258 140.954,310.546C138.99,309.835 137.284,308.766 135.84,307.633C134.384,306.507 133.108,305.381 131.859,304.47C129.395,302.594 126.929,301.812 125.213,301.757C123.483,301.703 122.585,302.183 122.57,302.109C122.566,302.101 122.62,302.072 122.728,302.025C122.838,301.984 122.996,301.9 123.219,301.841C123.657,301.694 124.335,301.557 125.218,301.554C126.979,301.544 129.542,302.301 132.075,304.171C134.637,305.943 137.241,308.747 141.117,310.095C144.925,311.481 149.684,311.533 153.984,309.584C158.309,307.706 161.846,304.802 165.411,302.717C168.935,300.584 172.581,299.237 175.766,299.297C178.94,299.303 181.389,300.436 182.749,301.525C183.449,302.063 183.892,302.59 184.175,302.952C184.44,303.33 184.571,303.532 184.556,303.542Z" style="fill:rgb(249,249,249);fill-rule:nonzero;"/>
        <path d="M166.763,329.828C166.735,329.865 166.279,329.512 165.385,328.996C164.492,328.488 163.134,327.829 161.338,327.438C159.553,327.045 157.319,326.929 154.974,327.552C152.616,328.137 150.208,329.374 147.527,330.364C146.186,330.855 144.816,331.222 143.469,331.391C142.122,331.56 140.809,331.567 139.569,331.462C137.084,331.245 134.926,330.532 133.235,329.729C131.536,328.925 130.309,328.005 129.524,327.318C129.117,326.99 128.845,326.685 128.651,326.492C128.461,326.294 128.368,326.184 128.38,326.171C128.414,326.136 128.832,326.533 129.653,327.161C130.466,327.792 131.705,328.649 133.389,329.395C135.067,330.14 137.186,330.799 139.609,330.984C142.028,331.183 144.721,330.878 147.349,329.875C149.983,328.903 152.424,327.665 154.858,327.086C157.288,326.469 159.603,326.629 161.421,327.079C163.254,327.527 164.616,328.254 165.491,328.823C165.928,329.111 166.254,329.355 166.46,329.536C166.67,329.715 166.774,329.814 166.763,329.828Z" style="fill:rgb(249,249,249);fill-rule:nonzero;"/>
        <path d="M174.637,346.636C174.612,346.691 173.979,346.295 172.704,346.023C171.435,345.756 169.5,345.776 167.28,346.51C166.171,346.865 164.989,347.362 163.774,348.007C162.557,348.646 161.287,349.409 159.911,350.151C158.535,350.891 157.044,351.626 155.381,352.098C153.725,352.571 151.871,352.704 150.071,352.315C146.447,351.528 143.58,349.434 140.937,347.855C138.306,346.234 135.719,345.057 133.395,344.893C131.073,344.7 129.205,345.331 128.121,346.024C127.012,346.711 126.615,347.363 126.565,347.313C126.551,347.303 126.655,347.153 126.869,346.876C127.098,346.612 127.454,346.229 128.011,345.855C129.095,345.087 131.015,344.373 133.421,344.524C135.844,344.648 138.519,345.833 141.183,347.444C143.858,349.016 146.701,351.057 150.177,351.805C151.9,352.176 153.643,352.054 155.244,351.606C156.848,351.158 158.316,350.449 159.685,349.728C161.056,349.004 162.333,348.255 163.576,347.623C164.818,346.985 166.031,346.498 167.172,346.157C169.454,345.452 171.459,345.488 172.748,345.825C173.395,345.99 173.875,346.193 174.182,346.358C174.49,346.525 174.645,346.62 174.637,346.636Z" style="fill:rgb(249,249,249);fill-rule:nonzero;"/>
        <path d="M177.189,365.746C177.194,365.758 177.025,365.847 176.682,365.954C176.34,366.063 175.816,366.183 175.13,366.218C173.756,366.318 171.765,365.917 169.504,365.042C168.364,364.631 167.132,364.144 165.765,363.825C164.396,363.536 162.892,363.425 161.318,363.573C158.156,363.84 154.828,365.033 151.271,366.056C149.489,366.562 147.707,366.976 145.951,367.145C144.195,367.32 142.487,367.267 140.884,367.074C137.674,366.661 134.892,365.759 132.634,364.873C130.373,363.981 128.608,363.114 127.401,362.5C126.796,362.193 126.334,361.942 126.022,361.769C125.711,361.594 125.551,361.494 125.559,361.479C125.568,361.462 125.743,361.53 126.069,361.674C126.447,361.846 126.917,362.058 127.489,362.317C128.72,362.875 130.504,363.688 132.765,364.529C135.023,365.365 137.785,366.219 140.94,366.598C142.515,366.773 144.187,366.815 145.899,366.637C147.612,366.465 149.36,366.058 151.13,365.555C154.659,364.542 158.027,363.345 161.278,363.095C162.895,362.955 164.453,363.086 165.865,363.405C167.27,363.753 168.505,364.266 169.633,364.697C171.869,365.611 173.78,366.049 175.125,366.015C176.468,366.003 177.175,365.688 177.189,365.746Z" style="fill:rgb(249,249,249);fill-rule:nonzero;"/>
        <path d="M187.44,317.284C187.459,317.302 187.27,317.56 186.835,317.929C186.403,318.299 185.719,318.784 184.772,319.189C183.826,319.582 182.613,319.9 181.24,319.874C179.866,319.878 178.376,319.434 176.988,318.75C175.59,318.077 174.328,317.35 173.097,316.913C171.881,316.483 170.684,316.398 169.722,316.537C168.753,316.675 168.043,317.068 167.621,317.411C167.201,317.764 167.028,318.028 166.987,318C166.968,317.99 167.083,317.684 167.485,317.262C167.888,316.85 168.632,316.369 169.66,316.174C170.68,315.978 171.949,316.027 173.255,316.46C174.549,316.892 175.842,317.622 177.212,318.279C178.577,318.949 179.952,319.37 181.252,319.395C182.549,319.445 183.712,319.181 184.637,318.848C186.493,318.143 187.377,317.2 187.44,317.284Z" style="fill:rgb(249,249,249);fill-rule:nonzero;"/>
        <path d="M129.369,316.788C129.39,316.809 129.302,316.96 129.045,317.138C128.789,317.313 128.343,317.48 127.784,317.468C127.23,317.463 126.568,317.295 125.937,316.936C125.306,316.589 124.705,316.103 124.052,315.683C122.768,314.808 121.299,314.734 120.315,314.928C119.315,315.112 118.763,315.48 118.718,315.401C118.681,315.364 119.176,314.867 120.233,314.569C121.254,314.26 122.928,314.284 124.332,315.244C125.024,315.69 125.604,316.177 126.178,316.521C126.741,316.87 127.313,317.05 127.805,317.1C128.812,317.216 129.324,316.712 129.369,316.788Z" style="fill:rgb(249,249,249);fill-rule:nonzero;"/>
        <path d="M102.201,349.078L116.751,347.329L127.004,354.052L166.209,344.655L167.357,322.776L184.954,322.343L184.544,348.018C184.37,356.284 177.499,362.828 169.234,362.599L111.812,361.009L109.375,356.122L97.054,355.756L102.201,349.078Z" style="fill:rgb(249,178,153);fill-rule:nonzero;"/>
        <path d="M165.713,344.655C165.716,344.671 165.463,344.747 164.976,344.879C164.45,345.017 163.738,345.201 162.842,345.435C160.942,345.908 158.265,346.575 154.975,347.395C148.285,349.016 139.112,351.239 128.979,353.694C128.164,353.889 127.358,354.082 126.56,354.273L126.464,354.297L126.382,354.242C122.757,351.857 119.305,349.587 116.139,347.505L116.28,347.538C110.523,348.203 105.538,348.779 101.722,349.22L101.818,349.166C100.191,351.231 98.892,352.879 97.973,354.046C97.539,354.583 97.195,355.009 96.936,355.33C96.697,355.619 96.568,355.765 96.557,355.756C96.547,355.748 96.655,355.586 96.873,355.281C97.118,354.949 97.442,354.508 97.851,353.952C98.745,352.766 100.009,351.091 101.592,348.991L101.627,348.944L101.688,348.937C105.5,348.461 110.48,347.839 116.23,347.121L116.305,347.111L116.37,347.153C119.541,349.227 123,351.487 126.632,353.861L126.454,353.83C127.251,353.64 128.059,353.445 128.871,353.25C139.018,350.846 148.202,348.669 154.9,347.081C158.204,346.32 160.893,345.701 162.801,345.262C163.705,345.063 164.423,344.906 164.954,344.79C165.448,344.687 165.709,344.64 165.713,344.655Z" style="fill:rgb(247,149,112);fill-rule:nonzero;"/>
        <path d="M110.151,353.247C110.151,353.373 107.62,353.476 104.499,353.476C104.146,353.474 103.801,353.473 103.465,353.472L103.61,353.418C101.594,355.105 100.018,356.323 99.946,356.237C99.873,356.152 101.329,354.794 103.32,353.076L103.381,353.022L103.465,353.022C103.801,353.021 104.146,353.02 104.499,353.019C107.62,353.019 110.151,353.121 110.151,353.247Z" style="fill:rgb(247,149,112);fill-rule:nonzero;"/>
        <path d="M172.933,349.038C172.812,349.112 172.058,347.274 170.077,346.057C168.122,344.797 166.138,344.912 166.153,344.771C166.147,344.72 166.629,344.607 167.418,344.672C168.203,344.732 169.289,345.024 170.32,345.671C171.348,346.32 172.081,347.173 172.475,347.855C172.875,348.538 172.982,349.021 172.933,349.038Z" style="fill:rgb(247,149,112);fill-rule:nonzero;"/>
    </g>
</svg>
