<?xml version="1.0" encoding="UTF-8" standalone="no"?>
<!DOCTYPE svg PUBLIC "-//W3C//DTD SVG 1.1//EN" "http://www.w3.org/Graphics/SVG/1.1/DTD/svg11.dtd">
<svg width="100%" height="100%" viewBox="0 0 2375 1609" version="1.1" xmlns="http://www.w3.org/2000/svg" xmlns:xlink="http://www.w3.org/1999/xlink" xml:space="preserve" xmlns:serif="http://www.serif.com/" style="fill-rule:evenodd;clip-rule:evenodd;stroke-linejoin:round;stroke-miterlimit:2;">
    <g transform="matrix(4.16667,0,0,4.16667,0,0)">
        <path d="M480.996,130.681C476.824,129.004 472.08,131.028 470.404,135.201C468.727,139.375 470.751,144.117 474.924,145.794C479.098,147.471 483.84,145.447 485.517,141.274C487.194,137.1 485.17,132.358 480.996,130.681ZM488.843,123.127C490.186,124.131 491.37,125.298 492.378,126.59L496.892,125.766L499.871,132.748L496.154,135.437C496.389,137.058 496.413,138.722 496.208,140.386L499.982,142.994L497.151,150.038L492.622,149.311C491.619,150.655 490.451,151.839 489.159,152.846L489.983,157.361L483.001,160.34L480.312,156.622C478.691,156.858 477.028,156.881 475.363,156.676L472.755,160.449L465.71,157.619L466.438,153.09C465.094,152.088 463.91,150.919 462.903,149.627L458.388,150.451L455.409,143.469L459.127,140.78C458.892,139.159 458.868,137.496 459.073,135.831L455.3,133.223L458.13,126.179L462.659,126.906C463.661,125.563 464.83,124.378 466.122,123.371L465.298,118.857L472.28,115.877L474.969,119.595C476.59,119.36 478.253,119.336 479.918,119.541L482.526,115.768L489.57,118.598L488.843,123.127Z" style="fill:rgb(229,229,228);"/>
        <path d="M55.992,167.22C48.448,164.189 39.876,167.847 36.845,175.39C33.814,182.934 37.473,191.506 45.016,194.537C52.559,197.567 61.132,193.91 64.163,186.366C67.193,178.822 63.536,170.25 55.992,167.22ZM70.173,153.567C72.602,155.38 74.742,157.491 76.564,159.826L84.723,158.336L90.108,170.957L83.389,175.817C83.814,178.747 83.857,181.754 83.487,184.762L90.307,189.476L85.19,202.209L77.006,200.894C75.192,203.323 73.079,205.464 70.745,207.285L72.234,215.443L59.614,220.829L54.753,214.109C51.823,214.534 48.817,214.577 45.809,214.207L41.095,221.026L28.362,215.911L29.677,207.726C27.248,205.912 25.107,203.8 23.286,201.465L15.127,202.955L9.742,190.334L16.462,185.474C16.037,182.544 15.994,179.538 16.365,176.529L9.544,171.815L14.661,159.083L22.845,160.398C24.659,157.968 26.77,155.828 29.105,154.007L27.616,145.848L40.236,140.462L45.098,147.183C48.027,146.757 51.034,146.715 54.041,147.085L58.756,140.265L71.488,145.38L70.173,153.567Z" style="fill:rgb(229,229,228);"/>
        <path d="M28.841,97.236C24.667,95.559 19.925,97.583 18.248,101.756C16.572,105.929 18.596,110.672 22.769,112.349C26.942,114.025 31.685,112.002 33.362,107.828C35.038,103.655 33.015,98.913 28.841,97.236ZM36.687,89.682C38.031,90.686 39.215,91.854 40.223,93.145L44.737,92.321L47.716,99.303L43.998,101.992C44.234,103.613 44.258,105.277 44.053,106.941L47.826,109.549L44.995,116.593L40.467,115.865C39.463,117.21 38.295,118.394 37.003,119.401L37.828,123.915L30.845,126.895L28.156,123.177C26.535,123.412 24.872,123.436 23.207,123.231L20.599,127.004L13.555,124.174L14.283,119.645C12.939,118.642 11.754,117.473 10.747,116.182L6.233,117.006L3.253,110.024L6.972,107.335C6.736,105.714 6.712,104.05 6.917,102.386L3.144,99.778L5.974,92.734L10.503,93.462C11.506,92.118 12.674,90.933 13.966,89.926L13.142,85.412L20.124,82.432L22.814,86.151C24.435,85.915 26.098,85.891 27.762,86.096L30.37,82.323L37.414,85.153L36.687,89.682Z" style="fill:rgb(234,235,234);"/>
        <path d="M115.162,57.758C104,56.718 94.108,64.923 93.068,76.085C92.028,87.247 100.234,97.138 111.395,98.178C122.557,99.219 132.449,91.014 133.489,79.852C134.529,68.69 126.324,58.798 115.162,57.758ZM128.537,34.138C132.461,35.58 136.12,37.529 139.445,39.899L149.643,34.722L161.723,49.285L154.752,58.351C156.466,62.056 157.706,66.013 158.399,70.135L169.265,73.684L167.509,92.524L156.175,94.004C154.732,97.927 152.783,101.587 150.412,104.911L155.589,115.11L141.026,127.189L131.959,120.217C128.254,121.932 124.298,123.171 120.176,123.863L116.626,134.731L97.786,132.975L96.307,121.641C92.383,120.198 88.724,118.249 85.399,115.878L75.201,121.055L63.12,106.492L70.092,97.426C68.378,93.72 67.14,89.764 66.447,85.643L55.578,82.093L57.334,63.253L68.669,61.773C70.112,57.85 72.061,54.191 74.432,50.865L69.255,40.668L83.818,28.588L92.885,35.559C96.59,33.845 100.547,32.606 104.668,31.914L108.218,21.046L127.057,22.801L128.537,34.138Z" style="fill:rgb(215,217,217);"/>
        <path d="M49.461,345.891C61.946,337.719 65.116,322.073 64.977,307.938C64.954,305.578 65.277,303.098 64.191,301.003C63.105,298.907 60.489,297.43 58.326,298.373C56.532,299.155 55.708,301.173 54.674,302.834C53.299,305.043 51.286,306.85 48.942,307.98C47.402,308.723 45.509,309.155 44.027,308.301C41.994,307.131 41.82,304.315 41.892,301.97C42.027,297.6 42.162,293.231 42.297,288.862C42.369,286.517 42.435,284.123 41.75,281.881C41.066,279.637 39.484,277.53 37.239,276.852C34.994,276.173 32.167,277.392 31.634,279.676C31.412,280.627 31.585,281.623 31.495,282.594C31.405,283.566 30.919,284.632 29.976,284.881C29.021,285.132 28.087,284.446 27.393,283.743C24.999,281.316 23.41,278.226 21.929,275.156C20.448,272.087 19.015,268.945 16.853,266.309C14.691,263.674 11.663,261.555 8.265,261.284C4.868,261.012 1.191,262.998 0.251,266.274C-0.692,269.558 1.18,272.96 3.241,275.686C6.298,279.731 9.944,283.332 14.027,286.338C14.764,286.881 15.562,287.466 15.827,288.342C16.305,289.918 14.765,291.435 13.189,291.911C11.403,292.451 9.487,292.223 7.629,292.394C5.771,292.565 3.744,293.324 3,295.035C1.969,297.409 3.938,299.969 5.896,301.662C9.817,305.052 14.323,307.764 19.155,309.643C20.887,310.317 22.713,310.915 24.092,312.16C25.472,313.405 26.27,315.533 25.379,317.164C24.486,318.798 22.288,319.273 20.465,318.894C18.643,318.516 17.028,317.496 15.3,316.804C12.064,315.509 7.842,315.631 5.683,318.367C4.264,320.164 4.08,322.712 4.722,324.91C5.363,327.108 6.727,329.021 8.181,330.791C13.266,336.975 19.846,342.012 27.356,344.786C34.867,347.559 41.867,348.427 49.461,345.891Z" style="fill:rgb(182,213,208);fill-rule:nonzero;"/>
        <path d="M3.762,263.139C3.757,263.145 3.833,263.222 3.987,263.368C4.159,263.526 4.387,263.737 4.678,264.006C5.287,264.563 6.184,265.386 7.311,266.476C9.568,268.65 12.734,271.915 16.149,276.36C17.864,278.575 19.64,281.08 21.499,283.802C23.352,286.53 25.314,289.457 27.26,292.609C29.205,295.759 31.148,299.133 32.876,302.77C33.748,304.584 34.518,306.48 35.305,308.413C36.086,310.343 36.88,312.304 37.682,314.287C40.866,322.231 43.649,329.904 45.596,337.054C47.557,344.199 48.665,350.805 49.084,356.389C49.517,361.976 49.289,366.523 48.983,369.638C48.82,371.196 48.669,372.405 48.537,373.219C48.482,373.611 48.438,373.919 48.405,374.15C48.377,374.359 48.367,374.467 48.374,374.469C48.381,374.47 48.407,374.365 48.449,374.157C48.492,373.928 48.55,373.623 48.624,373.234C48.785,372.423 48.963,371.215 49.152,369.657C49.511,366.539 49.787,361.978 49.392,356.367C49.011,350.758 47.93,344.122 45.985,336.949C44.053,329.77 41.274,322.076 38.088,314.126C37.284,312.141 36.49,310.18 35.707,308.248C34.921,306.321 34.141,304.41 33.262,302.587C31.519,298.931 29.562,295.55 27.601,292.396C25.641,289.242 23.665,286.318 21.798,283.597C19.923,280.881 18.128,278.381 16.393,276.171C12.935,271.736 9.724,268.492 7.428,266.353C6.282,265.28 5.365,264.476 4.736,263.94C4.433,263.685 4.195,263.485 4.017,263.334C3.853,263.2 3.767,263.133 3.762,263.139Z" style="fill:rgb(12,43,52);fill-rule:nonzero;"/>
        <path d="M33.137,302.566C33.167,302.572 33.257,302.217 33.394,301.572C33.535,300.926 33.707,299.987 33.903,298.824C34.296,296.497 34.728,293.265 35.19,289.701C35.653,286.134 36.13,282.919 36.558,280.604C36.769,279.447 36.949,278.511 37.082,277.866C37.211,277.221 37.268,276.859 37.239,276.852C37.21,276.844 37.097,277.192 36.916,277.828C36.732,278.462 36.505,279.39 36.255,280.545C35.748,282.852 35.22,286.075 34.757,289.644C34.31,293.163 33.906,296.345 33.598,298.778C33.451,299.876 33.327,300.801 33.227,301.543C33.141,302.197 33.108,302.561 33.137,302.566Z" style="fill:rgb(12,43,52);fill-rule:nonzero;"/>
        <path d="M2.73,296.203C2.728,296.233 3.161,296.293 3.944,296.377C4.726,296.464 5.859,296.584 7.253,296.778C10.043,297.142 13.88,297.78 18.081,298.665C22.283,299.559 26.051,300.527 28.755,301.305C30.111,301.685 31.199,302.021 31.953,302.249C32.705,302.48 33.127,302.595 33.137,302.566C33.147,302.538 32.745,302.37 32.007,302.088C31.268,301.81 30.191,301.428 28.844,301.009C26.154,300.153 22.386,299.134 18.172,298.238C13.957,297.349 10.099,296.758 7.289,296.47C5.887,296.316 4.745,296.242 3.957,296.207C3.168,296.175 2.732,296.173 2.73,296.203Z" style="fill:rgb(12,43,52);fill-rule:nonzero;"/>
        <path d="M45.622,336.385C45.636,336.391 45.711,336.266 45.841,336.022C45.989,335.731 46.17,335.375 46.39,334.944C46.863,334.006 47.511,332.631 48.288,330.921C49.847,327.503 51.849,322.714 53.986,317.399C56.124,312.084 58.078,307.283 59.562,303.838C60.289,302.163 60.888,300.785 61.332,299.761C61.522,299.317 61.679,298.95 61.807,298.65C61.911,298.393 61.959,298.256 61.946,298.249C61.932,298.242 61.857,298.367 61.727,298.612C61.579,298.903 61.398,299.258 61.178,299.689C60.705,300.629 60.057,302.003 59.28,303.714C57.722,307.131 55.719,311.921 53.581,317.236C51.444,322.55 49.49,327.35 48.006,330.797C47.279,332.471 46.681,333.848 46.236,334.873C46.046,335.317 45.89,335.684 45.761,335.984C45.657,336.241 45.608,336.379 45.622,336.385Z" style="fill:rgb(12,43,52);fill-rule:nonzero;"/>
        <path d="M5.348,322.504C5.344,322.518 5.48,322.578 5.746,322.678C6.061,322.79 6.447,322.928 6.916,323.096C7.996,323.47 9.454,323.975 11.228,324.59C14.869,325.851 19.878,327.652 25.41,329.65C30.944,331.647 35.974,333.403 39.643,334.592C41.477,335.187 42.967,335.653 44.002,335.955C44.481,336.091 44.876,336.204 45.197,336.295C45.471,336.368 45.618,336.4 45.622,336.385C45.627,336.371 45.489,336.311 45.223,336.212C44.909,336.098 44.523,335.961 44.055,335.794C42.974,335.42 41.516,334.914 39.742,334.299C36.101,333.037 31.092,331.237 25.558,329.239C20.026,327.242 14.996,325.486 11.327,324.297C9.493,323.702 8.003,323.236 6.968,322.934C6.489,322.798 6.095,322.685 5.773,322.594C5.498,322.521 5.352,322.489 5.348,322.504Z" style="fill:rgb(12,43,52);fill-rule:nonzero;"/>
        <path d="M455.276,240.335L394.942,240.056C387.685,240.024 381.828,234.132 381.86,226.895L382.498,76.058C382.53,68.818 388.442,62.974 395.702,63.007L456.036,63.286C463.292,63.319 469.149,69.211 469.118,76.447L468.479,227.285C468.448,234.525 462.535,240.369 455.276,240.335Z" style="fill:rgb(51,88,99);fill-rule:nonzero;"/>
        <path d="M455.951,68.491L444.252,68.438C442.684,68.431 441.407,69.751 441.4,71.386L441.39,73.502C441.384,75.137 440.106,76.457 438.537,76.45L415.736,76.345C414.167,76.338 412.901,75.006 412.908,73.37L412.917,71.255C412.924,69.619 411.658,68.287 410.089,68.28L405.975,68.261L395.737,68.214C390.652,68.191 386.511,72.283 386.49,77.354L385.866,224.582C385.844,229.65 389.946,233.776 395.028,233.799L455.242,234.077C460.326,234.1 464.466,230.008 464.488,224.937L465.112,77.709C465.133,72.641 461.033,68.515 455.951,68.491Z" style="fill:white;fill-rule:nonzero;"/>
        <rect x="395.384" y="168.67" width="59.581" height="3.986" style="fill:rgb(51,88,99);fill-rule:nonzero;"/>
        <path d="M452.84,184.362C452.84,184.506 440.122,184.622 424.439,184.622C408.748,184.622 396.035,184.506 396.035,184.362C396.035,184.218 408.748,184.101 424.439,184.101C440.122,184.101 452.84,184.218 452.84,184.362Z" style="fill:rgb(51,88,99);fill-rule:nonzero;"/>
        <path d="M452.84,89.825C452.84,89.969 440.122,90.085 424.439,90.085C408.748,90.085 396.035,89.969 396.035,89.825C396.035,89.681 408.748,89.565 424.439,89.565C440.122,89.565 452.84,89.681 452.84,89.825Z" style="fill:rgb(51,88,99);fill-rule:nonzero;"/>
        <path d="M452.84,191.617C452.84,191.761 440.122,191.878 424.439,191.878C408.748,191.878 396.035,191.761 396.035,191.617C396.035,191.473 408.748,191.357 424.439,191.357C440.122,191.357 452.84,191.473 452.84,191.617Z" style="fill:rgb(51,88,99);fill-rule:nonzero;"/>
        <path d="M452.84,198.873C452.84,199.016 440.122,199.132 424.439,199.132C408.748,199.132 396.035,199.016 396.035,198.873C396.035,198.728 408.748,198.612 424.439,198.612C440.122,198.612 452.84,198.728 452.84,198.873Z" style="fill:rgb(51,88,99);fill-rule:nonzero;"/>
        <path d="M452.84,206.128C452.84,206.271 440.122,206.388 424.439,206.388C408.748,206.388 396.035,206.271 396.035,206.128C396.035,205.984 408.748,205.867 424.439,205.867C440.122,205.867 452.84,205.984 452.84,206.128Z" style="fill:rgb(51,88,99);fill-rule:nonzero;"/>
        <path d="M452.84,213.382C452.84,213.527 440.122,213.643 424.439,213.643C408.748,213.643 396.035,213.527 396.035,213.382C396.035,213.239 408.748,213.123 424.439,213.123C440.122,213.123 452.84,213.239 452.84,213.382Z" style="fill:rgb(51,88,99);fill-rule:nonzero;"/>
        <path d="M453.653,221.609C453.653,221.753 440.935,221.87 425.251,221.87C409.562,221.87 396.847,221.753 396.847,221.609C396.847,221.465 409.562,221.348 425.251,221.348C440.935,221.348 453.653,221.465 453.653,221.609Z" style="fill:rgb(51,88,99);fill-rule:nonzero;"/>
        <rect x="396.035" y="98.098" width="59.731" height="57.788" style="fill:rgb(215,217,217);fill-rule:nonzero;"/>
        <path d="M400.665,150.94L417.189,121.202L430.704,140.21L438.916,130.116L451.134,150.94L400.665,150.94Z" style="fill:rgb(253,205,51);fill-rule:nonzero;"/>
        <path d="M436.461,115.419C436.461,117.793 434.536,119.717 432.162,119.717C429.788,119.717 427.864,117.793 427.864,115.419C427.864,113.045 429.788,111.12 432.162,111.12C434.536,111.12 436.461,113.045 436.461,115.419Z" style="fill:rgb(253,205,51);fill-rule:nonzero;"/>
        <path d="M451.134,151.101C451.13,151.096 451.125,151.017 451.12,150.864C451.118,150.691 451.113,150.471 451.107,150.19C451.1,149.575 451.091,148.708 451.078,147.59C451.064,145.298 451.042,141.984 451.015,137.776C450.985,129.335 450.942,117.315 450.89,102.883L451.134,103.127C436.517,103.138 419.191,103.153 400.67,103.167C400.602,103.227 401.204,102.632 400.95,102.891L400.95,109.429C400.949,111.595 400.949,113.74 400.948,115.864C400.945,120.111 400.943,124.269 400.941,128.317C400.931,136.41 400.921,144.062 400.913,151.1L400.665,150.853C415.729,150.905 428.31,150.948 437.156,150.979C441.567,151.007 445.044,151.028 447.448,151.044C448.622,151.056 449.534,151.066 450.178,151.073C450.474,151.079 450.704,151.083 450.885,151.087C451.046,151.091 451.13,151.096 451.134,151.101C451.139,151.105 451.065,151.111 450.913,151.115C450.74,151.118 450.517,151.123 450.233,151.129C449.6,151.135 448.704,151.146 447.551,151.158C445.16,151.173 441.701,151.195 437.315,151.223C428.431,151.254 415.794,151.297 400.665,151.349L400.417,151.35L400.417,151.1C400.41,144.062 400.4,136.41 400.39,128.317C400.388,124.269 400.385,120.111 400.383,115.864C400.382,113.74 400.382,111.595 400.381,109.429L400.381,104.526L400.38,103.703L400.38,102.891C400.127,103.14 400.726,102.534 400.67,102.598C419.191,102.613 436.517,102.627 451.134,102.638L451.379,102.638L451.378,102.883C451.327,117.379 451.284,129.452 451.253,137.931C451.227,142.115 451.204,145.411 451.19,147.69C451.178,148.788 451.168,149.64 451.161,150.244C451.156,150.513 451.152,150.725 451.148,150.891C451.144,151.035 451.139,151.105 451.134,151.101Z" style="fill:rgb(51,88,99);fill-rule:nonzero;"/>
        <path d="M366.129,11.827L366.129,145.051C366.129,151.43 360.958,156.6 354.579,156.6L153.341,156.6C146.962,156.6 141.792,151.43 141.792,145.051L141.792,11.827C141.792,5.448 146.962,0.278 153.341,0.278L354.579,0.278C360.958,0.278 366.129,5.448 366.129,11.827Z" style="fill:rgb(51,88,99);fill-rule:nonzero;"/>
        <rect x="157.14" y="5.207" width="187.349" height="146.464" style="fill:white;fill-rule:nonzero;"/>
        <path d="M354.856,72.441C358.168,72.441 360.854,75.127 360.854,78.439C360.854,81.752 358.168,84.437 354.856,84.437C351.543,84.437 348.858,81.752 348.858,78.439C348.858,75.127 351.543,72.441 354.856,72.441Z" style="fill:rgb(12,43,52);fill-rule:nonzero;"/>
        <path d="M150.731,56.113L150.731,100.765C150.731,101.436 150.187,101.98 149.515,101.98L149.468,101.98C148.797,101.98 148.253,101.436 148.253,100.765L148.253,56.113C148.253,55.442 148.797,54.898 149.468,54.898L149.515,54.898C150.187,54.898 150.731,55.442 150.731,56.113Z" style="fill:rgb(12,43,52);fill-rule:nonzero;"/>
        <rect x="242.589" y="16.213" width="59.581" height="3.985" style="fill:rgb(51,88,99);fill-rule:nonzero;"/>
        <rect x="164.983" y="84.738" width="59.58" height="3.986" style="fill:rgb(51,88,99);fill-rule:nonzero;"/>
        <path d="M316.687,31.056C316.687,31.2 300.098,31.317 279.64,31.317C259.174,31.317 242.589,31.2 242.589,31.056C242.589,30.912 259.174,30.796 279.64,30.796C300.098,30.796 316.687,30.912 316.687,31.056Z" style="fill:rgb(51,88,99);fill-rule:nonzero;"/>
        <path d="M316.687,39.759C316.687,39.903 300.098,40.02 279.64,40.02C259.174,40.02 242.589,39.903 242.589,39.759C242.589,39.615 259.174,39.499 279.64,39.499C300.098,39.499 316.687,39.615 316.687,39.759Z" style="fill:rgb(51,88,99);fill-rule:nonzero;"/>
        <path d="M316.687,48.463C316.687,48.606 300.098,48.723 279.64,48.723C259.174,48.723 242.589,48.606 242.589,48.463C242.589,48.318 259.174,48.202 279.64,48.202C300.098,48.202 316.687,48.318 316.687,48.463Z" style="fill:rgb(51,88,99);fill-rule:nonzero;"/>
        <path d="M316.687,57.166C316.687,57.309 300.098,57.426 279.64,57.426C259.174,57.426 242.589,57.309 242.589,57.166C242.589,57.022 259.174,56.905 279.64,56.905C300.098,56.905 316.687,57.022 316.687,57.166Z" style="fill:rgb(51,88,99);fill-rule:nonzero;"/>
        <path d="M316.687,65.869C316.687,66.012 300.098,66.129 279.64,66.129C259.174,66.129 242.589,66.012 242.589,65.869C242.589,65.725 259.174,65.608 279.64,65.608C300.098,65.608 316.687,65.725 316.687,65.869Z" style="fill:rgb(51,88,99);fill-rule:nonzero;"/>
        <path d="M300.437,74.572C300.437,74.715 287.487,74.832 271.514,74.832C255.537,74.832 242.589,74.715 242.589,74.572C242.589,74.428 255.537,74.311 271.514,74.311C287.487,74.311 300.437,74.428 300.437,74.572Z" style="fill:rgb(51,88,99);fill-rule:nonzero;"/>
        <path d="M262.834,100.429C262.834,100.573 241.073,100.69 214.236,100.69C187.389,100.69 165.633,100.573 165.633,100.429C165.633,100.286 187.389,100.17 214.236,100.17C241.073,100.17 262.834,100.286 262.834,100.429Z" style="fill:rgb(51,88,99);fill-rule:nonzero;"/>
        <path d="M262.834,107.685C262.834,107.828 241.073,107.945 214.236,107.945C187.389,107.945 165.633,107.828 165.633,107.685C165.633,107.541 187.389,107.424 214.236,107.424C241.073,107.424 262.834,107.541 262.834,107.685Z" style="fill:rgb(51,88,99);fill-rule:nonzero;"/>
        <path d="M262.834,114.94C262.834,115.084 241.073,115.2 214.236,115.2C187.389,115.2 165.633,115.084 165.633,114.94C165.633,114.796 187.389,114.679 214.236,114.679C241.073,114.679 262.834,114.796 262.834,114.94Z" style="fill:rgb(51,88,99);fill-rule:nonzero;"/>
        <path d="M262.834,122.195C262.834,122.339 241.073,122.456 214.236,122.456C187.389,122.456 165.633,122.339 165.633,122.195C165.633,122.051 187.389,121.935 214.236,121.935C241.073,121.935 262.834,122.051 262.834,122.195Z" style="fill:rgb(51,88,99);fill-rule:nonzero;"/>
        <path d="M262.834,129.45C262.834,129.594 241.073,129.711 214.236,129.711C187.389,129.711 165.633,129.594 165.633,129.45C165.633,129.307 187.389,129.19 214.236,129.19C241.073,129.19 262.834,129.307 262.834,129.45Z" style="fill:rgb(51,88,99);fill-rule:nonzero;"/>
        <rect x="165.633" y="14.165" width="59.731" height="57.789" style="fill:rgb(133,215,239);fill-rule:nonzero;"/>
        <path d="M170.264,67.008L186.787,37.271L200.303,56.277L208.515,46.184L220.733,67.008L170.264,67.008Z" style="fill:rgb(215,217,217);fill-rule:nonzero;"/>
        <path d="M206.059,31.486C206.059,33.861 204.135,35.785 201.761,35.785C199.387,35.785 197.463,33.861 197.463,31.486C197.463,29.112 199.387,27.188 201.761,27.188C204.135,27.188 206.059,29.112 206.059,31.486Z" style="fill:rgb(215,217,217);fill-rule:nonzero;"/>
        <path d="M220.733,67.169C220.728,67.165 220.724,67.085 220.719,66.932C220.716,66.759 220.711,66.539 220.705,66.258C220.699,65.643 220.689,64.776 220.677,63.658C220.662,61.366 220.641,58.051 220.614,53.843C220.583,45.402 220.54,33.382 220.489,18.951L220.733,19.194C206.116,19.207 188.789,19.22 170.269,19.235C170.201,19.295 170.803,18.7 170.548,18.959L170.548,25.498C170.547,27.663 170.547,29.808 170.546,31.932C170.543,36.179 170.541,40.337 170.539,44.384C170.529,52.478 170.52,60.13 170.512,67.169L170.264,66.921C185.327,66.973 197.909,67.016 206.754,67.047C211.164,67.075 214.642,67.096 217.046,67.112C218.221,67.124 219.132,67.134 219.777,67.141C220.072,67.147 220.304,67.151 220.484,67.155C220.644,67.159 220.728,67.164 220.733,67.169C220.738,67.173 220.663,67.178 220.512,67.183C220.338,67.186 220.116,67.191 219.831,67.197C219.198,67.204 218.303,67.214 217.149,67.226C214.759,67.241 211.3,67.263 206.913,67.291C198.029,67.321 185.392,67.365 170.264,67.417L170.016,67.418L170.016,67.169C170.008,60.13 169.998,52.478 169.989,44.384C169.987,40.337 169.984,36.179 169.981,31.932C169.981,29.808 169.98,27.663 169.98,25.498C169.979,24.415 169.979,23.327 169.979,22.235L169.979,18.959C169.725,19.209 170.325,18.602 170.269,18.666C188.789,18.681 206.116,18.694 220.733,18.706L220.978,18.707L220.977,18.951C220.925,33.447 220.882,45.52 220.852,53.999C220.825,58.183 220.804,61.48 220.788,63.758C220.776,64.856 220.767,65.708 220.76,66.312C220.755,66.581 220.75,66.793 220.746,66.959C220.742,67.103 220.738,67.173 220.733,67.169Z" style="fill:rgb(51,88,99);fill-rule:nonzero;"/>
        <rect x="276.241" y="92.405" width="42.273" height="40.897" style="fill:rgb(133,215,239);fill-rule:nonzero;"/>
        <path d="M279.519,129.802L291.212,108.757L300.778,122.208L306.589,115.065L315.236,129.802L279.519,129.802Z" style="fill:rgb(215,217,217);fill-rule:nonzero;"/>
        <path d="M304.852,104.663C304.852,106.343 303.49,107.705 301.81,107.705C300.129,107.705 298.768,106.343 298.768,104.663C298.768,102.983 300.129,101.621 301.81,101.621C303.49,101.621 304.852,102.983 304.852,104.663Z" style="fill:rgb(215,217,217);fill-rule:nonzero;"/>
        <path d="M315.236,129.916C315.233,129.913 315.23,129.856 315.226,129.748C315.224,129.626 315.221,129.47 315.217,129.272C315.212,128.836 315.205,128.222 315.197,127.431C315.186,125.809 315.171,123.464 315.152,120.486C315.13,114.512 315.1,106.005 315.063,95.792L315.236,95.964C304.892,95.973 292.629,95.983 279.522,95.993C279.474,96.035 279.9,95.614 279.72,95.797L279.72,98.116C279.72,98.889 279.719,99.659 279.719,100.424C279.719,101.957 279.719,103.476 279.718,104.978C279.716,107.984 279.715,110.926 279.713,113.791C279.706,119.519 279.7,124.934 279.694,129.916L279.519,129.74C290.179,129.778 299.083,129.808 305.343,129.83C308.464,129.849 310.926,129.865 312.627,129.876C313.458,129.884 314.103,129.891 314.56,129.896C314.769,129.9 314.932,129.903 315.06,129.906C315.173,129.909 315.233,129.912 315.236,129.916C315.24,129.919 315.187,129.923 315.079,129.926C314.956,129.928 314.799,129.932 314.598,129.936C314.15,129.941 313.517,129.947 312.7,129.956C311.008,129.967 308.56,129.983 305.455,130.002C299.168,130.024 290.225,130.055 279.519,130.091L279.343,130.092L279.343,129.916C279.337,124.934 279.33,119.519 279.324,113.791C279.323,110.926 279.321,107.984 279.319,104.978C279.319,103.476 279.318,101.957 279.318,100.424L279.318,96.955L279.317,96.372L279.317,95.797C279.137,95.974 279.562,95.545 279.522,95.59C292.629,95.601 304.892,95.61 315.236,95.619L315.41,95.619L315.409,95.792C315.372,106.05 315.342,114.595 315.321,120.595C315.301,123.557 315.285,125.889 315.276,127.502C315.267,128.279 315.26,128.882 315.255,129.309C315.251,129.5 315.248,129.65 315.245,129.768C315.243,129.869 315.24,129.919 315.236,129.916Z" style="fill:rgb(51,88,99);fill-rule:nonzero;"/>
        <path d="M348.947,379.779L64.492,379.779C56.447,379.779 49.925,373.257 49.925,365.212L49.925,186.974C49.925,178.928 56.447,172.406 64.492,172.406L348.947,172.406C356.992,172.406 363.514,178.928 363.514,186.974L363.514,365.212C363.514,373.257 356.992,379.779 348.947,379.779Z" style="fill:rgb(12,43,52);fill-rule:nonzero;"/>
        <path d="M358.763,382.587L54.609,382.587C44.78,382.587 36.811,374.619 36.811,364.789L36.811,364.442L376.561,364.442L376.561,364.789C376.561,374.619 368.592,382.587 358.763,382.587Z" style="fill:rgb(12,43,52);fill-rule:nonzero;"/>
        <rect x="58.343" y="180.646" width="295.876" height="175.122" style="fill:rgb(215,217,217);fill-rule:nonzero;"/>
        <path d="M175.806,364.442L180.022,371.148L239.347,371.148L243.262,364.442L175.806,364.442Z" style="fill:rgb(51,88,99);fill-rule:nonzero;"/>
        <rect x="68.21" y="192.307" width="272.412" height="163.394" style="fill:rgb(249,249,249);fill-rule:nonzero;"/>
        <path d="M79.838,200.366C79.838,201.628 78.815,202.651 77.553,202.651C76.29,202.651 75.267,201.628 75.267,200.366C75.267,199.103 76.29,198.08 77.553,198.08C78.815,198.08 79.838,199.103 79.838,200.366Z" style="fill:rgb(51,88,99);fill-rule:nonzero;"/>
        <path d="M89.165,200.366C89.165,201.628 88.142,202.651 86.88,202.651C85.618,202.651 84.594,201.628 84.594,200.366C84.594,199.103 85.618,198.08 86.88,198.08C88.142,198.08 89.165,199.103 89.165,200.366Z" style="fill:rgb(51,88,99);fill-rule:nonzero;"/>
        <path d="M98.493,200.366C98.493,201.628 97.469,202.651 96.207,202.651C94.945,202.651 93.921,201.628 93.921,200.366C93.921,199.103 94.945,198.08 96.207,198.08C97.469,198.08 98.493,199.103 98.493,200.366Z" style="fill:rgb(51,88,99);fill-rule:nonzero;"/>
        <path d="M340.622,210.366C340.622,210.509 279.636,210.626 204.423,210.626C129.184,210.626 68.21,210.509 68.21,210.366C68.21,210.221 129.184,210.105 204.423,210.105C279.636,210.105 340.622,210.221 340.622,210.366Z" style="fill:rgb(51,88,99);fill-rule:nonzero;"/>
        <rect x="49.925" y="364.582" width="313.589" height="1" style="fill:rgb(51,88,99);fill-rule:nonzero;"/>
        <rect x="90.545" y="289.75" width="59.581" height="3.985" style="fill:rgb(51,88,99);fill-rule:nonzero;"/>
        <rect x="167.502" y="234.414" width="59.581" height="3.986" style="fill:rgb(51,88,99);fill-rule:nonzero;"/>
        <path d="M315.698,249.257C315.698,249.401 282.52,249.518 241.603,249.518C200.672,249.518 167.502,249.401 167.502,249.257C167.502,249.114 200.672,248.997 241.603,248.997C282.52,248.997 315.698,249.114 315.698,249.257Z" style="fill:rgb(51,88,99);fill-rule:nonzero;"/>
        <path d="M315.698,257.961C315.698,258.104 282.52,258.221 241.603,258.221C200.672,258.221 167.502,258.104 167.502,257.961C167.502,257.818 200.672,257.7 241.603,257.7C282.52,257.7 315.698,257.818 315.698,257.961Z" style="fill:rgb(51,88,99);fill-rule:nonzero;"/>
        <path d="M315.698,266.664C315.698,266.807 282.52,266.924 241.603,266.924C200.672,266.924 167.502,266.807 167.502,266.664C167.502,266.52 200.672,266.403 241.603,266.403C282.52,266.403 315.698,266.52 315.698,266.664Z" style="fill:rgb(51,88,99);fill-rule:nonzero;"/>
        <path d="M315.698,275.367C315.698,275.51 282.52,275.628 241.603,275.628C200.672,275.628 167.502,275.51 167.502,275.367C167.502,275.223 200.672,275.106 241.603,275.106C282.52,275.106 315.698,275.223 315.698,275.367Z" style="fill:rgb(51,88,99);fill-rule:nonzero;"/>
        <path d="M315.698,284.07C315.698,284.214 282.52,284.331 241.603,284.331C200.672,284.331 167.502,284.214 167.502,284.07C167.502,283.926 200.672,283.809 241.603,283.809C282.52,283.809 315.698,283.926 315.698,284.07Z" style="fill:rgb(51,88,99);fill-rule:nonzero;"/>
        <path d="M225.35,292.773C225.35,292.917 212.4,293.034 196.428,293.034C180.45,293.034 167.502,292.917 167.502,292.773C167.502,292.63 180.45,292.512 196.428,292.512C212.4,292.512 225.35,292.63 225.35,292.773Z" style="fill:rgb(51,88,99);fill-rule:nonzero;"/>
        <path d="M314.614,309.664C314.614,309.807 292.807,309.924 265.913,309.924C239.011,309.924 217.208,309.807 217.208,309.664C217.208,309.52 239.011,309.403 265.913,309.403C292.807,309.403 314.614,309.52 314.614,309.664Z" style="fill:rgb(51,88,99);fill-rule:nonzero;"/>
        <path d="M314.614,318.902C314.614,319.047 292.807,319.163 265.913,319.163C239.011,319.163 217.208,319.047 217.208,318.902C217.208,318.758 239.011,318.642 265.913,318.642C292.807,318.642 314.614,318.758 314.614,318.902Z" style="fill:rgb(51,88,99);fill-rule:nonzero;"/>
        <path d="M314.614,328.141C314.614,328.285 292.807,328.401 265.913,328.401C239.011,328.401 217.208,328.285 217.208,328.141C217.208,327.997 239.011,327.881 265.913,327.881C292.807,327.881 314.614,327.997 314.614,328.141Z" style="fill:rgb(51,88,99);fill-rule:nonzero;"/>
        <path d="M314.614,337.38C314.614,337.523 292.807,337.639 265.913,337.639C239.011,337.639 217.208,337.523 217.208,337.38C217.208,337.235 239.011,337.119 265.913,337.119C292.807,337.119 314.614,337.235 314.614,337.38Z" style="fill:rgb(51,88,99);fill-rule:nonzero;"/>
        <path d="M150.277,308.78C150.277,308.923 137.278,309.041 121.246,309.041C105.209,309.041 92.212,308.923 92.212,308.78C92.212,308.636 105.209,308.519 121.246,308.519C137.278,308.519 150.277,308.636 150.277,308.78Z" style="fill:rgb(51,88,99);fill-rule:nonzero;"/>
        <path d="M150.277,316.035C150.277,316.179 137.278,316.296 121.246,316.296C105.209,316.296 92.212,316.179 92.212,316.035C92.212,315.891 105.209,315.775 121.246,315.775C137.278,315.775 150.277,315.891 150.277,316.035Z" style="fill:rgb(51,88,99);fill-rule:nonzero;"/>
        <path d="M150.277,323.291C150.277,323.434 137.278,323.551 121.246,323.551C105.209,323.551 92.212,323.434 92.212,323.291C92.212,323.147 105.209,323.03 121.246,323.03C137.278,323.03 150.277,323.147 150.277,323.291Z" style="fill:rgb(51,88,99);fill-rule:nonzero;"/>
        <path d="M150.277,330.546C150.277,330.69 137.278,330.806 121.246,330.806C105.209,330.806 92.212,330.69 92.212,330.546C92.212,330.402 105.209,330.286 121.246,330.286C137.278,330.286 150.277,330.402 150.277,330.546Z" style="fill:rgb(51,88,99);fill-rule:nonzero;"/>
        <path d="M150.277,337.801C150.277,337.945 137.278,338.061 121.246,338.061C105.209,338.061 92.212,337.945 92.212,337.801C92.212,337.657 105.209,337.541 121.246,337.541C137.278,337.541 150.277,337.657 150.277,337.801Z" style="fill:rgb(51,88,99);fill-rule:nonzero;"/>
        <rect x="90.545" y="221.391" width="59.732" height="57.789" style="fill:rgb(215,217,217);fill-rule:nonzero;"/>
        <path d="M95.177,274.234L111.701,244.497L125.216,263.504L133.428,253.41L145.646,274.234L95.177,274.234Z" style="fill:rgb(253,205,51);fill-rule:nonzero;"/>
        <path d="M130.972,238.713C130.972,241.087 129.048,243.011 126.674,243.011C124.3,243.011 122.375,241.087 122.375,238.713C122.375,236.339 124.3,234.414 126.674,234.414C129.048,234.414 130.972,236.339 130.972,238.713Z" style="fill:rgb(253,205,51);fill-rule:nonzero;"/>
        <path d="M145.646,274.395C145.641,274.39 145.637,274.31 145.632,274.158C145.629,273.985 145.624,273.764 145.618,273.484C145.612,272.87 145.602,272.002 145.59,270.883C145.575,268.592 145.554,265.278 145.527,261.069C145.496,252.629 145.453,240.608 145.402,226.176L145.646,226.421C131.029,226.432 113.702,226.446 95.182,226.462C95.113,226.521 95.715,225.926 95.461,226.184L95.461,229.462C95.461,230.553 95.46,231.64 95.46,232.723C95.46,234.889 95.459,237.035 95.458,239.158C95.456,243.405 95.454,247.562 95.452,251.61C95.442,259.704 95.432,267.355 95.424,274.394L95.177,274.147C110.24,274.199 122.822,274.243 131.667,274.273C136.078,274.3 139.555,274.322 141.959,274.338C143.134,274.35 144.045,274.36 144.69,274.367C144.985,274.373 145.217,274.378 145.397,274.381C145.557,274.385 145.641,274.39 145.646,274.395C145.651,274.399 145.576,274.404 145.425,274.409C145.251,274.413 145.029,274.418 144.744,274.423C144.111,274.429 143.216,274.439 142.062,274.452C139.672,274.467 136.212,274.489 131.826,274.517C122.942,274.548 110.306,274.59 95.177,274.642L94.929,274.643L94.929,274.394C94.92,267.355 94.911,259.704 94.901,251.61C94.899,247.562 94.896,243.405 94.894,239.158C94.893,237.035 94.893,234.889 94.892,232.723L94.892,227.82L94.891,226.997L94.891,226.184C94.638,226.434 95.237,225.829 95.182,225.892C113.702,225.907 131.029,225.921 145.646,225.932L145.891,225.932L145.89,226.176C145.838,240.673 145.795,252.746 145.765,261.225C145.738,265.41 145.716,268.706 145.701,270.984C145.689,272.082 145.68,272.934 145.674,273.538C145.667,273.807 145.663,274.019 145.66,274.185C145.655,274.329 145.651,274.399 145.646,274.395Z" style="fill:rgb(51,88,99);fill-rule:nonzero;"/>
        <rect x="167.466" y="305.256" width="42.273" height="40.898" style="fill:rgb(215,217,217);fill-rule:nonzero;"/>
        <path d="M170.743,342.654L182.437,321.608L192.002,335.059L197.814,327.917L206.461,342.654L170.743,342.654Z" style="fill:rgb(253,205,51);fill-rule:nonzero;"/>
        <path d="M196.077,317.514C196.077,319.195 194.715,320.557 193.035,320.557C191.354,320.557 189.993,319.195 189.993,317.514C189.993,315.835 191.354,314.472 193.035,314.472C194.715,314.472 196.077,315.835 196.077,317.514Z" style="fill:rgb(253,205,51);fill-rule:nonzero;"/>
        <path d="M206.461,342.767C206.458,342.764 206.454,342.708 206.451,342.6C206.449,342.477 206.446,342.321 206.442,342.123C206.437,341.688 206.43,341.074 206.422,340.283C206.411,338.661 206.396,336.315 206.377,333.337C206.355,327.363 206.325,318.856 206.288,308.643L206.461,308.815C196.117,308.824 183.854,308.834 170.747,308.844C170.699,308.886 171.125,308.465 170.945,308.648L170.945,313.276C170.944,314.808 170.944,316.327 170.943,317.83C170.941,320.836 170.94,323.778 170.938,326.642C170.931,332.37 170.925,337.786 170.919,342.767L170.743,342.591C181.404,342.629 190.308,342.66 196.568,342.681C199.69,342.701 202.151,342.716 203.852,342.727C204.683,342.736 205.328,342.743 205.785,342.748C205.993,342.752 206.157,342.755 206.285,342.757C206.398,342.76 206.458,342.764 206.461,342.767C206.465,342.77 206.412,342.774 206.305,342.777C206.181,342.78 206.024,342.783 205.823,342.788C205.375,342.792 204.742,342.798 203.925,342.807C202.233,342.818 199.785,342.834 196.681,342.854C190.393,342.876 181.45,342.906 170.743,342.943L170.568,342.943L170.568,342.767C170.562,337.786 170.556,332.37 170.549,326.642C170.547,323.778 170.545,320.836 170.544,317.83C170.543,316.327 170.543,314.808 170.543,313.276C170.542,312.509 170.542,311.74 170.542,310.967L170.542,308.648C170.363,308.825 170.786,308.396 170.747,308.441C183.854,308.452 196.117,308.462 206.461,308.469L206.635,308.47L206.634,308.643C206.597,318.902 206.567,327.446 206.545,333.447C206.526,336.408 206.511,338.741 206.5,340.353C206.492,341.131 206.485,341.733 206.48,342.161C206.476,342.351 206.473,342.502 206.471,342.619C206.468,342.72 206.465,342.77 206.461,342.767Z" style="fill:rgb(51,88,99);fill-rule:nonzero;"/>
        <path d="M562.702,364.849L552.691,363.662L550.346,382.402L564.976,384.294L565.196,383.141C566.129,378.006 569.582,356.965 568.967,353.377C568.28,349.375 562.702,364.849 562.702,364.849Z" style="fill:rgb(253,205,51);fill-rule:nonzero;"/>
        <path d="M568.103,352.035C568.28,352.055 567.591,359.088 566.566,367.74C565.539,376.394 564.564,383.391 564.387,383.37C564.21,383.349 564.898,376.318 565.924,367.664C566.95,359.011 567.925,352.013 568.103,352.035Z" style="fill:rgb(12,43,52);fill-rule:nonzero;"/>
        <path d="M564.785,363.971C564.683,364.115 564.16,363.916 563.686,363.45C563.209,362.986 562.999,362.466 563.14,362.362C563.284,362.253 563.699,362.562 564.137,362.988C564.573,363.418 564.892,363.826 564.785,363.971Z" style="fill:rgb(12,43,52);fill-rule:nonzero;"/>
        <path d="M565.587,362.853C565.504,363.008 564.911,362.851 564.33,362.407C563.746,361.965 563.437,361.436 563.565,361.314C563.695,361.189 564.182,361.485 564.721,361.893C565.258,362.304 565.674,362.695 565.587,362.853Z" style="fill:rgb(12,43,52);fill-rule:nonzero;"/>
        <path d="M564.991,377.712C565.034,377.792 564.738,378.042 564.244,378.399C563.756,378.759 563.07,379.228 562.469,379.872C561.874,380.512 561.528,381.24 561.395,381.793C561.255,382.347 561.288,382.726 561.193,382.746C561.118,382.77 560.909,382.395 560.944,381.726C560.97,381.066 561.311,380.168 561.995,379.433C562.676,378.705 563.453,378.273 564.011,378.006C564.576,377.743 564.947,377.636 564.991,377.712Z" style="fill:rgb(12,43,52);fill-rule:nonzero;"/>
        <path d="M562.909,363.691C563.071,363.62 563.389,363.989 563.513,364.546C563.638,365.101 563.507,365.57 563.331,365.574C563.151,365.58 562.993,365.175 562.882,364.686C562.775,364.196 562.744,363.763 562.909,363.691Z" style="fill:rgb(12,43,52);fill-rule:nonzero;"/>
        <path d="M561.908,363.871C562.086,363.876 562.177,364.393 562.111,365.027C562.044,365.661 561.847,366.148 561.671,366.115C561.496,366.083 561.406,365.565 561.468,364.96C561.533,364.353 561.73,363.866 561.908,363.871Z" style="fill:rgb(12,43,52);fill-rule:nonzero;"/>
        <path d="M556.6,383.895L501.167,378.275L386.238,380.845L416.796,356.204L493.507,352.518L560.575,361.76L556.6,383.895Z" style="fill:rgb(12,43,52);fill-rule:nonzero;"/>
        <path d="M462.911,368.505C462.911,368.649 452.122,368.765 438.817,368.765C425.506,368.765 414.72,368.649 414.72,368.505C414.72,368.361 425.506,368.245 438.817,368.245C452.122,368.245 462.911,368.361 462.911,368.505Z" style="fill:rgb(51,88,99);fill-rule:nonzero;"/>
        <path d="M457.547,354.246L461.494,379.036L469.05,379.036L463.298,353.97L457.547,354.246Z" style="fill-rule:nonzero;"/>
        <path d="M486.81,379.362L485.689,369.342L466.907,371.323L468.392,386L469.565,385.951C474.778,385.692 496.053,384.267 499.407,382.852C503.147,381.272 486.81,379.362 486.81,379.362Z" style="fill:rgb(253,205,51);fill-rule:nonzero;"/>
        <path d="M499.747,381.885C499.767,382.061 492.763,382.992 484.105,383.961C475.444,384.93 468.409,385.572 468.388,385.395C468.368,385.218 475.371,384.289 484.033,383.319C492.692,382.349 499.728,381.708 499.747,381.885Z" style="fill:rgb(12,43,52);fill-rule:nonzero;"/>
        <path d="M487.369,381.37C487.206,381.302 487.281,380.749 487.626,380.18C487.97,379.611 488.428,379.288 488.562,379.401C488.702,379.517 488.494,379.991 488.179,380.515C487.86,381.037 487.535,381.44 487.369,381.37Z" style="fill:rgb(12,43,52);fill-rule:nonzero;"/>
        <path d="M488.641,381.896C488.47,381.851 488.489,381.238 488.788,380.571C489.087,379.902 489.532,379.48 489.679,379.577C489.83,379.674 489.654,380.216 489.378,380.835C489.1,381.452 488.814,381.945 488.641,381.896Z" style="fill:rgb(12,43,52);fill-rule:nonzero;"/>
        <path d="M474.035,384.696C473.968,384.756 473.657,384.524 473.197,384.126C472.735,383.732 472.122,383.171 471.359,382.731C470.6,382.298 469.812,382.127 469.243,382.124C468.672,382.112 468.311,382.232 468.269,382.142C468.23,382.076 468.547,381.787 469.205,381.668C469.855,381.544 470.807,381.671 471.678,382.171C472.542,382.668 473.139,383.327 473.527,383.809C473.911,384.298 474.1,384.635 474.035,384.696Z" style="fill:rgb(12,43,52);fill-rule:nonzero;"/>
        <path d="M487.215,379.48C487.322,379.62 487.035,380.014 486.521,380.261C486.008,380.509 485.522,380.489 485.478,380.319C485.431,380.144 485.789,379.899 486.241,379.678C486.693,379.463 487.108,379.335 487.215,379.48Z" style="fill:rgb(12,43,52);fill-rule:nonzero;"/>
        <path d="M486.812,378.545C486.848,378.719 486.365,378.926 485.733,379.006C485.101,379.086 484.581,379.004 484.574,378.825C484.565,378.647 485.048,378.441 485.653,378.365C486.257,378.289 486.777,378.37 486.812,378.545Z" style="fill:rgb(12,43,52);fill-rule:nonzero;"/>
        <path d="M376.868,264.976L392.896,264.686C393.11,262.831 393.421,255.618 393.421,255.618C393.421,255.618 400.121,254.996 400.613,248.367C401.104,241.737 400.894,226.431 400.894,226.431C393.417,222.657 384.484,223.224 377.544,227.914L376.514,228.61L376.868,264.976Z" style="fill:rgb(193,133,115);fill-rule:nonzero;"/>
        <path d="M398.663,237.739C398.291,237.357 398.299,236.747 398.681,236.374C399.063,236.002 399.673,236.01 400.046,236.391C400.418,236.773 400.41,237.384 400.029,237.757C399.647,238.129 399.035,238.121 398.663,237.739Z" style="fill:rgb(12,43,52);fill-rule:nonzero;"/>
        <path d="M400.365,236.324C400.254,236.432 399.633,235.891 398.72,235.83C397.807,235.757 397.115,236.201 397.02,236.077C396.974,236.022 397.09,235.821 397.394,235.619C397.691,235.418 398.192,235.237 398.761,235.279C399.329,235.321 399.798,235.573 400.063,235.816C400.333,236.06 400.418,236.276 400.365,236.324Z" style="fill:rgb(12,43,52);fill-rule:nonzero;"/>
        <path d="M389.788,236.471C390.224,236.778 390.329,237.38 390.022,237.816C389.715,238.252 389.114,238.357 388.677,238.05C388.242,237.744 388.136,237.141 388.443,236.706C388.749,236.269 389.352,236.165 389.788,236.471Z" style="fill:rgb(12,43,52);fill-rule:nonzero;"/>
        <path d="M390.39,236.516C390.279,236.625 389.659,236.084 388.745,236.022C387.832,235.948 387.139,236.393 387.045,236.269C386.999,236.215 387.116,236.013 387.418,235.811C387.716,235.61 388.216,235.429 388.785,235.471C389.355,235.513 389.824,235.765 390.088,236.008C390.358,236.253 390.444,236.468 390.39,236.516Z" style="fill:rgb(12,43,52);fill-rule:nonzero;"/>
        <path d="M393.589,244.281C393.587,244.209 394.16,244.13 395.086,244.059C395.327,244.048 395.518,244.006 395.543,243.878C395.595,243.736 395.518,243.475 395.414,243.182C395.216,242.564 395.016,241.938 394.806,241.282C393.971,238.575 393.406,236.346 393.543,236.304C393.68,236.261 394.468,238.421 395.303,241.128C395.499,241.789 395.687,242.419 395.872,243.042C395.944,243.323 396.089,243.656 395.942,244.043C395.864,244.236 395.666,244.368 395.506,244.399C395.345,244.437 395.21,244.429 395.095,244.427C394.166,244.403 393.591,244.353 393.589,244.281Z" style="fill:rgb(12,43,52);fill-rule:nonzero;"/>
        <path d="M390.558,245.107C389.641,244.481 393.093,246.662 394.959,246.686C394.959,246.686 393.786,248.325 391.917,247.507C389.976,246.658 390.558,245.107 390.558,245.107Z" style="fill:white;fill-rule:nonzero;"/>
        <path d="M393.439,255.523C393.439,255.523 389.224,255.606 384.941,252.532C384.941,252.532 386.691,257.432 393.348,257.243L393.439,255.523Z" style="fill:rgb(174,104,89);fill-rule:nonzero;"/>
        <path d="M401.375,224.045C402.897,224.001 404.127,222.3 403.693,220.841C403.259,219.383 401.3,218.632 400.001,219.425C400.746,218.719 401.512,217.984 401.905,217.036C402.297,216.089 402.215,214.863 401.435,214.197C400.666,213.541 399.493,213.629 398.564,214.026C397.154,214.628 396.042,215.818 394.595,216.322C393.131,216.831 391.529,216.574 389.981,216.642C388.269,216.716 386.54,217.222 385.204,218.294C383.868,219.366 382.972,221.047 383.069,222.757C380.905,222.488 378.503,222.457 376.792,223.807C375.348,224.947 374.71,226.875 374.705,228.715C374.701,230.553 375.462,232.298 376.001,234.057L376.001,234.051C376.324,235.077 376.663,235.436 376.663,235.436L377.47,240.193L380.425,240.136L380.234,230.228C380.234,230.228 379.937,226.056 383.528,226.422C387.118,226.787 391.999,230.838 398.993,229.816C400.125,229.651 401.305,229.524 402.252,228.882C403.2,228.239 403.88,227.116 403.748,225.979C403.617,224.842 402.501,223.837 401.375,224.045Z" style="fill:rgb(12,43,52);fill-rule:nonzero;"/>
        <path d="M377.788,234.497C377.644,234.442 372.866,233.821 373.317,239.464C373.769,245.106 379.318,242.784 379.315,242.622C379.312,242.459 377.788,234.497 377.788,234.497Z" style="fill:rgb(193,133,115);fill-rule:nonzero;"/>
        <path d="M377.428,240.78C377.402,240.763 377.335,240.856 377.175,240.946C377.019,241.033 376.744,241.106 376.442,241.02C375.827,240.848 375.25,239.942 375.142,238.927C375.086,238.415 375.155,237.918 375.304,237.498C375.444,237.071 375.687,236.761 375.983,236.684C376.276,236.591 376.503,236.755 376.584,236.907C376.673,237.059 376.646,237.174 376.677,237.182C376.694,237.195 376.79,237.078 376.726,236.848C376.694,236.738 376.618,236.61 376.476,236.512C376.331,236.413 376.128,236.373 375.921,236.413C375.488,236.477 375.128,236.909 374.964,237.37C374.776,237.834 374.687,238.394 374.749,238.969C374.876,240.103 375.543,241.121 376.377,241.292C376.783,241.363 377.105,241.217 377.265,241.07C377.428,240.917 377.449,240.788 377.428,240.78Z" style="fill:rgb(174,104,89);fill-rule:nonzero;"/>
        <path d="M363.894,363.881C366.899,368.35 385.086,395.729 406.798,375.824C434.473,350.452 456.39,328.248 456.39,328.248L464.608,378.399L490.377,377.005C490.377,377.005 480.34,302.329 473.99,295.539C466.907,287.965 460.378,288.604 404.705,332.533L363.894,363.881Z" style="fill:rgb(51,88,99);fill-rule:nonzero;"/>
        <path d="M456.034,278.807L480.088,261.256L481.273,263.141L457.373,280.909L456.034,278.807Z" style="fill:rgb(12,43,52);fill-rule:nonzero;"/>
        <path d="M461.978,278.267C461.978,278.267 465.205,269.869 465.932,268.08C466.659,266.291 467.887,263.174 468.346,263.112C468.805,263.049 470.487,263.312 468.29,268.655C466.095,273.998 470.889,270.732 470.889,270.732L475.522,267.417C475.522,267.417 479.186,278.353 477.099,281.647C474.847,285.202 471.611,288.604 471.611,288.604L461.978,278.267Z" style="fill:rgb(193,133,115);fill-rule:nonzero;"/>
        <path d="M462.248,277.297C461.773,276.2 431.176,303.226 425.087,304.143L407.245,280.909C407.245,280.909 403.538,275.033 395.588,264.972C390.456,258.478 376.294,259.828 372.571,267.739C366.247,281.177 366.177,296.124 362.805,325.196L361.381,344.813C361.077,348.996 361.113,353.2 361.572,357.368C362.109,362.244 363.215,367.33 365.476,366.644L406.282,332.911L407.59,317.591C416.172,326.291 418.838,328.109 423.304,327.417C434.536,325.676 473.838,290.325 473.838,290.325C473.838,290.325 462.723,278.393 462.248,277.297Z" style="fill:rgb(133,215,239);fill-rule:nonzero;"/>
        <path d="M468.547,295.276C468.504,295.327 467.643,294.7 466.353,293.56C465.064,292.423 463.364,290.752 461.659,288.751C459.955,286.748 458.577,284.802 457.66,283.348C456.74,281.893 456.258,280.943 456.315,280.909C456.382,280.869 456.973,281.75 457.964,283.142C458.954,284.536 460.367,286.428 462.055,288.414C463.744,290.396 465.387,292.091 466.605,293.292C467.822,294.492 468.597,295.217 468.547,295.276Z" style="fill:rgb(12,43,52);fill-rule:nonzero;"/>
        <path d="M423.354,313.353C423.212,313.328 423.463,311.246 423.915,308.704C424.368,306.161 424.848,304.12 424.991,304.145C425.131,304.171 424.88,306.252 424.428,308.795C423.976,311.337 423.495,313.378 423.354,313.353Z" style="fill:rgb(12,43,52);fill-rule:nonzero;"/>
        <path d="M427.248,312.394C427.11,312.432 426.504,310.644 425.897,308.401C425.289,306.157 424.909,304.308 425.047,304.27C425.187,304.233 425.791,306.02 426.4,308.264C427.007,310.507 427.387,312.357 427.248,312.394Z" style="fill:rgb(12,43,52);fill-rule:nonzero;"/>
        <path d="M383.07,284.996C383.099,284.975 383.463,285.436 384.098,286.286C384.782,287.212 385.681,288.428 386.767,289.898C389.017,292.951 392.15,297.148 395.661,301.746C399.169,306.295 402.342,310.41 404.71,313.481C405.822,314.933 406.742,316.134 407.441,317.048C408.078,317.897 408.417,318.377 408.389,318.399C408.362,318.422 407.968,317.984 407.283,317.174C406.596,316.366 405.618,315.182 404.421,313.711C402.029,310.766 398.764,306.664 395.247,302.061C391.733,297.461 388.643,293.223 386.468,290.113C385.38,288.559 384.514,287.291 383.932,286.403C383.348,285.516 383.039,285.016 383.07,284.996Z" style="fill:rgb(12,43,52);fill-rule:nonzero;"/>
        <path d="M377.852,304.752C377.756,304.858 376.47,303.862 374.981,302.527C373.491,301.19 372.361,300.021 372.456,299.914C372.552,299.806 373.838,300.802 375.328,302.138C376.818,303.474 377.949,304.644 377.852,304.752Z" style="fill:rgb(12,43,52);fill-rule:nonzero;"/>
        <path d="M374.341,316.023C374.46,316.103 373.66,317.497 372.554,319.135C371.448,320.774 370.453,322.037 370.334,321.957C370.215,321.876 371.016,320.483 372.122,318.843C373.229,317.206 374.222,315.942 374.341,316.023Z" style="fill:rgb(12,43,52);fill-rule:nonzero;"/>
        <path d="M379.269,331.572C379.159,331.664 378.252,330.765 377.245,329.565C376.238,328.364 375.511,327.315 375.62,327.223C375.731,327.131 376.637,328.029 377.644,329.23C378.652,330.431 379.378,331.479 379.269,331.572Z" style="fill:rgb(12,43,52);fill-rule:nonzero;"/>
        <path d="M369.751,341.544C369.832,341.663 368.829,342.482 367.512,343.373C366.195,344.263 365.062,344.889 364.982,344.77C364.901,344.651 365.904,343.833 367.221,342.941C368.537,342.05 369.671,341.424 369.751,341.544Z" style="fill:rgb(12,43,52);fill-rule:nonzero;"/>
        <path d="M383.061,344.179C382.991,344.295 381.63,343.51 380.399,342.048C379.158,340.593 378.609,339.123 378.734,339.073C378.87,339.005 379.605,340.318 380.796,341.712C381.976,343.115 383.151,344.055 383.061,344.179Z" style="fill:rgb(12,43,52);fill-rule:nonzero;"/>
        <path d="M395.469,334.758C395.563,334.868 394.416,335.998 392.91,337.281C391.404,338.564 390.107,339.516 390.013,339.406C389.92,339.297 391.066,338.168 392.573,336.884C394.079,335.601 395.376,334.649 395.469,334.758Z" style="fill:rgb(12,43,52);fill-rule:nonzero;"/>
        <path d="M369.934,352.956C369.86,353.072 368.745,352.465 367.666,351.354C366.581,350.249 366.001,349.122 366.118,349.049C366.244,348.967 366.995,349.928 368.038,350.991C369.076,352.059 370.019,352.833 369.934,352.956Z" style="fill:rgb(12,43,52);fill-rule:nonzero;"/>
        <path d="M397.682,325.865C397.734,325.995 396.535,326.572 394.941,326.911C393.347,327.256 392.017,327.221 392.01,327.083C392,326.934 393.281,326.738 394.831,326.402C396.383,326.072 397.631,325.726 397.682,325.865Z" style="fill:rgb(12,43,52);fill-rule:nonzero;"/>
        <path d="M388.44,315.346C388.577,315.401 388.071,316.971 387.461,318.904C386.932,320.572 386.494,321.972 386.293,322.298L386.182,322.271C386.214,322.213 386.241,322.187 386.259,322.191C386.279,322.196 386.29,322.23 386.294,322.298L386.182,322.27C386.157,321.889 386.43,320.432 386.965,318.748C387.58,316.793 388.31,315.294 388.44,315.346Z" style="fill:rgb(12,43,52);fill-rule:nonzero;"/>
        <path d="M392.331,308.67C392.247,308.787 390.922,307.97 389.372,306.848C387.822,305.725 386.633,304.721 386.718,304.605C386.802,304.488 388.127,305.303 389.677,306.426C391.228,307.548 392.416,308.553 392.331,308.67Z" style="fill:rgb(12,43,52);fill-rule:nonzero;"/>
        <path d="M384.393,293.967C384.515,294.038 383.912,295.289 382.912,296.669C381.914,298.051 380.915,299.014 380.81,298.922C380.699,298.825 381.508,297.724 382.491,296.364C383.475,295.006 384.267,293.892 384.393,293.967Z" style="fill:rgb(12,43,52);fill-rule:nonzero;"/>
        <path d="M372.175,291.971C372.033,291.96 372.041,290.442 372.197,288.583C372.352,286.723 372.593,285.225 372.737,285.238C372.88,285.25 372.87,286.766 372.716,288.627C372.561,290.485 372.319,291.983 372.175,291.971Z" style="fill:rgb(12,43,52);fill-rule:nonzero;"/>
        <path d="M367.427,314.008C367.284,314.01 367.14,312.38 367.106,310.365C367.073,308.35 367.162,306.715 367.306,306.713C367.45,306.711 367.593,308.341 367.626,310.356C367.66,312.371 367.571,314.006 367.427,314.008Z" style="fill:rgb(12,43,52);fill-rule:nonzero;"/>
        <path d="M366.762,335.153C366.623,335.192 366.223,334.22 365.868,332.983C365.514,331.745 365.338,330.71 365.476,330.67C365.615,330.631 366.014,331.601 366.369,332.84C366.724,334.077 366.9,335.113 366.762,335.153Z" style="fill:rgb(12,43,52);fill-rule:nonzero;"/>
        <path d="M383.598,275.479C383.686,275.6 382.444,276.637 381.025,278.026C379.599,279.409 378.531,280.624 378.411,280.532C378.301,280.451 379.205,279.066 380.661,277.653C382.112,276.235 383.519,275.366 383.598,275.479Z" style="fill:rgb(12,43,52);fill-rule:nonzero;"/>
        <path d="M376.45,273.09C376.306,273.085 376.252,271.602 376.33,269.78C376.408,267.958 376.586,266.485 376.731,266.491C376.874,266.498 376.928,267.979 376.85,269.802C376.773,271.625 376.593,273.097 376.45,273.09Z" style="fill:rgb(12,43,52);fill-rule:nonzero;"/>
        <path d="M393.971,270.712C393.874,270.824 392.692,269.951 391.199,268.936C389.709,267.918 388.465,267.135 388.535,267.005C388.598,266.88 389.975,267.468 391.493,268.506C393.013,269.54 394.064,270.607 393.971,270.712Z" style="fill:rgb(12,43,52);fill-rule:nonzero;"/>
        <path d="M390.165,283.192C390.021,283.195 389.873,281.627 389.834,279.69C389.796,277.753 389.881,276.18 390.025,276.177C390.168,276.174 390.317,277.742 390.355,279.679C390.394,281.616 390.309,283.189 390.165,283.192Z" style="fill:rgb(12,43,52);fill-rule:nonzero;"/>
        <path d="M400.427,290.493C400.372,290.631 399.05,290.222 397.4,289.83C395.75,289.431 394.387,289.197 394.401,289.048C394.41,288.91 395.829,288.915 397.521,289.324C399.213,289.726 400.481,290.365 400.427,290.493Z" style="fill:rgb(12,43,52);fill-rule:nonzero;"/>
        <path d="M401.124,283.051C400.98,283.052 400.852,281.734 400.837,280.108C400.824,278.48 400.928,277.161 401.072,277.16C401.216,277.158 401.344,278.476 401.359,280.103C401.372,281.73 401.268,283.049 401.124,283.051Z" style="fill:rgb(12,43,52);fill-rule:nonzero;"/>
        <path d="M408.94,295.539C408.796,295.546 408.607,293.886 408.516,291.834C408.425,289.781 408.469,288.112 408.613,288.105C408.756,288.099 408.946,289.757 409.036,291.811C409.126,293.863 409.083,295.532 408.94,295.539Z" style="fill:rgb(12,43,52);fill-rule:nonzero;"/>
        <path d="M402.932,299.765C402.825,299.861 402.013,299.123 401.12,298.118C400.228,297.112 399.591,296.219 399.699,296.124C399.806,296.028 400.618,296.766 401.51,297.772C402.403,298.777 403.039,299.67 402.932,299.765Z" style="fill:rgb(12,43,52);fill-rule:nonzero;"/>
        <path d="M410.532,305.518C410.542,305.661 409.232,305.876 407.606,305.998C405.979,306.119 404.652,306.101 404.641,305.958C404.63,305.814 405.94,305.599 407.567,305.478C409.194,305.356 410.521,305.375 410.532,305.518Z" style="fill:rgb(12,43,52);fill-rule:nonzero;"/>
        <path d="M416.254,308.444C416.111,308.45 415.939,306.977 415.869,305.157C415.801,303.336 415.862,301.855 416.006,301.849C416.15,301.844 416.322,303.316 416.39,305.137C416.458,306.958 416.398,308.439 416.254,308.444Z" style="fill:rgb(12,43,52);fill-rule:nonzero;"/>
        <path d="M421.896,319.391C421.897,319.531 420.263,319.643 418.265,319.416C416.266,319.193 414.699,318.72 414.731,318.585C414.762,318.44 416.356,318.679 418.324,318.898C420.289,319.123 421.897,319.243 421.896,319.391Z" style="fill:rgb(12,43,52);fill-rule:nonzero;"/>
        <path d="M431.588,314.34C431.724,314.387 431.335,315.872 430.72,317.655C430.104,319.438 429.494,320.846 429.359,320.799C429.223,320.752 429.612,319.268 430.228,317.485C430.843,315.702 431.452,314.294 431.588,314.34Z" style="fill:rgb(12,43,52);fill-rule:nonzero;"/>
        <path d="M438.586,305.504C438.548,305.642 437.165,305.381 435.498,304.921C433.831,304.46 432.511,303.973 432.549,303.835C432.588,303.696 433.97,303.958 435.637,304.419C437.304,304.879 438.624,305.365 438.586,305.504Z" style="fill:rgb(12,43,52);fill-rule:nonzero;"/>
        <path d="M444.201,308.865C444.296,308.972 443.326,309.99 442.034,311.136C440.742,312.284 439.617,313.126 439.522,313.018C439.426,312.911 440.396,311.894 441.688,310.747C442.98,309.6 444.105,308.757 444.201,308.865Z" style="fill:rgb(12,43,52);fill-rule:nonzero;"/>
        <path d="M446.455,300.584C446.325,300.629 445.74,299.216 445.411,297.372C445.077,295.527 445.133,294.001 445.272,293.997C445.421,293.99 445.596,295.474 445.924,297.279C446.245,299.085 446.597,300.538 446.455,300.584Z" style="fill:rgb(12,43,52);fill-rule:nonzero;"/>
        <path d="M457.155,298.685C457.245,298.804 455.761,300.071 454.048,301.747C452.328,303.418 451.026,304.87 450.909,304.775C450.8,304.691 451.939,303.071 453.685,301.374C455.424,299.673 457.073,298.574 457.155,298.685Z" style="fill:rgb(12,43,52);fill-rule:nonzero;"/>
        <path d="M458.21,294.883C458.159,295.018 456.677,294.581 454.902,293.907C453.125,293.233 451.727,292.578 451.778,292.443C451.828,292.308 453.31,292.746 455.086,293.42C456.863,294.093 458.261,294.749 458.21,294.883Z" style="fill:rgb(12,43,52);fill-rule:nonzero;"/>
        <path d="M457.189,290.743C457.05,290.783 456.58,289.571 456.14,288.037C455.7,286.503 455.454,285.227 455.592,285.187C455.731,285.147 456.2,286.359 456.641,287.893C457.081,289.427 457.327,290.704 457.189,290.743Z" style="fill:rgb(12,43,52);fill-rule:nonzero;"/>
        <path d="M401.209,319.555C401.092,319.638 400.25,318.653 399.329,317.355C398.409,316.057 397.757,314.937 397.874,314.854C397.992,314.77 398.833,315.756 399.754,317.054C400.675,318.352 401.327,319.471 401.209,319.555Z" style="fill:rgb(12,43,52);fill-rule:nonzero;"/>
        <path d="M477.45,369.931C477.441,369.932 477.414,369.788 477.372,369.505C477.329,369.198 477.272,368.78 477.197,368.246C477.048,367.112 476.833,365.485 476.559,363.402C475.994,359.197 475.179,353.111 473.969,345.624C472.755,338.138 471.153,329.246 468.867,319.486C468.612,318.245 468.242,317.077 467.669,315.953C467.056,314.858 466.243,313.867 465.272,313.03C463.296,311.412 460.657,310.463 457.992,310.673C456.668,310.76 455.334,311.086 454.135,311.719C452.934,312.32 451.842,313.209 450.7,314.038C448.439,315.718 446.144,317.424 443.823,319.151C434.562,326.098 425.889,332.912 418.157,339.298C410.404,345.667 403.665,351.668 398.011,356.742C395.149,359.202 392.099,361.173 389.005,361.489C387.482,361.684 386.039,361.419 384.813,360.985C383.583,360.534 382.564,359.898 381.702,359.272C379.989,357.996 378.867,356.77 378.099,355.962C377.738,355.561 377.455,355.248 377.247,355.017C377.06,354.8 376.967,354.687 376.974,354.681C376.98,354.674 377.086,354.776 377.286,354.981C377.503,355.203 377.797,355.504 378.174,355.889C378.964,356.673 380.109,357.872 381.822,359.107C382.681,359.714 383.693,360.326 384.897,360.751C386.098,361.16 387.496,361.403 388.972,361.2C391.964,360.869 394.943,358.925 397.772,356.463C403.378,351.367 410.113,345.319 417.851,338.928C425.573,332.516 434.244,325.686 443.51,318.734C445.833,317.007 448.129,315.301 450.393,313.621C451.529,312.798 452.622,311.903 453.906,311.258C455.165,310.596 456.569,310.254 457.958,310.164C460.757,309.949 463.522,310.946 465.591,312.649C466.609,313.528 467.459,314.57 468.1,315.721C468.697,316.886 469.088,318.159 469.333,319.377C471.598,329.159 473.164,338.067 474.332,345.566C475.497,353.067 476.257,359.163 476.76,363.377C476.993,365.465 477.175,367.096 477.301,368.233C477.354,368.77 477.395,369.19 477.425,369.499C477.451,369.784 477.458,369.93 477.45,369.931Z" style="fill:rgb(12,43,52);fill-rule:nonzero;"/>
        <path d="M489.134,369.374C489.136,369.409 488.778,369.464 488.129,369.532C487.481,369.6 486.54,369.678 485.378,369.759C483.053,369.923 479.838,370.089 476.288,370.243C472.806,370.393 469.659,370.528 467.198,370.634C466.126,370.673 465.208,370.708 464.441,370.736C463.789,370.753 463.427,370.744 463.425,370.709C463.422,370.673 463.779,370.612 464.426,370.534C465.074,370.454 466.013,370.363 467.174,370.266C469.497,370.073 472.712,369.878 476.265,369.723C479.747,369.596 482.897,369.481 485.36,369.392C486.431,369.368 487.35,369.346 488.118,369.33C488.77,369.324 489.131,369.338 489.134,369.374Z" style="fill:rgb(12,43,52);fill-rule:nonzero;"/>
        <path d="M463.506,320.431C463.618,320.506 462.027,322.964 459.589,325.612C457.159,328.269 454.848,330.065 454.763,329.962C454.662,329.845 456.8,327.89 459.205,325.26C461.618,322.639 463.382,320.341 463.506,320.431Z" style="fill:rgb(12,43,52);fill-rule:nonzero;"/>
        <path d="M464.474,323.468C464.543,323.598 462.591,324.771 460.208,326.247C457.821,327.719 455.899,328.94 455.814,328.819C455.732,328.706 457.532,327.286 459.934,325.804C462.333,324.319 464.409,323.344 464.474,323.468Z" style="fill:rgb(12,43,52);fill-rule:nonzero;"/>
        <path d="M548.722,371.953C548.72,371.97 548.509,371.965 548.111,371.94C547.657,371.903 547.079,371.857 546.368,371.8C544.789,371.651 542.62,371.445 539.97,371.193C534.512,370.625 527.086,369.85 518.88,368.994C510.645,368.13 503.201,367.172 497.792,366.904C495.088,366.761 492.896,366.776 491.381,366.827C490.67,366.858 490.093,366.883 489.638,366.904C489.24,366.923 489.029,366.923 489.027,366.905C489.025,366.887 489.232,366.851 489.629,366.799C490.026,366.742 490.613,366.687 491.37,366.625C492.887,366.511 495.09,366.44 497.808,366.536C503.251,366.712 510.699,367.612 518.934,368.476C527.133,369.391 534.553,370.218 540.007,370.827C542.651,371.147 544.814,371.409 546.389,371.599C547.096,371.696 547.669,371.774 548.121,371.836C548.517,371.895 548.723,371.935 548.722,371.953Z" style="fill:rgb(51,88,99);fill-rule:nonzero;"/>
        <path d="M547.452,383.128C547.31,383.111 547.762,378.094 548.463,371.924C549.163,365.752 549.848,360.762 549.991,360.779C550.134,360.795 549.681,365.81 548.98,371.983C548.28,378.153 547.595,383.143 547.452,383.128Z" style="fill:rgb(51,88,99);fill-rule:nonzero;"/>
    </g>
</svg>
