<?xml version="1.0" encoding="UTF-8" standalone="no"?>
<!DOCTYPE svg PUBLIC "-//W3C//DTD SVG 1.1//EN" "http://www.w3.org/Graphics/SVG/1.1/DTD/svg11.dtd">
<svg width="100%" height="100%" viewBox="0 0 500 500" version="1.1" xmlns="http://www.w3.org/2000/svg" xmlns:xlink="http://www.w3.org/1999/xlink" xml:space="preserve" xmlns:serif="http://www.serif.com/" style="fill-rule:evenodd;clip-rule:evenodd;stroke-linejoin:round;stroke-miterlimit:2;">
    <g id="freepik--background-complete--inject-2">
        <rect x="0" y="382.4" width="500" height="0.25" style="fill:rgb(235,235,235);"/>
        <rect x="416.78" y="398.49" width="33.12" height="0.25" style="fill:rgb(235,235,235);"/>
        <rect x="322.53" y="401.21" width="8.69" height="0.25" style="fill:rgb(235,235,235);"/>
        <rect x="396.59" y="389.21" width="19.19" height="0.25" style="fill:rgb(235,235,235);"/>
        <rect x="52.46" y="390.89" width="43.19" height="0.25" style="fill:rgb(235,235,235);"/>
        <rect x="104.56" y="390.89" width="6.33" height="0.25" style="fill:rgb(235,235,235);"/>
        <rect x="131.47" y="395.11" width="93.68" height="0.25" style="fill:rgb(235,235,235);"/>
        <path d="M237,337.8L43.91,337.8C40.781,337.795 38.21,335.219 38.21,332.09L38.21,60.66C38.237,57.55 40.8,55.005 43.91,55L237,55C240.132,55 242.71,57.578 242.71,60.71L242.71,332.09C242.71,335.222 240.132,337.8 237,337.8ZM43.91,55.2C40.919,55.205 38.46,57.669 38.46,60.66L38.46,332.09C38.46,335.081 40.919,337.545 43.91,337.55L237,337.55C239.993,337.545 242.455,335.083 242.46,332.09L242.46,60.66C242.455,57.667 239.993,55.205 237,55.2L43.91,55.2Z" style="fill:rgb(235,235,235);fill-rule:nonzero;"/>
        <path d="M453.31,337.8L260.21,337.8C257.08,337.795 254.505,335.22 254.5,332.09L254.5,60.66C254.533,57.549 257.098,55.005 260.21,55L453.31,55C456.416,55.011 458.973,57.554 459,60.66L459,332.09C459,335.215 456.435,337.789 453.31,337.8ZM260.21,55.2C257.217,55.205 254.755,57.667 254.75,60.66L254.75,332.09C254.755,335.083 257.217,337.545 260.21,337.55L453.31,337.55C456.303,337.545 458.765,335.083 458.77,332.09L458.77,60.66C458.765,57.667 456.303,55.205 453.31,55.2L260.21,55.2Z" style="fill:rgb(235,235,235);fill-rule:nonzero;"/>
        <g transform="matrix(-1,-7.65714e-16,7.65714e-16,-1,589.96,331.3)">
            <rect x="179.13" y="88.61" width="231.69" height="154.07" style="fill:rgb(230,230,230);"/>
        </g>
        <g transform="matrix(-1,-7.65714e-16,7.65714e-16,-1,582.79,331.3)">
            <rect x="175.55" y="88.61" width="231.69" height="154.07" style="fill:rgb(245,245,245);"/>
        </g>
        <g transform="matrix(-3.82857e-16,1,-1,-3.82857e-16,457.04,-125.75)">
            <rect x="221.59" y="56.24" width="139.61" height="218.82" style="fill:white;"/>
        </g>
        <g transform="matrix(-3.82857e-16,1,-1,-3.82857e-16,348.99,-17.69)">
            <rect x="113.54" y="164.29" width="139.61" height="2.71" style="fill:rgb(230,230,230);"/>
        </g>
        <g transform="matrix(-1,-7.65714e-16,7.65714e-16,-1,582.79,393.82)">
            <rect x="178.21" y="192.06" width="226.37" height="9.71" style="fill:rgb(245,245,245);"/>
        </g>
        <g opacity="0.4">
            <rect x="168.36" y="81.01" width="21.87" height="130.34" style="fill:rgb(230,230,230);"/>
            <g transform="matrix(-1,-7.65714e-16,7.65714e-16,-1,391.32,281.89)">
                <rect x="190.24" y="81.01" width="10.84" height="119.87" style="fill:rgb(245,245,245);"/>
            </g>
            <rect x="201.08" y="81.01" width="21.87" height="130.34" style="fill:rgb(230,230,230);"/>
            <g transform="matrix(-1,-7.65714e-16,7.65714e-16,-1,456.75,281.89)">
                <rect x="222.95" y="81.01" width="10.84" height="119.87" style="fill:rgb(245,245,245);"/>
            </g>
            <rect x="233.8" y="81.01" width="21.87" height="130.34" style="fill:rgb(230,230,230);"/>
            <g transform="matrix(-1,-7.65714e-16,7.65714e-16,-1,522.19,281.89)">
                <rect x="255.67" y="81.01" width="10.84" height="119.87" style="fill:rgb(245,245,245);"/>
            </g>
            <rect x="266.52" y="81.01" width="21.87" height="130.34" style="fill:rgb(230,230,230);"/>
            <g transform="matrix(-1,-7.65714e-16,7.65714e-16,-1,587.63,281.89)">
                <rect x="288.39" y="81.01" width="10.84" height="119.87" style="fill:rgb(245,245,245);"/>
            </g>
            <rect x="299.24" y="81.01" width="21.87" height="130.34" style="fill:rgb(230,230,230);"/>
            <g transform="matrix(-1,-7.65714e-16,7.65714e-16,-1,653.06,281.89)">
                <rect x="321.11" y="81.01" width="10.84" height="119.87" style="fill:rgb(245,245,245);"/>
            </g>
            <rect x="331.95" y="81.01" width="21.87" height="130.34" style="fill:rgb(230,230,230);"/>
            <g transform="matrix(-1,-7.65714e-16,7.65714e-16,-1,718.5,281.89)">
                <rect x="353.83" y="81.01" width="10.84" height="119.87" style="fill:rgb(245,245,245);"/>
            </g>
            <rect x="364.67" y="81.01" width="21.87" height="130.34" style="fill:rgb(230,230,230);"/>
            <g transform="matrix(-1,-7.65714e-16,7.65714e-16,-1,783.94,281.89)">
                <rect x="386.55" y="81.01" width="10.84" height="119.87" style="fill:rgb(245,245,245);"/>
            </g>
            <rect x="397.39" y="81.01" width="21.87" height="130.34" style="fill:rgb(230,230,230);"/>
        </g>
        <g transform="matrix(-1,-7.65714e-16,7.65714e-16,-1,216.87,659.4)">
            <rect x="82.79" y="277" width="51.29" height="105.4" style="fill:rgb(235,235,235);"/>
        </g>
        <path d="M92.53,382.4L82.79,382.4L82.79,360.93L102.75,360.93L92.53,382.4Z" style="fill:rgb(245,245,245);fill-rule:nonzero;"/>
        <g transform="matrix(-1,-7.65714e-16,7.65714e-16,-1,802.15,659.4)">
            <rect x="375.43" y="277" width="51.29" height="105.4" style="fill:rgb(235,235,235);"/>
        </g>
        <g transform="matrix(-1,-7.65714e-16,7.65714e-16,-1,466.72,646.23)">
            <rect x="82.79" y="277" width="301.14" height="92.23" style="fill:rgb(245,245,245);"/>
        </g>
        <path d="M373.92,343.21L284.65,343.21C284.2,343.21 283.83,342.84 283.83,342.39L283.83,284C283.83,283.55 284.2,283.18 284.65,283.18L301.13,283.18C301.307,283.176 301.48,283.233 301.62,283.34C304.07,285.131 306.786,286.525 309.67,287.47C313.147,288.621 316.787,289.202 320.45,289.19L338.11,289.19C344.864,289.309 351.484,287.269 357,283.37C357.137,283.264 357.307,283.208 357.48,283.21L373.97,283.21C374.42,283.21 374.79,283.58 374.79,284.03L374.79,342.39C374.79,342.391 374.79,342.391 374.79,342.392C374.79,342.841 374.42,343.212 373.97,343.212C373.953,343.212 373.937,343.211 373.92,343.21ZM285.47,341.57L373.1,341.57L373.1,284.85L357.7,284.85C351.96,288.85 345.106,290.95 338.11,290.85L320.45,290.85C316.61,290.862 312.794,290.251 309.15,289.04C306.192,288.069 303.4,286.653 300.87,284.84L285.47,284.84L285.47,341.57Z" style="fill:rgb(230,230,230);fill-rule:nonzero;"/>
        <path d="M278,343.21L188.72,343.21C188.27,343.21 187.9,342.84 187.9,342.39L187.9,284C187.9,283.55 188.27,283.18 188.72,283.18L204.31,283.18C204.487,283.176 204.66,283.233 204.8,283.34C207.232,285.13 209.932,286.524 212.8,287.47C216.277,288.621 219.917,289.202 223.58,289.19L241.24,289.19C247.971,289.289 254.562,287.239 260.05,283.34C260.192,283.235 260.364,283.179 260.54,283.18L278,283.18C278.003,283.18 278.007,283.18 278.01,283.18C278.454,283.18 278.82,283.546 278.82,283.99C278.82,283.993 278.82,283.997 278.82,284L278.82,342.36C278.82,342.37 278.821,342.38 278.821,342.39C278.821,342.84 278.45,343.21 278.001,343.21C278,343.21 278,343.21 278,343.21ZM189.55,341.57L277.18,341.57L277.18,284.85L260.86,284.85C255.127,288.849 248.28,290.948 241.29,290.85L223.63,290.85C219.79,290.862 215.974,290.251 212.33,289.04C209.367,288.076 206.57,286.659 204.04,284.84L189.54,284.84L189.55,341.57Z" style="fill:rgb(230,230,230);fill-rule:nonzero;"/>
        <path d="M182.07,343.21L92.8,343.21C92.35,343.21 91.98,342.84 91.98,342.39L91.98,284C91.98,283.997 91.98,283.993 91.98,283.99C91.98,283.546 92.346,283.18 92.79,283.18C92.793,283.18 92.797,283.18 92.8,283.18L108.39,283.18C108.563,283.178 108.733,283.234 108.87,283.34C111.304,285.126 114.004,286.52 116.87,287.47C120.35,288.621 123.994,289.202 127.66,289.19L145.32,289.19C152.057,289.288 158.654,287.238 164.15,283.34C164.29,283.233 164.463,283.176 164.64,283.18L182.02,283.18C182.47,283.18 182.84,283.55 182.84,284L182.84,342.36C182.857,342.803 182.512,343.183 182.07,343.21ZM93.62,341.57L181.25,341.57L181.25,284.85L165,284.85C159.263,288.849 152.413,290.948 145.42,290.85L127.71,290.85C123.87,290.864 120.053,290.253 116.41,289.04C113.447,288.076 110.65,286.659 108.12,284.84L93.62,284.84L93.62,341.57Z" style="fill:rgb(230,230,230);fill-rule:nonzero;"/>
        <path d="M374.19,382.4L383.93,382.4L383.93,360.93L363.98,360.93L374.19,382.4Z" style="fill:rgb(245,245,245);fill-rule:nonzero;"/>
        <path d="M143.94,259.34L135.85,259.34C135.91,253.74 135.85,239.52 135.28,206.95C134.28,147.95 132.41,144.31 132.41,144.31L142,173.45C144.277,180.303 145.603,187.436 145.94,194.65C147,217.37 143,235.51 143.94,259.34Z" style="fill:rgb(230,230,230);fill-rule:nonzero;"/>
        <path d="M150.09,164.66C160.88,148.33 182.42,139.81 204.44,131.79C213.08,128.64 188.82,167.71 171.18,185.43C157.48,199.19 144.18,198.88 140.25,212.43C139.49,196.69 140.79,178.73 150.09,164.66Z" style="fill:rgb(230,230,230);fill-rule:nonzero;"/>
        <path d="M137.73,154.18C129.27,135.08 107.9,110.31 83.88,92.86C74.45,86.01 97.72,144.86 114.13,168.92C126.91,187.68 138.83,199.1 140.69,212.48C148.75,195.74 146.18,173.27 137.73,154.18Z" style="fill:rgb(230,230,230);fill-rule:nonzero;"/>
        <path d="M138.53,277C147.97,277 155.872,269.535 156.41,260.11L158,243.92L119.06,243.92L120.64,260.11C121.183,269.537 129.088,277 138.53,277Z" style="fill:rgb(240,240,240);fill-rule:nonzero;"/>
        <path d="M116.54,244.01L160.52,244.01L161.78,238.26L115.28,238.26L116.54,244.01Z" style="fill:rgb(240,240,240);fill-rule:nonzero;"/>
        <path d="M118.71,253.87L158.35,253.87L159.49,248.12L117.57,248.12L118.71,253.87Z" style="fill:rgb(240,240,240);fill-rule:nonzero;"/>
    </g>
    <g id="freepik--Shadow--inject-2">
        <ellipse id="freepik--path--inject-2" cx="250" cy="416.24" rx="193.89" ry="11.32" style="fill:rgb(245,245,245);"/>
    </g>
    <g id="freepik--Table--inject-2">
        <rect x="94.71" y="318.33" width="310.57" height="35.16" style="fill:rgb(133,215,239);"/>
        <rect x="338.67" y="318.33" width="66.62" height="35.16" style="fill-opacity:0.3;"/>
        <rect x="94.71" y="353.49" width="34.29" height="62.75" style="fill:rgb(133,215,239);"/>
        <path d="M94.72,353.49L94.72,357L119,364.33L119,416.24L129,416.24L129,353.49L94.72,353.49Z" style="fill-opacity:0.3;fill-rule:nonzero;"/>
        <rect x="371" y="353.49" width="34.29" height="62.75" style="fill:rgb(133,215,239);"/>
        <rect x="371" y="353.49" width="34.29" height="62.75" style="fill-opacity:0.2;"/>
        <path d="M371,353.49L371,357L395.29,364.33L395.29,416.24L405.29,416.24L405.29,353.49L371,353.49Z" style="fill-opacity:0.3;fill-rule:nonzero;"/>
        <rect x="304.38" y="353.49" width="34.29" height="62.75" style="fill:rgb(133,215,239);"/>
        <path d="M304.38,353.49L304.38,357L328.67,364.33L328.67,416.24L338.67,416.24L338.67,353.49L304.38,353.49Z" style="fill-opacity:0.3;fill-rule:nonzero;"/>
        <rect x="161.33" y="353.49" width="34.29" height="62.75" style="fill:rgb(133,215,239);"/>
        <rect x="161.33" y="353.49" width="34.29" height="62.75" style="fill-opacity:0.2;"/>
        <path d="M161.33,353.49L161.33,357L185.62,364.33L185.62,416.24L195.62,416.24L195.62,353.49L161.33,353.49Z" style="fill-opacity:0.3;fill-rule:nonzero;"/>
    </g>
    <g id="freepik--Character--inject-2">
        <path d="M362.48,311.42L172.6,311.42C172.589,311.42 172.579,311.42 172.568,311.42C170.22,311.42 168.288,309.488 168.288,307.14C168.288,307.033 168.292,306.927 168.3,306.82L176.12,182.73C176.324,180.181 178.453,178.178 181.01,178.13L370.88,178.13C370.891,178.13 370.901,178.13 370.912,178.13C373.26,178.13 375.192,180.062 375.192,182.41C375.192,182.517 375.188,182.623 375.18,182.73L367.36,306.82C367.156,309.366 365.033,311.367 362.48,311.42Z" style="fill:rgb(38,50,56);fill-rule:nonzero;"/>
        <path d="M362.48,311.42L172.6,311.42C172.589,311.42 172.579,311.42 172.568,311.42C170.22,311.42 168.288,309.488 168.288,307.14C168.288,307.033 168.292,306.927 168.3,306.82L176.12,182.73C176.324,180.181 178.453,178.178 181.01,178.13L370.88,178.13C370.891,178.13 370.901,178.13 370.912,178.13C373.26,178.13 375.192,180.062 375.192,182.41C375.192,182.517 375.188,182.623 375.18,182.73L367.36,306.82C367.156,309.366 365.033,311.367 362.48,311.42Z" style="fill-opacity:0.6;fill-rule:nonzero;"/>
        <path d="M361.06,311.42L171.19,311.42C171.176,311.42 171.162,311.42 171.148,311.42C168.8,311.42 166.868,309.488 166.868,307.14C166.868,307.033 166.872,306.927 166.88,306.82L174.7,182.73C174.904,180.181 177.033,178.178 179.59,178.13L369.46,178.13C369.474,178.13 369.489,178.13 369.503,178.13C371.845,178.13 373.773,180.057 373.773,182.4C373.773,182.51 373.769,182.62 373.76,182.73L365.94,306.82C365.736,309.366 363.613,311.367 361.06,311.42Z" style="fill:rgb(38,50,56);fill-rule:nonzero;"/>
        <path d="M360.82,313L134.89,313C132.771,312.981 130.821,314.186 129.89,316.09C129.789,316.302 129.736,316.535 129.736,316.77C129.736,317.637 130.449,318.35 131.316,318.35C131.324,318.35 131.332,318.35 131.34,318.35L364.32,318.35C364.328,318.35 364.336,318.35 364.344,318.35C365.211,318.35 365.924,317.637 365.924,316.77C365.924,316.535 365.871,316.302 365.77,316.09C364.851,314.199 362.923,312.995 360.82,313Z" style="fill:rgb(38,50,56);fill-rule:nonzero;"/>
        <path d="M360.82,313L328.69,313C326.587,312.993 324.657,314.197 323.74,316.09C323.639,316.302 323.586,316.535 323.586,316.77C323.586,317.637 324.299,318.35 325.166,318.35C325.171,318.35 325.175,318.35 325.18,318.35L364.32,318.35C364.328,318.35 364.336,318.35 364.344,318.35C365.211,318.35 365.924,317.637 365.924,316.77C365.924,316.535 365.871,316.302 365.77,316.09C364.851,314.199 362.923,312.995 360.82,313Z" style="fill-opacity:0.6;fill-rule:nonzero;"/>
        <path d="M340.9,316.9L332.6,316.9C332.203,316.895 331.88,316.567 331.88,316.17C331.88,315.773 332.203,315.445 332.6,315.44L340.9,315.44C341.3,315.44 341.63,315.77 341.63,316.17C341.63,316.57 341.3,316.9 340.9,316.9Z" style="fill:rgb(64,123,255);fill-rule:nonzero;"/>
        <path d="M234.17,316.9L225.88,316.9C225.48,316.9 225.15,316.57 225.15,316.17C225.15,315.77 225.48,315.44 225.88,315.44L234.17,315.44C234.57,315.44 234.9,315.77 234.9,316.17C234.9,316.57 234.57,316.9 234.17,316.9Z" style="fill:white;fill-opacity:0.7;fill-rule:nonzero;"/>
        <path d="M350.09,316.04C350.09,315.709 349.821,315.44 349.49,315.44L344.06,315.44C343.729,315.44 343.46,315.709 343.46,316.04L343.46,316.3C343.46,316.631 343.729,316.9 344.06,316.9L349.49,316.9C349.821,316.9 350.09,316.631 350.09,316.3L350.09,316.04Z" style="fill:rgb(64,123,255);"/>
        <path d="M171.16,302.34L178.42,187.21C178.497,186.22 179.327,185.442 180.32,185.43L367.81,185.43C367.818,185.43 367.827,185.43 367.835,185.43C368.74,185.43 369.485,186.175 369.485,187.08C369.485,187.123 369.483,187.167 369.48,187.21L362.23,302.34C362.148,303.332 361.315,304.108 360.32,304.12L172.84,304.12C172.835,304.12 172.831,304.12 172.826,304.12C171.91,304.12 171.156,303.366 171.156,302.45C171.156,302.413 171.158,302.377 171.16,302.34Z" style="fill:white;fill-rule:nonzero;"/>
        <path d="M277.82,181.88L215.37,300.58L169.3,300.58C169.292,300.58 169.283,300.58 169.275,300.58C168.364,300.58 167.615,299.831 167.615,298.92C167.615,298.877 167.617,298.833 167.62,298.79L174.88,183.67C174.957,182.678 175.785,181.898 176.78,181.88L277.82,181.88Z" style="fill:rgb(64,123,255);fill-opacity:0.1;fill-rule:nonzero;"/>
        <path d="M332.51,181.88L270.06,300.58L255.5,300.58L317.95,181.88L332.51,181.88Z" style="fill:rgb(64,123,255);fill-opacity:0.1;fill-rule:nonzero;"/>
        <path d="M365.94,183.67L358.68,298.79C358.608,299.784 357.777,300.567 356.78,300.58L285.78,300.58L348.23,181.88L364.23,181.88C364.245,181.88 364.26,181.879 364.274,181.879C365.19,181.879 365.944,182.633 365.944,183.549C365.944,183.59 365.943,183.63 365.94,183.67Z" style="fill:rgb(64,123,255);fill-opacity:0.1;fill-rule:nonzero;"/>
        <path d="M275.63,182C275.574,182.748 274.95,183.337 274.2,183.35C274.195,183.35 274.191,183.35 274.186,183.35C273.5,183.35 272.936,182.786 272.936,182.1C272.936,182.067 272.937,182.033 272.94,182C272.992,181.25 273.618,180.659 274.37,180.65C274.375,180.65 274.379,180.65 274.384,180.65C275.07,180.65 275.634,181.214 275.634,181.9C275.634,181.933 275.633,181.967 275.63,182Z" style="fill:white;fill-opacity:0.4;fill-rule:nonzero;"/>
        <path d="M244.65,154.39C239.18,160.65 236.02,179.84 240.07,189.28C244.12,198.72 197.13,208.17 235.9,223.51C274.67,238.85 305.68,221.06 294.46,205.17C283.24,189.28 295.67,162.82 282.68,156.17C270.94,150.11 255.61,141.84 244.65,154.39Z" style="fill:rgb(38,50,56);fill-rule:nonzero;"/>
        <path d="M233.06,231.66C231.01,238.66 228.83,245.66 226.57,252.66C224.31,259.66 221.96,266.58 219.47,273.53L218.52,276.15L218.04,277.46L217.89,277.85L217.65,278.44C217.5,278.82 217.27,279.23 217.07,279.62C216.093,281.405 214.634,282.881 212.86,283.88C211.25,284.754 209.452,285.228 207.62,285.26C205.051,285.272 202.504,284.773 200.13,283.79C198.187,283.001 196.305,282.069 194.5,281C187.943,276.968 181.934,272.108 176.62,266.54L180.93,261.46C182.38,262.39 183.93,263.38 185.43,264.31C186.93,265.24 188.5,266.14 190.02,267.03C192.998,268.773 196.073,270.346 199.23,271.74C200.668,272.374 202.153,272.899 203.67,273.31C204.719,273.658 205.829,273.787 206.93,273.69C207.21,273.69 207.16,273.53 206.93,273.62C206.7,273.71 206.45,273.97 206.44,273.94C206.43,273.91 206.44,273.94 206.44,273.88C206.445,273.86 206.445,273.84 206.44,273.82L206.52,273.57L206.9,272.28L207.67,269.68L213.78,248.68C215.86,241.68 218,234.68 220.2,227.68L233.06,231.66Z" style="fill:rgb(182,91,82);fill-rule:nonzero;"/>
        <path d="M180.62,261.3L169,257L173.61,269.28C173.61,269.28 181.81,270.46 184.99,266.15L182.4,262.68C181.951,262.059 181.333,261.58 180.62,261.3Z" style="fill:rgb(181,91,82);fill-rule:nonzero;"/>
        <path d="M158.75,260.57L163.17,270.64L173.66,269.26L169.04,256.98L158.75,260.57Z" style="fill:rgb(181,91,82);fill-rule:nonzero;"/>
        <path d="M224.58,213.55C219.26,214.9 215.58,236.77 215.58,236.77L230.23,246.77C230.23,246.77 244.23,224.71 240.18,218.87C235.88,212.74 232.33,211.58 224.58,213.55Z" style="fill:rgb(64,123,255);fill-rule:nonzero;"/>
        <path d="M224.58,213.55C219.26,214.9 215.58,236.77 215.58,236.77L230.23,246.77C230.23,246.77 244.23,224.71 240.18,218.87C235.88,212.74 232.33,211.58 224.58,213.55Z" style="fill:white;fill-opacity:0.5;fill-rule:nonzero;"/>
        <path d="M224.1,221.5L235.47,224.13L236.56,235.26C234.634,239.189 232.507,243.018 230.19,246.73L221.3,240.73C221.69,235.58 222.65,225 224.1,221.5Z" style="fill-opacity:0.2;fill-rule:nonzero;"/>
        <path d="M224.58,213.55C224.58,213.55 218.43,215.71 230.74,291.37L283.1,291.37C282.22,270.06 282.2,256.91 292.38,213.18C285.051,211.664 277.621,210.685 270.15,210.25C261.34,209.82 254.15,209.54 246.37,210.25C236.16,211.18 224.58,213.55 224.58,213.55Z" style="fill:rgb(64,123,255);fill-rule:nonzero;"/>
        <path d="M224.58,213.55C224.58,213.55 218.43,215.71 230.74,291.37L283.1,291.37C282.22,270.06 282.2,256.91 292.38,213.18C285.051,211.664 277.621,210.685 270.15,210.25C261.34,209.82 254.15,209.54 246.37,210.25C236.16,211.18 224.58,213.55 224.58,213.55Z" style="fill:white;fill-opacity:0.5;fill-rule:nonzero;"/>
        <path d="M280.06,233.48L286.82,239.24C285.38,246.89 284.41,253.24 283.82,258.93C282.53,253.25 279.31,237.83 280.06,233.48Z" style="fill-opacity:0.2;fill-rule:nonzero;"/>
        <path d="M267.79,183.47C266.29,191.12 264.79,205.14 270.15,210.25C270.15,210.25 265.15,221.71 251.9,221.71C238.65,221.71 246.37,210.25 246.37,210.25C254.9,208.25 254.68,201.88 253.2,195.94L267.79,183.47Z" style="fill:rgb(181,91,82);fill-rule:nonzero;"/>
        <path d="M268.45,207.39C267.19,209.94 263.13,215.77 251.79,217.85C251.475,217.908 251.149,217.843 250.88,217.67C248.76,216.19 247.44,213.06 248.37,209.43C248.4,209.322 248.415,209.211 248.415,209.1C248.415,208.419 247.855,207.86 247.175,207.86C247.016,207.86 246.858,207.89 246.71,207.95C245.839,208.315 245.002,208.756 244.21,209.27C244.036,209.385 243.895,209.544 243.8,209.73C242.97,211.29 239.61,218.93 249.75,223.64C249.912,223.709 250.084,223.75 250.26,223.76C256.26,223.88 266.75,222.7 273.38,210.76C273.621,210.32 273.578,209.776 273.27,209.38C272.379,208.405 271.344,207.572 270.2,206.91C270.003,206.784 269.774,206.717 269.541,206.717C269.08,206.717 268.657,206.978 268.45,207.39Z" style="fill:rgb(250,250,250);fill-rule:nonzero;"/>
        <path d="M271.23,238.87L257.73,238.48C257.728,238.48 257.726,238.48 257.724,238.48C257.175,238.48 256.724,238.029 256.724,237.48C256.724,237.443 256.726,237.407 256.73,237.37L256.86,235.7C256.94,235.121 257.446,234.689 258.03,234.7L271.53,235.09C271.532,235.09 271.535,235.09 271.537,235.09C272.086,235.09 272.537,235.541 272.537,236.09C272.537,236.13 272.535,236.17 272.53,236.21L272.4,237.87C272.32,238.449 271.814,238.881 271.23,238.87Z" style="fill:rgb(250,250,250);fill-rule:nonzero;"/>
        <path d="M261.84,188.56L253.2,195.93C253.571,197.312 253.818,198.724 253.94,200.15C257.19,199.68 261.67,196.1 262.02,192.69C262.211,191.314 262.15,189.914 261.84,188.56Z" style="fill-opacity:0.2;fill-rule:nonzero;"/>
        <path d="M277.87,169C275.46,181.57 274.71,186.94 267.47,192.61C256.58,201.15 241.67,195.43 240.29,182.4C239.04,170.67 243.19,152.09 256.29,148.65C257.752,148.261 259.259,148.065 260.772,148.065C270.344,148.065 278.222,155.942 278.222,165.515C278.222,166.685 278.104,167.853 277.87,169Z" style="fill:rgb(181,91,82);fill-rule:nonzero;"/>
        <path d="M270.72,159.7C269.16,167.57 268.79,178 276,178C283.21,178 288.86,165.73 282.64,156.12C276.42,146.51 271.63,155.06 270.72,159.7Z" style="fill:rgb(38,50,56);fill-rule:nonzero;"/>
        <path d="M283.18,160.67C283.18,169.23 272.4,165 267.63,161.31C262.86,157.62 262.63,158.02 253.79,158.01C244.95,158 243.18,157.39 240.57,153.17C237.96,148.95 238.2,146.17 244.08,147.06C249.96,147.95 245.02,141.95 249.4,138.62C253.78,135.29 258.97,136.13 264.96,143.73C270.95,151.33 283.18,145.84 283.18,160.67Z" style="fill:rgb(38,50,56);fill-rule:nonzero;"/>
        <g transform="matrix(0.281337,-0.959609,0.959609,0.281337,26.35,392.88)">
            <ellipse cx="275.47" cy="178.85" rx="7.3" ry="4.73" style="fill:white;"/>
        </g>
        <path d="M260,189.86C257.679,189.86 255.382,189.387 253.25,188.47C253.111,188.413 253.019,188.277 253.019,188.127C253.019,188.077 253.03,188.026 253.05,187.98C253.136,187.792 253.358,187.703 253.55,187.78C257.608,189.521 262.203,189.547 266.28,187.85C270.245,186.228 273.391,183.07 275,179.1C278,170.51 281.06,159.79 277.52,153.1C276.08,150.466 273.557,148.591 270.62,147.97C270.421,147.917 270.3,147.71 270.35,147.51C270.403,147.311 270.61,147.19 270.81,147.24C273.947,147.915 276.64,149.924 278.18,152.74C281.86,159.65 278.79,170.58 275.7,179.33C274.007,183.5 270.698,186.813 266.53,188.51C264.462,189.379 262.244,189.838 260,189.86Z" style="fill:white;fill-rule:nonzero;"/>
        <path d="M279.65,180.22C278.76,183.22 276.72,185.33 275.09,184.86C273.46,184.39 272.86,181.53 273.75,178.49C274.64,175.45 276.68,173.37 278.31,173.85C279.94,174.33 280.54,177.18 279.65,180.22Z" style="fill:rgb(64,123,255);fill-opacity:0.6;fill-rule:nonzero;"/>
        <g transform="matrix(0.981893,0.189438,-0.189438,0.981893,40.13,-44.34)">
            <path d="M255.34,187.67C255.34,186.969 254.771,186.4 254.07,186.4L250.08,186.4C249.379,186.4 248.81,186.969 248.81,187.67L248.81,187.9C248.81,188.601 249.379,189.17 250.08,189.17L254.07,189.17C254.771,189.17 255.34,188.601 255.34,187.9L255.34,187.67Z" style="fill:white;"/>
        </g>
        <path d="M249.17,170.05C249.17,170.05 246.85,174.26 244.65,176.15C245.84,177.6 248.24,177.32 248.24,177.32L249.17,170.05Z" style="fill:rgb(160,39,36);fill-rule:nonzero;"/>
        <path d="M251.38,182.7L251.47,182.7C253.736,182.879 255.989,182.193 257.77,180.78C257.846,180.703 257.846,180.577 257.77,180.5C257.734,180.464 257.686,180.444 257.635,180.444C257.584,180.444 257.536,180.464 257.5,180.5C255.799,181.837 253.658,182.49 251.5,182.33C251.49,182.328 251.48,182.327 251.469,182.327C251.372,182.327 251.289,182.403 251.28,182.5C251.269,182.581 251.309,182.66 251.38,182.7Z" style="fill:rgb(38,50,56);fill-rule:nonzero;"/>
        <path d="M262.82,165.1C262.935,165.164 263.075,165.164 263.19,165.1C263.367,164.982 263.42,164.742 263.31,164.56C262.341,162.937 260.644,161.878 258.76,161.72C258.544,161.72 258.365,161.894 258.36,162.11C258.36,162.32 258.53,162.495 258.74,162.5C260.363,162.655 261.818,163.578 262.65,164.98C262.695,165.035 262.754,165.076 262.82,165.1Z" style="fill:rgb(38,50,56);fill-rule:nonzero;"/>
        <path d="M257.09,170.22C256.92,171.22 256.23,171.99 255.55,171.88C254.87,171.77 254.48,170.88 254.65,169.8C254.82,168.72 255.52,168.03 256.19,168.14C256.86,168.25 257.27,169.19 257.09,170.22Z" style="fill:rgb(38,50,56);fill-rule:nonzero;"/>
        <path d="M245.43,168.24C245.26,169.24 244.57,170.01 243.89,169.9C243.21,169.79 242.82,168.85 242.99,167.82C243.16,166.79 243.86,166.04 244.53,166.16C245.2,166.28 245.61,167.2 245.43,168.24Z" style="fill:rgb(38,50,56);fill-rule:nonzero;"/>
        <path d="M244.82,166.27L242.46,165.13C242.46,165.13 243.4,167.28 244.82,166.27Z" style="fill:rgb(38,50,56);fill-rule:nonzero;"/>
        <path d="M256.48,168.25L254.12,167.12C254.12,167.12 255.06,169.27 256.48,168.25Z" style="fill:rgb(38,50,56);fill-rule:nonzero;"/>
        <path d="M241.47,161.27C241.593,161.343 241.747,161.343 241.87,161.27C243.121,160.218 244.812,159.844 246.39,160.27C246.432,160.285 246.476,160.292 246.52,160.292C246.735,160.292 246.912,160.115 246.912,159.9C246.912,159.734 246.807,159.585 246.65,159.53C244.83,159.012 242.867,159.416 241.4,160.61C241.302,160.679 241.243,160.792 241.243,160.912C241.243,160.999 241.274,161.083 241.33,161.15C241.363,161.203 241.412,161.245 241.47,161.27Z" style="fill:rgb(38,50,56);fill-rule:nonzero;"/>
        <path d="M228.75,304.12C228.75,304.12 228.61,296.96 230.75,291.37L283.1,291.37C283.1,291.37 287.81,298.97 289.03,304.12L228.75,304.12Z" style="fill:rgb(64,123,255);fill-rule:nonzero;"/>
        <path d="M283.89,288.3L284.3,292.98C284.49,293.35 284.06,293.72 283.45,293.72L230.45,293.72C229.98,293.72 229.59,293.49 229.56,293.19L229.08,288.5C229.08,288.18 229.46,287.9 229.98,287.9L282.98,287.9C283.332,287.862 283.679,288.015 283.89,288.3Z" style="fill:rgb(64,123,255);fill-rule:nonzero;"/>
        <path d="M283.89,288.3L284.3,292.98C284.49,293.35 284.06,293.72 283.45,293.72L230.45,293.72C229.98,293.72 229.59,293.49 229.56,293.19L229.08,288.5C229.08,288.18 229.46,287.9 229.98,287.9L282.98,287.9C283.332,287.862 283.679,288.015 283.89,288.3Z" style="fill:rgb(250,250,250);fill-opacity:0.3;fill-rule:nonzero;"/>
        <path d="M276.76,294.22L278.18,294.22C278.47,294.22 278.68,294.08 278.66,293.9L278,287.81C278,287.63 277.73,287.49 277.45,287.49L276,287.49C275.71,287.49 275.5,287.63 275.52,287.81L276.18,293.9C276.23,294.08 276.48,294.22 276.76,294.22Z" style="fill:rgb(64,123,255);fill-rule:nonzero;"/>
        <path d="M234.47,294.22L235.89,294.22C236.17,294.22 236.39,294.08 236.37,293.9L235.7,287.81C235.7,287.63 235.44,287.49 235.15,287.49L233.73,287.49C233.45,287.49 233.23,287.63 233.25,287.81L233.92,293.9C233.94,294.08 234.19,294.22 234.47,294.22Z" style="fill:rgb(64,123,255);fill-rule:nonzero;"/>
        <path d="M255.62,294.22L257,294.22C257.28,294.22 257.5,294.08 257.48,293.9L256.81,287.81C256.81,287.63 256.54,287.49 256.26,287.49L254.84,287.49C254.56,287.49 254.34,287.63 254.36,287.81L255.03,293.9C255.09,294.08 255.33,294.22 255.62,294.22Z" style="fill:rgb(64,123,255);fill-rule:nonzero;"/>
        <path d="M296.86,228C299.16,235.467 301.37,242.973 303.49,250.52L306.68,261.78L308.27,267.38L308.87,269.45L308.92,269.61L308.76,269.36C308.507,268.998 308.196,268.68 307.84,268.42C307.058,267.851 306.126,267.521 305.16,267.47C304.43,267.435 303.702,267.579 303.04,267.89C302.32,268.28 302.39,268.37 302.45,268.3C302.62,268.153 302.774,267.988 302.91,267.81C303.381,267.221 303.816,266.603 304.21,265.96C305.09,264.52 305.96,262.9 306.78,261.24C308.48,257.92 310.01,254.4 311.56,250.86C313.11,247.32 314.56,243.74 316.06,240.13C317.56,236.52 318.99,232.89 320.47,229.31L326.86,231.21C325.2,239.01 323.26,246.67 320.86,254.3C319.68,258.13 318.37,261.92 316.86,265.76C316.08,267.68 315.25,269.6 314.22,271.59C313.671,272.667 313.056,273.708 312.38,274.71C311.96,275.338 311.492,275.933 310.98,276.49C310.168,277.411 309.183,278.162 308.08,278.7C306.979,279.235 305.763,279.489 304.54,279.44C303.09,279.359 301.697,278.847 300.54,277.97C299.802,277.414 299.164,276.738 298.65,275.97C298.325,275.477 298.041,274.959 297.8,274.42C297.71,274.2 297.61,273.97 297.54,273.77L297.35,273.28L297.09,272.57L296.57,271.16C295.89,269.29 295.2,267.42 294.57,265.55C293.29,261.81 292.01,258.08 290.81,254.33C288.357,246.837 286.07,239.307 283.95,231.74L296.86,228Z" style="fill:rgb(182,91,82);fill-rule:nonzero;"/>
        <path d="M292.38,213.18C297.63,214.77 305.66,235.36 305.66,235.36L285.31,249.91C285.31,249.91 276.16,232.31 278.36,225.53C280.66,218.47 286.4,211.36 292.38,213.18Z" style="fill:rgb(64,123,255);fill-rule:nonzero;"/>
        <path d="M292.38,213.18C297.63,214.77 305.66,235.36 305.66,235.36L285.31,249.91C285.31,249.91 276.16,232.31 278.36,225.53C280.66,218.47 286.4,211.36 292.38,213.18Z" style="fill:white;fill-opacity:0.5;fill-rule:nonzero;"/>
        <path d="M320.7,232.05L317.91,219.75L329.51,225.87C329.51,225.87 329.65,234.15 324.97,236.76L320.7,232.05Z" style="fill:rgb(181,91,82);fill-rule:nonzero;"/>
        <path d="M322.77,209.99L330.17,215.24L329.51,225.87L317.91,219.75L322.77,209.99Z" style="fill:rgb(181,91,82);fill-rule:nonzero;"/>
    </g>
    <g id="freepik--Chat--inject-2">
        <path d="M115,148.09L196,148.09C196.037,148.09 196.073,148.089 196.11,148.089C202.243,148.089 207.29,153.136 207.29,159.269C207.29,159.543 207.28,159.817 207.26,160.09L205,196.75C204.488,203.403 198.932,208.636 192.26,208.75L182.88,208.75L186.71,221.34L168.39,208.75L111.29,208.75C111.253,208.75 111.217,208.751 111.18,208.751C105.047,208.751 100,203.704 100,197.571C100,197.297 100.01,197.023 100.03,196.75L102.27,160.09C102.782,153.441 108.332,148.209 115,148.09Z" style="fill:rgb(253,205,51);fill-rule:nonzero;"/>
        <path d="M188.58,167.29L120.08,167.29C118.932,167.284 117.991,166.338 117.991,165.19C117.991,165.127 117.994,165.063 118,165C118.092,163.749 119.136,162.762 120.39,162.74L188.9,162.74C190.056,162.743 191.005,163.694 191.005,164.85C191.005,164.9 191.004,164.95 191,165C190.926,166.276 189.858,167.287 188.58,167.29Z" style="fill:white;fill-rule:nonzero;"/>
        <path d="M148,180.68L119.26,180.68C119.255,180.68 119.25,180.68 119.245,180.68C118.087,180.68 117.135,179.728 117.135,178.57C117.135,178.52 117.136,178.47 117.14,178.42C117.233,177.165 118.282,176.177 119.54,176.16L148.31,176.16C148.318,176.16 148.327,176.16 148.335,176.16C149.493,176.16 150.445,177.112 150.445,178.27C150.445,178.32 150.444,178.37 150.44,178.42C150.341,179.688 149.271,180.679 148,180.68Z" style="fill:white;fill-rule:nonzero;"/>
        <path d="M172.63,194.07L118.44,194.07C118.435,194.07 118.43,194.07 118.425,194.07C117.267,194.07 116.315,193.118 116.315,191.96C116.315,191.91 116.316,191.86 116.32,191.81C116.408,190.553 117.46,189.562 118.72,189.55L172.91,189.55C172.919,189.55 172.927,189.55 172.936,189.55C174.088,189.55 175.036,190.498 175.036,191.65C175.036,191.703 175.034,191.757 175.03,191.81C174.937,193.065 173.888,194.053 172.63,194.07Z" style="fill:white;fill-rule:nonzero;"/>
        <path d="M169.11,180.68L157.78,180.68C157.775,180.68 157.77,180.68 157.765,180.68C156.607,180.68 155.655,179.728 155.655,178.57C155.655,178.52 155.656,178.47 155.66,178.42C155.757,177.167 156.804,176.182 158.06,176.16L169.38,176.16C169.389,176.16 169.397,176.16 169.406,176.16C170.558,176.16 171.506,177.108 171.506,178.26C171.506,178.313 171.504,178.367 171.5,178.42C171.408,179.671 170.364,180.658 169.11,180.68Z" style="fill:white;fill-rule:nonzero;"/>
        <path d="M227.79,82.19L183.63,82.19C178.438,82.268 174.111,86.342 173.72,91.52L172,120.06C171.985,120.266 171.978,120.473 171.978,120.68C171.978,125.459 175.91,129.39 180.688,129.39C180.715,129.39 180.743,129.39 180.77,129.39L188,129.39L183.82,139.19L199.28,129.39L224.9,129.39C230.092,129.312 234.419,125.238 234.81,120.06L236.56,91.52C236.575,91.314 236.582,91.107 236.582,90.9C236.582,86.121 232.65,82.19 227.872,82.19C227.845,82.19 227.817,82.19 227.79,82.19Z" style="fill:rgb(253,205,51);fill-rule:nonzero;"/>
        <g opacity="0.5">
            <path d="M227.79,82.19L183.63,82.19C178.438,82.268 174.111,86.342 173.72,91.52L172,120.06C171.985,120.266 171.978,120.473 171.978,120.68C171.978,125.459 175.91,129.39 180.688,129.39C180.715,129.39 180.743,129.39 180.77,129.39L188,129.39L183.82,139.19L199.28,129.39L224.9,129.39C230.092,129.312 234.419,125.238 234.81,120.06L236.56,91.52C236.575,91.314 236.582,91.107 236.582,90.9C236.582,86.121 232.65,82.19 227.872,82.19C227.845,82.19 227.817,82.19 227.79,82.19Z" style="fill:rgb(253,205,51);fill-rule:nonzero;"/>
        </g>
        <path d="M206.5,110.46C206.188,111.749 205.026,112.666 203.7,112.67L201.09,112.67C201.09,111.93 201.15,111.48 201.16,111.32C201.198,109.879 201.567,108.465 202.24,107.19C203.185,105.768 204.385,104.534 205.78,103.55C206.892,102.744 207.942,101.855 208.92,100.89C209.439,100.276 209.747,99.512 209.8,98.71C209.88,97.634 209.454,96.58 208.65,95.86C207.68,95.029 206.425,94.606 205.15,94.68C203.809,94.643 202.498,95.083 201.45,95.92C200.827,96.434 200.317,97.07 199.95,97.79C199.399,98.863 198.252,99.503 197.05,99.41C195.784,99.253 194.822,98.165 194.822,96.889C194.822,96.412 194.957,95.944 195.21,95.54C195.813,94.527 196.588,93.627 197.5,92.88C199.667,91.138 202.392,90.239 205.17,90.35C208.44,90.35 210.98,91.2 212.81,92.91C214.545,94.402 215.483,96.626 215.34,98.91C215.248,100.192 214.805,101.423 214.06,102.47C212.655,104.2 211.032,105.739 209.23,107.05C208.297,107.702 207.49,108.518 206.85,109.46C206.687,109.775 206.57,110.112 206.5,110.46ZM200.79,117.64L200.79,117.32C200.898,115.83 202.146,114.657 203.64,114.64L204,114.64C204.012,114.64 204.024,114.64 204.037,114.64C205.408,114.64 206.537,115.768 206.537,117.14C206.537,117.2 206.534,117.26 206.53,117.32L206.53,117.64C206.422,119.132 205.176,120.308 203.68,120.33L203.36,120.33C203.334,120.331 203.308,120.331 203.283,120.331C201.911,120.331 200.783,119.203 200.783,117.831C200.783,117.767 200.785,117.704 200.79,117.64Z" style="fill:white;fill-rule:nonzero;"/>
    </g>
</svg>
