<?xml version="1.0" encoding="UTF-8" standalone="no"?>
<!DOCTYPE svg PUBLIC "-//W3C//DTD SVG 1.1//EN" "http://www.w3.org/Graphics/SVG/1.1/DTD/svg11.dtd">
<svg width="100%" height="100%" viewBox="0 0 500 500" version="1.1" xmlns="http://www.w3.org/2000/svg" xmlns:xlink="http://www.w3.org/1999/xlink" xml:space="preserve" xmlns:serif="http://www.serif.com/" style="fill-rule:evenodd;clip-rule:evenodd;stroke-linejoin:round;stroke-miterlimit:2;">
    <g id="freepik--background-complete--inject-2">
        <rect x="0" y="382.4" width="500" height="0.25" style="fill:rgb(235,235,235);"/>
        <rect x="52.46" y="391.92" width="16.06" height="0.25" style="fill:rgb(235,235,235);"/>
        <rect x="171.14" y="389.21" width="53.53" height="0.25" style="fill:rgb(235,235,235);"/>
        <rect x="69.52" y="401.21" width="36.25" height="0.25" style="fill:rgb(235,235,235);"/>
        <rect x="379.14" y="389.08" width="43.19" height="0.25" style="fill:rgb(235,235,235);"/>
        <rect x="431.24" y="389.08" width="6.33" height="0.25" style="fill:rgb(235,235,235);"/>
        <rect x="317" y="395.31" width="53.89" height="0.25" style="fill:rgb(235,235,235);"/>
        <path d="M237,337.8L43.91,337.8C40.781,337.795 38.21,335.219 38.21,332.09L38.21,60.66C38.237,57.55 40.8,55.005 43.91,55L237,55C240.132,55 242.71,57.578 242.71,60.71L242.71,332.09C242.71,335.222 240.132,337.8 237,337.8ZM43.91,55.2C40.919,55.205 38.46,57.669 38.46,60.66L38.46,332.09C38.46,335.081 40.919,337.545 43.91,337.55L237,337.55C239.993,337.545 242.455,335.083 242.46,332.09L242.46,60.66C242.455,57.667 239.993,55.205 237,55.2L43.91,55.2Z" style="fill:rgb(235,235,235);fill-rule:nonzero;"/>
        <path d="M453.31,337.8L260.21,337.8C257.08,337.795 254.505,335.22 254.5,332.09L254.5,60.66C254.533,57.549 257.098,55.005 260.21,55L453.31,55C456.416,55.011 458.973,57.554 459,60.66L459,332.09C459,335.215 456.435,337.789 453.31,337.8ZM260.21,55.2C257.217,55.205 254.755,57.667 254.75,60.66L254.75,332.09C254.755,335.083 257.217,337.545 260.21,337.55L453.31,337.55C456.303,337.545 458.765,335.083 458.77,332.09L458.77,60.66C458.765,57.667 456.303,55.205 453.31,55.2L260.21,55.2Z" style="fill:rgb(235,235,235);fill-rule:nonzero;"/>
        <rect x="389.71" y="298.81" width="6.64" height="83.59" style="fill:rgb(245,245,245);"/>
        <rect x="393.46" y="298.81" width="5.78" height="83.59" style="fill:rgb(240,240,240);"/>
        <rect x="234.83" y="298.81" width="6.64" height="83.59" style="fill:rgb(245,245,245);"/>
        <rect x="238.58" y="298.81" width="5.78" height="83.59" style="fill:rgb(240,240,240);"/>
        <rect x="414.88" y="298.81" width="6.64" height="83.59" style="fill:rgb(245,245,245);"/>
        <rect x="418.63" y="298.81" width="5.78" height="83.59" style="fill:rgb(240,240,240);"/>
        <rect x="260" y="298.81" width="6.64" height="83.59" style="fill:rgb(245,245,245);"/>
        <g transform="matrix(-1,-7.65714e-16,7.65714e-16,-1,659.24,597.61)">
            <rect x="234.83" y="297.22" width="189.57" height="3.17" style="fill:rgb(240,240,240);"/>
        </g>
        <g transform="matrix(-1,-7.65714e-16,7.65714e-16,-1,498.58,597.61)">
            <rect x="234.83" y="297.22" width="28.92" height="3.17" style="fill:rgb(230,230,230);"/>
        </g>
        <rect x="263.75" y="298.81" width="5.78" height="83.59" style="fill:rgb(240,240,240);"/>
        <rect x="311.71" y="236.34" width="17.93" height="60.88" style="fill:rgb(235,235,235);"/>
        <path d="M378.26,297.22L318.74,297.22L309.75,225.97L369.27,225.97L378.26,297.22Z" style="fill:rgb(224,224,224);fill-rule:nonzero;"/>
        <path d="M381.76,297.22L320.28,297.22L311.29,225.97L372.77,225.97L381.76,297.22Z" style="fill:rgb(240,240,240);fill-rule:nonzero;"/>
        <path d="M347.27,297.22L335.34,297.22L338.7,225.97L350.63,225.97L347.27,297.22Z" style="fill:rgb(250,250,250);fill-rule:nonzero;"/>
        <path d="M360.94,297.22L349.2,297.22L352.56,225.97L364.3,225.97L360.94,297.22Z" style="fill:rgb(250,250,250);fill-rule:nonzero;"/>
        <rect x="276.32" y="72.51" width="154.63" height="120.99" style="fill:rgb(230,230,230);"/>
        <rect x="278.49" y="72.51" width="157.1" height="120.99" style="fill:rgb(240,240,240);"/>
        <rect x="276.32" y="193.5" width="154.63" height="4.05" style="fill:rgb(230,230,230);"/>
        <rect x="280.96" y="193.5" width="157.1" height="4.05" style="fill:rgb(240,240,240);"/>
        <g transform="matrix(-3.82857e-16,1,-1,-3.82857e-16,490.05,-224.04)">
            <rect x="303.04" y="60.95" width="108" height="144.11" style="fill:rgb(250,250,250);"/>
        </g>
        <path d="M363.85,187L374.25,79.01L392.25,79.01L381.85,187L363.85,187Z" style="fill:white;fill-rule:nonzero;"/>
        <path d="M318.43,187L328.83,79.01L346.83,79.01L336.43,187L318.43,187Z" style="fill:white;fill-rule:nonzero;"/>
        <path d="M288,150.4C287.729,150.395 287.51,150.171 287.51,149.9L287.51,83.23C287.51,82.956 287.736,82.73 288.01,82.73C288.284,82.73 288.51,82.956 288.51,83.23L288.51,149.9C288.51,150.174 288.284,150.4 288.01,150.4C288.007,150.4 288.003,150.4 288,150.4Z" style="fill:rgb(240,240,240);fill-rule:nonzero;"/>
        <path d="M385.71,187L396.11,79.01L403.13,79.01L392.73,187L385.71,187Z" style="fill:white;fill-rule:nonzero;"/>
        <g transform="matrix(-3.82857e-16,1,-1,-3.82857e-16,561.69,-295.68)">
            <rect x="374.69" y="132.59" width="108" height="0.82" style="fill:rgb(230,230,230);"/>
        </g>
        <path d="M437.13,90.78L282.5,90.78L281.9,81.53L436.53,81.53L437.13,90.78Z" style="fill:rgb(224,224,224);fill-opacity:0.5;fill-rule:nonzero;"/>
        <path d="M437.13,105.99L282.5,105.99L281.9,96.74L436.53,96.74L437.13,105.99Z" style="fill:rgb(224,224,224);fill-opacity:0.5;fill-rule:nonzero;"/>
        <path d="M437.13,121.2L282.5,121.2L281.9,111.95L436.53,111.95L437.13,121.2Z" style="fill:rgb(224,224,224);fill-opacity:0.5;fill-rule:nonzero;"/>
        <path d="M437.13,136.41L282.5,136.41L281.9,127.16L436.53,127.16L437.13,136.41Z" style="fill:rgb(224,224,224);fill-opacity:0.5;fill-rule:nonzero;"/>
        <path d="M437.13,151.61L282.5,151.61L281.9,142.36L436.53,142.36L437.13,151.61Z" style="fill:rgb(224,224,224);fill-opacity:0.5;fill-rule:nonzero;"/>
        <path d="M437.13,166.82L282.5,166.82L281.9,157.57L436.53,157.57L437.13,166.82Z" style="fill:rgb(224,224,224);fill-opacity:0.5;fill-rule:nonzero;"/>
        <path d="M437.13,98.39L282.5,98.39L281.9,89.14L436.53,89.14L437.13,98.39Z" style="fill:rgb(224,224,224);fill-opacity:0.5;fill-rule:nonzero;"/>
        <path d="M437.13,113.59L282.5,113.59L281.9,104.34L436.53,104.34L437.13,113.59Z" style="fill:rgb(224,224,224);fill-opacity:0.5;fill-rule:nonzero;"/>
        <path d="M437.13,128.8L282.5,128.8L281.9,119.55L436.53,119.55L437.13,128.8Z" style="fill:rgb(224,224,224);fill-opacity:0.5;fill-rule:nonzero;"/>
        <path d="M437.13,144.01L282.5,144.01L281.9,134.76L436.53,134.76L437.13,144.01Z" style="fill:rgb(224,224,224);fill-opacity:0.5;fill-rule:nonzero;"/>
        <path d="M437.13,159.22L282.5,159.22L281.9,149.97L436.53,149.97L437.13,159.22Z" style="fill:rgb(224,224,224);fill-opacity:0.5;fill-rule:nonzero;"/>
        <path d="M437.13,174.43L282.5,174.43L281.9,165.17L436.53,165.17L437.13,174.43Z" style="fill:rgb(224,224,224);fill-opacity:0.5;fill-rule:nonzero;"/>
        <g transform="matrix(-1,-7.65714e-16,7.65714e-16,-1,219.4,247.41)">
            <path d="M125.02,119.67C125.02,117.01 122.86,114.85 120.2,114.85L99.21,114.85C96.55,114.85 94.39,117.01 94.39,119.67L94.39,127.73C94.39,130.39 96.55,132.55 99.21,132.55L120.2,132.55C122.86,132.55 125.02,130.39 125.02,127.73L125.02,119.67Z" style="fill:rgb(245,245,245);"/>
        </g>
        <g transform="matrix(-1,-7.65714e-16,7.65714e-16,-1,219.4,212)">
            <path d="M125.02,101.97C125.02,99.31 122.86,97.15 120.2,97.15L99.21,97.15C96.55,97.15 94.39,99.31 94.39,101.97L94.39,110.03C94.39,112.69 96.55,114.85 99.21,114.85L120.2,114.85C122.86,114.85 125.02,112.69 125.02,110.03L125.02,101.97Z" style="fill:rgb(245,245,245);"/>
        </g>
        <g transform="matrix(-1,-7.65714e-16,7.65714e-16,-1,219.4,188.17)">
            <path d="M115.01,92.69C115.01,91.768 114.262,91.02 113.34,91.02L106.07,91.02C105.148,91.02 104.4,91.768 104.4,92.69L104.4,95.48C104.4,96.402 105.148,97.15 106.07,97.15L113.34,97.15C114.262,97.15 115.01,96.402 115.01,95.48L115.01,92.69Z" style="fill:rgb(224,224,224);"/>
        </g>
        <g transform="matrix(-1,7.65714e-16,-7.65714e-16,-1,219.4,282.81)">
            <path d="M125.02,137.38C125.02,134.72 122.86,132.56 120.2,132.56L99.21,132.56C96.55,132.56 94.39,134.72 94.39,137.38L94.39,145.44C94.39,148.1 96.55,150.26 99.21,150.26L120.2,150.26C122.86,150.26 125.02,148.1 125.02,145.44L125.02,137.38Z" style="fill:rgb(245,245,245);"/>
        </g>
        <path d="M210.52,138C210.52,138 209.52,150.3 170.63,150.3C131.74,150.3 130.73,138 130.73,138L210.52,138Z" style="fill:rgb(240,240,240);fill-rule:nonzero;"/>
        <rect x="60.42" y="152.75" width="30.82" height="218.23" style="fill:rgb(240,240,240);"/>
        <rect x="66.33" y="370.98" width="151.98" height="11.42" style="fill:rgb(240,240,240);"/>
        <g transform="matrix(-1,-7.65714e-16,7.65714e-16,-1,315.46,523.72)">
            <rect x="91.23" y="152.75" width="132.99" height="218.23" style="fill:rgb(245,245,245);"/>
        </g>
        <g transform="matrix(-1,-7.65714e-16,7.65714e-16,-1,315.46,512.09)">
            <rect x="103.35" y="230.3" width="108.76" height="51.5" style="fill:rgb(240,240,240);"/>
        </g>
        <g transform="matrix(-1,-7.65714e-16,7.65714e-16,-1,315.46,638.06)">
            <rect x="103.35" y="293.28" width="108.76" height="51.5" style="fill:rgb(240,240,240);"/>
        </g>
        <g transform="matrix(-1,-7.65714e-16,7.65714e-16,-1,315.46,718.86)">
            <rect x="103.35" y="355.51" width="108.76" height="7.85" style="fill:rgb(240,240,240);"/>
        </g>
        <path d="M185.37,234.37L130.09,234.37C127.722,234.365 125.775,232.418 125.77,230.05C125.781,227.686 127.726,225.745 130.09,225.74L185.37,225.74C187.734,225.745 189.679,227.686 189.69,230.05C189.685,232.418 187.738,234.365 185.37,234.37Z" style="fill:rgb(245,245,245);fill-rule:nonzero;"/>
        <g transform="matrix(-1,-7.65714e-16,7.65714e-16,-1,315.46,386.12)">
            <rect x="103.35" y="167.31" width="108.76" height="51.5" style="fill:rgb(240,240,240);"/>
        </g>
        <path d="M185.37,171.39L130.09,171.39C127.722,171.385 125.775,169.438 125.77,167.07C125.775,164.702 127.722,162.755 130.09,162.75L185.37,162.75C187.738,162.755 189.685,164.702 189.69,167.07C189.685,169.438 187.738,171.385 185.37,171.39Z" style="fill:rgb(245,245,245);fill-rule:nonzero;"/>
        <path d="M185.37,297.36L130.09,297.36C127.722,297.355 125.775,295.408 125.77,293.04C125.775,290.672 127.722,288.725 130.09,288.72L185.37,288.72C187.738,288.725 189.685,290.672 189.69,293.04C189.685,295.408 187.738,297.355 185.37,297.36Z" style="fill:rgb(245,245,245);fill-rule:nonzero;"/>
        <rect x="91.23" y="150.26" width="137.1" height="2.49" style="fill:rgb(240,240,240);"/>
        <g transform="matrix(-1,-7.65714e-16,7.65714e-16,-1,147.35,303.01)">
            <rect x="56.11" y="150.26" width="35.12" height="2.49" style="fill:rgb(230,230,230);"/>
        </g>
    </g>
    <g id="freepik--Shadow--inject-2">
        <ellipse id="freepik--path--inject-2" cx="250" cy="416.24" rx="193.89" ry="11.32" style="fill:rgb(245,245,245);"/>
    </g>
    <g id="freepik--Table--inject-2">
        <path d="M442.06,317.11L57.94,317.11L50.86,310.41L449.14,310.41L442.06,317.11Z" style="fill:rgb(64,123,255);fill-rule:nonzero;"/>
        <path d="M442.06,317.11L57.94,317.11L50.86,310.41L449.14,310.41L442.06,317.11Z" style="fill:white;fill-opacity:0.5;fill-rule:nonzero;"/>
        <path d="M409.12,320.72L90.88,320.72L85.01,317.11L414.99,317.11L409.12,320.72Z" style="fill:rgb(64,123,255);fill-rule:nonzero;"/>
        <path d="M409.12,320.72L90.88,320.72L85.01,317.11L414.99,317.11L409.12,320.72Z" style="fill-opacity:0.5;fill-rule:nonzero;"/>
        <path d="M88.36,416.24L83.79,416.24L97.96,320.72L108.15,320.72L88.36,416.24Z" style="fill:rgb(64,123,255);fill-rule:nonzero;"/>
        <path d="M88.36,416.24L83.79,416.24L97.96,320.72L108.15,320.72L88.36,416.24Z" style="fill:rgb(182,213,208);fill-opacity:0.5;fill-rule:nonzero;"/>
        <path d="M113.1,416.24L108.54,416.24L122.71,320.72L132.9,320.72L113.1,416.24Z" style="fill:rgb(64,123,255);fill-rule:nonzero;"/>
        <path d="M113.1,416.24L108.54,416.24L122.71,320.72L132.9,320.72L113.1,416.24Z" style="fill:rgb(182,213,208);fill-opacity:0.5;fill-rule:nonzero;"/>
        <path d="M411.64,416.24L416.21,416.24L402.04,320.72L391.85,320.72L411.64,416.24Z" style="fill:rgb(64,123,255);fill-rule:nonzero;"/>
        <path d="M411.64,416.24L416.21,416.24L402.04,320.72L391.85,320.72L411.64,416.24Z" style="fill:rgb(182,213,208);fill-opacity:0.5;fill-rule:nonzero;"/>
        <path d="M386.9,416.24L391.46,416.24L377.29,320.72L367.1,320.72L386.9,416.24Z" style="fill:rgb(64,123,255);fill-rule:nonzero;"/>
        <path d="M386.9,416.24L391.46,416.24L377.29,320.72L367.1,320.72L386.9,416.24Z" style="fill:rgb(182,213,208);fill-opacity:0.5;fill-rule:nonzero;"/>
    </g>
    <g id="freepik--Gear--inject-2">
        <path d="M224.28,95.14L237.19,96.01C238.209,96.073 239.112,96.698 239.53,97.63L240.89,100.63C241.185,101.278 241.719,101.787 242.38,102.05C243.999,102.716 245.57,103.494 247.08,104.38C247.683,104.734 248.397,104.849 249.08,104.7L252.32,103.94C253.313,103.711 254.356,104.046 255.03,104.81L263.55,114.55C264.223,115.321 264.415,116.404 264.05,117.36L262.87,120.46C262.621,121.127 262.639,121.866 262.92,122.52C263.596,124.145 264.157,125.816 264.6,127.52C264.771,128.21 265.205,128.806 265.81,129.18L268.63,130.93C269.498,131.466 270,132.442 269.93,133.46L269.07,146.38C269.004,147.398 268.374,148.299 267.44,148.71L264.44,150.07C263.797,150.371 263.289,150.903 263.02,151.56C262.362,153.181 261.587,154.752 260.7,156.26C260.343,156.861 260.228,157.577 260.38,158.26L261.13,161.49C261.366,162.483 261.03,163.53 260.26,164.2L250.52,172.72C249.753,173.393 248.672,173.586 247.72,173.22L244.61,172.04C243.952,171.78 243.218,171.78 242.56,172.04C240.933,172.713 239.263,173.274 237.56,173.72C236.872,173.895 236.277,174.328 235.9,174.93L234.15,177.75C233.61,178.618 232.63,179.12 231.61,179.05L218.7,178.19C217.682,178.123 216.781,177.499 216.36,176.57L215,173.57C214.705,172.922 214.171,172.413 213.51,172.15C211.891,171.484 210.32,170.706 208.81,169.82C208.208,169.465 207.493,169.35 206.81,169.5L203.58,170.26C202.587,170.494 201.542,170.158 200.87,169.39L192.34,159.65C191.672,158.877 191.479,157.796 191.84,156.84L193.02,153.74C193.269,153.076 193.251,152.341 192.97,151.69C192.296,150.064 191.735,148.393 191.29,146.69C191.119,146 190.685,145.404 190.08,145.03L187.26,143.28C186.392,142.744 185.89,141.768 185.96,140.75L186.82,127.83C186.891,126.811 187.519,125.91 188.45,125.49L191.45,124.14C192.098,123.845 192.607,123.311 192.87,122.65C193.536,121.027 194.314,119.454 195.2,117.94C195.557,117.338 195.675,116.624 195.53,115.94L194.77,112.71C194.536,111.717 194.872,110.672 195.64,110L205.38,101.48C206.146,100.806 207.226,100.609 208.18,100.97L211.29,102.15C211.947,102.415 212.683,102.415 213.34,102.15C214.965,101.472 216.636,100.911 218.34,100.47C219.024,100.293 219.617,99.864 220,99.27L221.75,96.45C222.288,95.583 223.261,95.079 224.28,95.14ZM203.53,135.51C203.494,136.055 203.475,136.6 203.475,137.146C203.475,150.581 214.53,161.636 227.965,161.636C241.4,161.636 252.455,150.581 252.455,137.146C252.455,124.323 242.384,113.561 229.59,112.71C216.191,111.825 204.433,122.112 203.53,135.51Z" style="fill:rgb(133,215,239);fill-rule:nonzero;"/>
        <path d="M275.45,149.72L279.88,148.22C280.357,148.063 280.882,148.179 281.25,148.52L281.98,149.22C282.236,149.449 282.567,149.577 282.91,149.58C283.519,149.579 284.127,149.62 284.73,149.7C285.082,149.757 285.442,149.671 285.73,149.46L286.55,148.87C286.961,148.581 287.499,148.539 287.95,148.76L292.14,150.84C292.589,151.06 292.881,151.511 292.9,152.01L292.9,153.01C292.913,153.356 293.056,153.684 293.3,153.93C293.731,154.358 294.132,154.816 294.5,155.3C294.709,155.572 295.012,155.758 295.35,155.82L296.35,155.98C296.844,156.063 297.254,156.414 297.41,156.89L298.91,161.32C299.076,161.794 298.964,162.324 298.62,162.69L297.92,163.42C297.689,163.675 297.561,164.006 297.56,164.35C297.56,164.959 297.52,165.567 297.44,166.17C297.381,166.521 297.464,166.88 297.67,167.17L298.26,167.99C298.557,168.394 298.603,168.931 298.38,169.38L296.3,173.58C296.08,174.029 295.629,174.321 295.13,174.34L294.13,174.34C293.786,174.351 293.46,174.494 293.22,174.74C292.784,175.163 292.327,175.564 291.85,175.94C291.578,176.149 291.392,176.452 291.33,176.79L291.17,177.79C291.087,178.284 290.736,178.694 290.26,178.85L285.83,180.35C285.354,180.513 284.824,180.397 284.46,180.05L283.72,179.36C283.469,179.123 283.135,178.994 282.79,179C282.185,179 281.58,178.96 280.98,178.88C280.629,178.82 280.269,178.903 279.98,179.11L279.16,179.7C278.752,179.996 278.212,180.043 277.76,179.82L273.57,177.74C273.118,177.518 272.825,177.063 272.81,176.56L272.81,175.56C272.794,175.218 272.652,174.893 272.41,174.65C271.981,174.22 271.58,173.762 271.21,173.28C271.007,173.001 270.701,172.814 270.36,172.76L269.36,172.6C268.867,172.511 268.457,172.163 268.29,171.69L266.79,167.25C266.633,166.777 266.748,166.253 267.09,165.89L267.79,165.16C268.021,164.902 268.15,164.567 268.15,164.22C268.15,163.611 268.19,163.003 268.27,162.4C268.325,162.048 268.239,161.689 268.03,161.4L267.45,160.58C267.153,160.176 267.107,159.639 267.33,159.19L269.41,154.99C269.628,154.541 270.081,154.25 270.58,154.24L271.58,154.24C271.926,154.227 272.254,154.084 272.5,153.84C272.93,153.411 273.388,153.01 273.87,152.64C274.142,152.431 274.328,152.128 274.39,151.79L274.55,150.79C274.627,150.294 274.975,149.881 275.45,149.72ZM278.1,165.9C278.788,167.921 280.698,169.289 282.833,169.289C285.576,169.289 287.833,167.032 287.833,164.289C287.833,161.546 285.576,159.289 282.833,159.289C282.292,159.289 281.754,159.377 281.24,159.55C279.21,160.233 277.833,162.147 277.833,164.289C277.833,164.837 277.924,165.381 278.1,165.9Z" style="fill:rgb(253,205,51);fill-rule:nonzero;"/>
        <path d="M249.9,197.74L255.4,188.21C255.605,187.854 255.712,187.45 255.712,187.04C255.712,185.765 254.675,184.711 253.4,184.69L242.4,184.69C241.124,184.701 240.081,185.754 240.081,187.03C240.081,187.445 240.191,187.852 240.4,188.21L245.9,197.74C246.328,198.433 247.086,198.856 247.9,198.856C248.714,198.856 249.472,198.433 249.9,197.74Z" style="fill:rgb(182,213,208);fill-rule:nonzero;"/>
    </g>
    <g id="freepik--character-1--inject-2">
        <path d="M69.69,306.42L204.5,306.42C204.504,306.42 204.508,306.42 204.512,306.42C206.399,306.42 207.952,304.867 207.952,302.98C207.952,302.94 207.951,302.9 207.95,302.86L204.76,206.48C204.671,204.512 203.04,202.934 201.07,202.91L66.27,202.91C66.262,202.91 66.255,202.91 66.247,202.91C64.365,202.91 62.817,204.458 62.817,206.34C62.817,206.387 62.818,206.433 62.82,206.48L66,302.86C66.08,304.831 67.718,306.411 69.69,306.42Z" style="fill:rgb(194,238,235);fill-rule:nonzero;"/>
        <path d="M70.79,306.42L205.6,306.42C205.604,306.42 205.608,306.42 205.612,306.42C207.499,306.42 209.052,304.867 209.052,302.98C209.052,302.94 209.051,302.9 209.05,302.86L205.86,206.48C205.771,204.512 204.14,202.934 202.17,202.91L67.37,202.91C67.366,202.91 67.362,202.91 67.358,202.91C65.47,202.91 63.918,204.463 63.918,206.35C63.918,206.393 63.918,206.437 63.92,206.48L67.11,302.86C67.19,304.827 68.821,306.406 70.79,306.42Z" style="fill:rgb(182,213,208);fill-rule:nonzero;"/>
        <path d="M72.53,306.25L235.34,306.25C236.971,306.25 238.466,307.184 239.18,308.65C239.259,308.816 239.3,308.997 239.3,309.18C239.3,309.855 238.745,310.41 238.07,310.41C238.067,310.41 238.063,310.41 238.06,310.41L69.81,310.41C69.803,310.41 69.797,310.41 69.79,310.41C69.115,310.41 68.56,309.855 68.56,309.18C68.56,308.997 68.601,308.816 68.68,308.65C69.398,307.182 70.896,306.248 72.53,306.25Z" style="fill:rgb(220,236,235);fill-rule:nonzero;"/>
        <path d="M235.34,306.25L105.42,306.25C103.786,306.248 102.288,307.182 101.57,308.65C101.491,308.816 101.45,308.997 101.45,309.18C101.45,309.855 102.005,310.41 102.68,310.41C102.687,310.41 102.693,310.41 102.7,310.41L238.06,310.41C238.063,310.41 238.067,310.41 238.07,310.41C238.745,310.41 239.3,309.855 239.3,309.18C239.3,308.997 239.259,308.816 239.18,308.65C238.466,307.184 236.971,306.25 235.34,306.25Z" style="fill:rgb(220,236,235);fill-opacity:0.6;fill-rule:nonzero;"/>
        <path d="M157.68,308.89L191.48,308.89C192.31,308.895 192.99,309.58 192.99,310.41L156.16,310.41C156.16,309.576 156.846,308.89 157.68,308.89Z" style="fill:white;fill-opacity:0.3;fill-rule:nonzero;"/>
        <path d="M205.83,299.37L202.83,209.97C202.793,209.203 202.158,208.59 201.39,208.58L68.48,208.58C68.476,208.58 68.471,208.58 68.467,208.58C67.737,208.58 67.137,209.18 67.137,209.91C67.137,209.94 67.138,209.97 67.14,210L70.14,299.4C70.167,300.167 70.802,300.785 71.57,300.79L204.57,300.79C205.275,300.749 205.833,300.158 205.833,299.452C205.833,299.425 205.832,299.397 205.83,299.37Z" style="fill:white;fill-opacity:0.9;fill-rule:nonzero;"/>
        <path d="M96.26,300.76L77.93,300.76L99.06,208.58L117.39,208.58L96.26,300.76Z" style="fill:white;fill-rule:nonzero;"/>
        <path d="M107.94,300.76L101.34,300.76L122.47,208.58L129.07,208.58L107.94,300.76Z" style="fill:white;fill-rule:nonzero;"/>
        <path d="M175.37,300.76L168.77,300.76L189.9,208.58L196.49,208.58L175.37,300.76Z" style="fill:white;fill-rule:nonzero;"/>
        <path d="M133.82,205.9C133.871,206.458 134.34,206.892 134.9,206.9C135.449,206.9 135.9,206.449 135.9,205.9C135.858,205.338 135.383,204.898 134.82,204.9C134.271,204.9 133.82,205.351 133.82,205.9Z" style="fill:white;fill-opacity:0.4;fill-rule:nonzero;"/>
        <path d="M176.74,196.06C178.51,198.9 180.42,201.91 182.33,204.81C184.24,207.71 186.2,210.61 188.2,213.45C192.081,219.093 196.277,224.511 200.77,229.68C202.881,232.093 205.17,234.342 207.62,236.41L208.48,237.09C208.668,237.251 208.865,237.401 209.07,237.54C209.588,237.881 210.126,238.191 210.68,238.47C212.03,239.127 213.427,239.682 214.86,240.13C216.37,240.64 217.96,241.13 219.58,241.5C221.2,241.87 222.87,242.3 224.58,242.65C227.93,243.36 231.43,244.01 234.8,244.59L234.8,251.59C232.88,251.87 231.08,252.01 229.21,252.14C227.34,252.27 225.49,252.32 223.61,252.33C219.771,252.343 215.938,252.039 212.15,251.42C210.099,251.063 208.076,250.555 206.1,249.9C204.994,249.52 203.918,249.059 202.88,248.52C202.33,248.26 201.75,247.89 201.19,247.52L199.9,246.62C196.717,244.281 193.74,241.675 191,238.83C185.84,233.445 181.065,227.704 176.71,221.65C174.543,218.683 172.457,215.683 170.45,212.65C168.45,209.57 166.45,206.55 164.59,203.27L176.74,196.06Z" style="fill:rgb(255,195,189);fill-rule:nonzero;"/>
        <path d="M159.91,198C158.91,206.78 179.84,227.76 179.84,227.76L194,215.94C189.85,208.918 185.258,202.168 180.25,195.73C172.2,185.76 161,188.07 159.91,198Z" style="fill:rgb(133,215,239);fill-rule:nonzero;"/>
        <path d="M171.35,204.23C165.76,198.23 163.09,196.68 159.87,199.07C160.3,208.34 179.87,227.74 179.87,227.74C181.15,217.79 176.08,211.39 171.35,204.23Z" style="fill-opacity:0.3;fill-rule:nonzero;"/>
        <path d="M192.85,211.89L194.34,216.21L178.5,229.21L175.37,225.96L192.85,211.89Z" style="fill:rgb(133,215,239);fill-rule:nonzero;"/>
        <path d="M234.05,244.45L245.05,246.34L239,256C237.56,256.23 231.82,253.12 229.28,249.26L234.05,244.45Z" style="fill:rgb(255,195,189);fill-rule:nonzero;"/>
        <path d="M251.8,252.86L247.41,257.84L238.99,255.95L245.03,246.34L251.8,252.86Z" style="fill:rgb(255,195,189);fill-rule:nonzero;"/>
        <path d="M171.3,189.59C171.3,189.59 183.3,217.81 174.66,270.37L124.66,270.37C124.05,262.7 127.57,225.27 118.92,189.11C124.424,188.042 129.993,187.337 135.59,187C142.667,186.59 149.763,186.59 156.84,187C161.72,187.489 166.554,188.355 171.3,189.59Z" style="fill:rgb(133,215,239);fill-rule:nonzero;"/>
        <path d="M130.09,198C131.09,204 129.75,218.18 124.65,234.64C124.259,220.522 122.616,206.467 119.74,192.64L119.74,192.57C123,192.3 129.1,192.46 130.09,198Z" style="fill-opacity:0.3;fill-rule:nonzero;"/>
        <path d="M136.86,163.07C138.44,169.91 140.21,182.44 135.59,187C135.59,187 137.59,192.66 150.29,192.66C164.29,192.66 156.84,187 156.84,187C149.15,185.18 149.15,179.52 150.29,174.21L136.86,163.07Z" style="fill:rgb(255,195,189);fill-rule:nonzero;"/>
        <path d="M142.34,167.61L150.29,174.2C150.002,175.439 149.825,176.7 149.76,177.97C146.83,177.55 142.76,174.36 142.31,171.31C142.09,170.086 142.1,168.831 142.34,167.61Z" style="fill-opacity:0.2;fill-rule:nonzero;"/>
        <path d="M156.44,142.74C158.33,144.15 161.56,150.11 157.44,151.67C153.32,153.23 151.81,139.28 156.44,142.74Z" style="fill:rgb(38,50,56);fill-rule:nonzero;"/>
        <path d="M134.4,154.87C136.29,163.98 136.94,169.39 142.27,173.58C144.418,175.31 147.095,176.253 149.853,176.253C156.151,176.253 161.448,171.331 161.91,165.05C162.69,156.6 159.45,143.13 149.91,140.47C148.749,140.114 147.541,139.933 146.327,139.933C139.618,139.933 134.097,145.454 134.097,152.163C134.097,153.074 134.198,153.982 134.4,154.87Z" style="fill:rgb(255,195,189);fill-rule:nonzero;"/>
        <path d="M135.59,161.73L139.41,159.18L139.66,156.96C140.011,153.742 139.409,150.49 137.93,147.61C136.451,144.73 156.5,148.3 158.8,142.49C161.1,136.68 154.56,132.31 154.56,132.31C154.56,132.31 147.99,136.08 143.56,136.38C139.13,136.68 125.56,131.14 125.56,142.61C119.56,144.46 119.76,154.33 135.56,161.73" style="fill:rgb(38,50,56);fill-rule:nonzero;"/>
        <path d="M126.23,143.06C126.23,143.06 123.77,141.11 125.6,135.15C123.35,136.27 122.27,142.36 126.23,143.06Z" style="fill:rgb(38,50,56);fill-rule:nonzero;"/>
        <path d="M131.71,165.44C133.222,167.248 135.37,168.411 137.71,168.69C140.81,169.02 141.71,166.16 140.37,163.53C139.13,161.17 136.03,158.15 133.17,159.04C130.31,159.93 129.86,163.19 131.71,165.44Z" style="fill:rgb(255,195,189);fill-rule:nonzero;"/>
        <path d="M178.88,300.76L146.93,300.76C144.06,283.42 141.75,270.37 141.75,270.37L174.66,270.37C174.66,270.37 176.51,283.2 178.88,300.76Z" style="fill:rgb(38,50,56);fill-rule:nonzero;"/>
        <path d="M125.88,300.76C125.16,283.42 124.62,270.37 124.62,270.37L156.88,270.37C156.88,270.37 157.04,283.58 157.11,300.76L125.88,300.76Z" style="fill:rgb(38,50,56);fill-rule:nonzero;"/>
        <path d="M148.73,155.9C148.84,156.65 149.32,157.21 149.81,157.16C150.3,157.11 150.61,156.45 150.5,155.71C150.39,154.97 149.91,154.4 149.42,154.45C148.93,154.5 148.62,155.15 148.73,155.9Z" style="fill:rgb(38,50,56);fill-rule:nonzero;"/>
        <path d="M157.2,155C157.31,155.75 157.79,156.31 158.28,156.25C158.77,156.19 159.08,155.55 158.97,154.81C158.86,154.07 158.38,153.5 157.89,153.55C157.4,153.6 157.09,154.22 157.2,155Z" style="fill:rgb(38,50,56);fill-rule:nonzero;"/>
        <path d="M154.56,155.64C155.787,157.831 157.301,159.848 159.06,161.64C157.92,163.02 155.58,162.7 155.58,162.7L154.56,155.64Z" style="fill:rgb(237,132,126);fill-rule:nonzero;"/>
        <path d="M152.14,165C152.655,165.055 153.175,165.055 153.69,165C153.803,164.99 153.891,164.894 153.891,164.781C153.891,164.774 153.891,164.767 153.89,164.76C153.874,164.638 153.763,164.548 153.64,164.56C151.732,164.803 149.816,164.144 148.46,162.78C148.418,162.73 148.355,162.702 148.29,162.702C148.167,162.702 148.067,162.802 148.067,162.925C148.067,162.978 148.086,163.03 148.12,163.07C149.187,164.171 150.613,164.856 152.14,165Z" style="fill:rgb(38,50,56);fill-rule:nonzero;"/>
        <path d="M145.67,153.46C145.845,153.482 146.015,153.394 146.1,153.24C146.621,152.259 147.596,151.599 148.7,151.48C148.943,151.464 149.131,151.253 149.12,151.01C149.11,150.776 148.914,150.59 148.68,150.59C148.674,150.59 148.667,150.59 148.66,150.59C147.254,150.73 146.005,151.558 145.33,152.8C145.29,152.868 145.269,152.945 145.269,153.023C145.269,153.184 145.358,153.333 145.5,153.41C145.551,153.441 145.61,153.459 145.67,153.46Z" style="fill:rgb(38,50,56);fill-rule:nonzero;"/>
        <path d="M160.37,151.67C160.476,151.678 160.582,151.65 160.67,151.59C160.865,151.452 160.919,151.182 160.79,150.98C160.02,149.762 158.717,148.979 157.28,148.87C157.041,148.87 156.841,149.061 156.83,149.3C156.83,149.543 157.027,149.745 157.27,149.75C158.414,149.858 159.443,150.495 160.05,151.47C160.124,151.578 160.24,151.651 160.37,151.67Z" style="fill:rgb(38,50,56);fill-rule:nonzero;"/>
        <path d="M128.47,203.16L126.25,207C125.503,208.333 124.773,209.667 124.06,211C122.62,213.667 121.24,216.353 119.92,219.06C118.62,221.77 117.38,224.49 116.27,227.23C115.74,228.59 115.2,229.96 114.74,231.33L114.03,233.38L113.44,235.38L113.29,235.89L113.21,236.15C113.21,236.24 113.21,236.15 113.21,236.21C113.21,236.27 113.21,236.32 113.14,236.43C113.099,236.822 113.099,237.218 113.14,237.61C113.265,238.799 113.513,239.972 113.88,241.11C114.758,243.848 115.827,246.522 117.08,249.11C119.61,254.54 122.69,260.02 125.72,265.37L120.19,269.69C117.83,267.32 115.71,264.91 113.63,262.37C111.55,259.83 109.63,257.19 107.74,254.37C105.815,251.49 104.142,248.448 102.74,245.28C101.941,243.473 101.324,241.59 100.9,239.66C100.651,238.493 100.524,237.303 100.52,236.11C100.512,235.393 100.565,234.677 100.68,233.97L100.76,233.45L100.83,233.13L100.96,232.48C101.608,229.091 102.487,225.75 103.59,222.48C104.65,219.26 105.89,216.16 107.21,213.1C108.53,210.04 109.98,207.1 111.53,204.16C112.31,202.71 113.1,201.27 113.93,199.83C114.76,198.39 115.58,197.03 116.57,195.5L128.47,203.16Z" style="fill:rgb(255,195,189);fill-rule:nonzero;"/>
        <path d="M118.93,189.11C110.13,190.4 101.06,221.04 101.06,221.04L120,231.53C120,231.53 127.67,216.95 131.33,206.13C135.16,194.79 128.36,187.73 118.93,189.11Z" style="fill:rgb(133,215,239);fill-rule:nonzero;"/>
        <path d="M101.45,216.72L100.65,221.22L120.11,231.93L122.7,228.22L101.45,216.72Z" style="fill:rgb(133,215,239);fill-rule:nonzero;"/>
        <path d="M123.2,263.29L132.5,261.67L127.73,272.44C127.73,272.44 119.23,272.39 119.62,268.01L123.2,263.29Z" style="fill:rgb(255,195,189);fill-rule:nonzero;"/>
        <path d="M139.45,267.08L135.07,275.78L127.73,272.44L132.5,261.67L139.45,267.08Z" style="fill:rgb(255,195,189);fill-rule:nonzero;"/>
    </g>
    <g id="freepik--character-2--inject-2">
        <path d="M430.31,306.42L295.5,306.42C295.496,306.42 295.492,306.42 295.488,306.42C293.601,306.42 292.048,304.867 292.048,302.98C292.048,302.94 292.049,302.9 292.05,302.86L295.24,206.48C295.329,204.512 296.96,202.934 298.93,202.91L433.73,202.91C433.738,202.91 433.745,202.91 433.753,202.91C435.635,202.91 437.183,204.458 437.183,206.34C437.183,206.387 437.182,206.433 437.18,206.48L434,302.86C433.92,304.831 432.282,306.411 430.31,306.42Z" style="fill:rgb(64,123,255);fill-rule:nonzero;"/>
        <path d="M430.31,306.42L295.5,306.42C295.496,306.42 295.492,306.42 295.488,306.42C293.601,306.42 292.048,304.867 292.048,302.98C292.048,302.94 292.049,302.9 292.05,302.86L295.24,206.48C295.329,204.512 296.96,202.934 298.93,202.91L433.73,202.91C433.738,202.91 433.745,202.91 433.753,202.91C435.635,202.91 437.183,204.458 437.183,206.34C437.183,206.387 437.182,206.433 437.18,206.48L434,302.86C433.92,304.831 432.282,306.411 430.31,306.42Z" style="fill:rgb(194,238,235);fill-opacity:0.6;fill-rule:nonzero;"/>
        <path d="M429.21,306.42L294.4,306.42C294.396,306.42 294.392,306.42 294.388,306.42C292.501,306.42 290.948,304.867 290.948,302.98C290.948,302.94 290.949,302.9 290.95,302.86L294.14,206.48C294.229,204.512 295.86,202.934 297.83,202.91L432.63,202.91C432.634,202.91 432.638,202.91 432.642,202.91C434.53,202.91 436.082,204.463 436.082,206.35C436.082,206.393 436.082,206.437 436.08,206.48L432.89,302.86C432.81,304.827 431.179,306.406 429.21,306.42Z" style="fill:rgb(182,213,208);fill-rule:nonzero;"/>
        <path d="M427.47,306.25L264.66,306.25C263.029,306.25 261.534,307.184 260.82,308.65C260.741,308.816 260.7,308.997 260.7,309.18C260.7,309.855 261.255,310.41 261.93,310.41C261.933,310.41 261.937,310.41 261.94,310.41L430.19,310.41C430.197,310.41 430.203,310.41 430.21,310.41C430.885,310.41 431.44,309.855 431.44,309.18C431.44,308.997 431.399,308.816 431.32,308.65C430.602,307.182 429.104,306.248 427.47,306.25Z" style="fill:rgb(194,238,235);fill-rule:nonzero;"/>
        <path d="M427.47,306.25L402.47,306.25C400.836,306.248 399.338,307.182 398.62,308.65C398.541,308.816 398.5,308.997 398.5,309.18C398.5,309.855 399.055,310.41 399.73,310.41C399.737,310.41 399.743,310.41 399.75,310.41L430.14,310.41C430.147,310.41 430.153,310.41 430.16,310.41C430.835,310.41 431.39,309.855 431.39,309.18C431.39,308.997 431.349,308.816 431.27,308.65C430.56,307.198 429.086,306.267 427.47,306.25Z" style="fill:rgb(38,50,56);fill-opacity:0.6;fill-rule:nonzero;"/>
        <path d="M342.32,308.89L308.52,308.89C307.69,308.895 307.01,309.58 307.01,310.41L343.84,310.41C343.84,309.576 343.154,308.89 342.32,308.89Z" style="fill-opacity:0.2;fill-rule:nonzero;"/>
        <path d="M294.17,299.37L297.17,209.97C297.207,209.203 297.842,208.59 298.61,208.58L431.61,208.58C431.614,208.58 431.618,208.58 431.621,208.58C432.351,208.58 432.951,209.18 432.951,209.91C432.951,209.93 432.951,209.95 432.95,209.97L429.95,299.37C429.923,300.137 429.288,300.755 428.52,300.76L295.52,300.76C295.516,300.76 295.513,300.76 295.509,300.76C294.774,300.76 294.169,300.155 294.169,299.42C294.169,299.403 294.169,299.387 294.17,299.37Z" style="fill:white;fill-opacity:0.9;fill-rule:nonzero;"/>
        <path d="M388.72,300.76L370.39,300.76L391.52,208.58L409.85,208.58L388.72,300.76Z" style="fill:white;fill-rule:nonzero;"/>
        <path d="M309.13,300.76L302.53,300.76L323.66,208.58L330.25,208.58L309.13,300.76Z" style="fill:white;fill-rule:nonzero;"/>
        <path d="M403.75,300.76L397.15,300.76L418.28,208.58L424.88,208.58L403.75,300.76Z" style="fill:white;fill-rule:nonzero;"/>
        <path d="M366.18,205.9C366.129,206.458 365.66,206.892 365.1,206.9C364.551,206.9 364.1,206.449 364.1,205.9C364.142,205.338 364.617,204.898 365.18,204.9C365.729,204.9 366.18,205.351 366.18,205.9Z" style="fill-opacity:0.4;fill-rule:nonzero;"/>
        <path d="M356.46,163.07C354.89,169.91 353.11,182.44 357.74,187C357.74,187 355.74,192.66 343.04,192.66C329.04,192.66 336.49,187 336.49,187C344.18,185.18 344.18,179.52 343.03,174.21L356.46,163.07Z" style="fill:rgb(181,91,82);fill-rule:nonzero;"/>
        <path d="M376.81,195.56C377.81,197.09 378.63,198.43 379.45,199.89C380.27,201.35 381.08,202.77 381.86,204.22C383.4,207.14 384.86,210.11 386.18,213.16C387.5,216.21 388.74,219.32 389.79,222.54C390.897,225.809 391.779,229.15 392.43,232.54L392.56,233.19L392.62,233.51L392.71,234.03C392.815,234.739 392.868,235.454 392.87,236.17C392.856,237.363 392.729,238.551 392.49,239.72C392.062,241.65 391.443,243.533 390.64,245.34C389.242,248.51 387.569,251.552 385.64,254.43C383.78,257.22 381.82,259.86 379.74,262.43C377.677,264.978 375.488,267.421 373.18,269.75L367.66,265.43C370.66,260.08 373.77,254.6 376.3,249.17C377.55,246.582 378.616,243.908 379.49,241.17C379.857,240.032 380.105,238.859 380.23,237.67C380.275,237.278 380.275,236.882 380.23,236.49C380.23,236.38 380.23,236.28 380.15,236.27L380.15,236.21L380.08,235.95L379.93,235.44L379.33,233.44L378.63,231.39C378.16,230.02 377.63,228.65 377.09,227.29C375.98,224.55 374.74,221.83 373.45,219.12C372.16,216.41 370.74,213.73 369.31,211.06C368.603,209.727 367.873,208.393 367.12,207.06L364.9,203.23L376.81,195.56Z" style="fill:rgb(182,91,82);fill-rule:nonzero;"/>
        <path d="M374.4,189.11C383.2,190.4 392.26,221.04 392.26,221.04L373.33,231.53C373.33,231.53 365.65,217 362,206.13C358.16,194.79 365,187.73 374.4,189.11Z" style="fill:rgb(38,50,56);fill-rule:nonzero;"/>
        <path d="M368.67,205.9L367.24,219C368.67,222.15 370.07,225 371.16,227.25C371.57,222 371.56,213.46 368.67,205.9Z" style="fill-opacity:0.3;fill-rule:nonzero;"/>
        <path d="M391.87,216.72L392.68,221.22L373.22,231.93L370.63,228.22L391.87,216.72Z" style="fill:rgb(253,205,51);fill-rule:nonzero;"/>
        <path d="M370.13,263.29L360.82,261.67L365.6,272.44C365.6,272.44 374.09,272.39 373.7,268.01L370.13,263.29Z" style="fill:rgb(181,91,82);fill-rule:nonzero;"/>
        <path d="M353.88,267.08L358.25,275.78L365.6,272.44L360.82,261.67L353.88,267.08Z" style="fill:rgb(181,91,82);fill-rule:nonzero;"/>
        <path d="M322,189.59C322,189.59 310,217.81 318.65,270.37L368.65,270.37C369.26,262.7 365.73,225.27 374.39,189.11C368.892,188.044 363.33,187.339 357.74,187C350.663,186.59 343.567,186.59 336.49,187C331.6,187.488 326.756,188.354 322,189.59Z" style="fill:rgb(38,50,56);fill-rule:nonzero;"/>
        <path d="M316.65,213.73C315.923,220.054 315.553,226.414 315.54,232.78C322.34,228.35 324.76,218.19 325.72,210.83L316.65,213.73Z" style="fill-opacity:0.3;fill-rule:nonzero;"/>
        <path d="M328.78,203.28C326.87,206.56 324.94,209.58 322.92,212.66C320.9,215.74 318.83,218.73 316.66,221.66C312.301,227.714 307.523,233.455 302.36,238.84C299.622,241.683 296.648,244.289 293.47,246.63L292.17,247.53C291.61,247.87 291.03,248.24 290.49,248.53C289.448,249.067 288.369,249.529 287.26,249.91C285.284,250.565 283.261,251.073 281.21,251.43C277.422,252.049 273.589,252.354 269.75,252.34C267.88,252.34 266.01,252.34 264.16,252.15C262.31,251.96 260.48,251.88 258.56,251.6L258.56,244.6C261.93,244.02 265.43,243.37 268.77,242.66C270.45,242.31 272.12,241.93 273.77,241.51C275.42,241.09 276.99,240.65 278.49,240.14C279.923,239.694 281.321,239.139 282.67,238.48C283.224,238.201 283.762,237.891 284.28,237.55C284.53,237.4 284.68,237.24 284.88,237.1L285.74,236.42C288.185,234.347 290.474,232.098 292.59,229.69C297.076,224.516 301.273,219.098 305.16,213.46C307.16,210.62 309.09,207.72 311.03,204.82C312.97,201.92 314.84,198.91 316.62,196.07L328.78,203.28Z" style="fill:rgb(182,91,82);fill-rule:nonzero;"/>
        <path d="M333.41,198C334.41,206.78 314.83,228.08 314.83,228.08L299.34,215.96C303.484,208.937 308.074,202.187 313.08,195.75C321.12,185.76 332.3,188.07 333.41,198Z" style="fill:rgb(38,50,56);fill-rule:nonzero;"/>
        <path d="M300.48,211.89L298.99,216.21L314.82,229.21L317.96,225.96L300.48,211.89Z" style="fill:rgb(253,205,51);fill-rule:nonzero;"/>
        <path d="M258.56,244.63L247.41,244.79L251.9,255.23C253.28,255.68 259.44,253.49 262.54,250.07L258.56,244.63Z" style="fill:rgb(181,91,82);fill-rule:nonzero;"/>
        <path d="M239.72,250.2L245.81,257.84L251.9,255.22L247.41,244.79L239.72,250.2Z" style="fill:rgb(181,91,82);fill-rule:nonzero;"/>
        <path d="M333.35,155C333.24,155.75 332.76,156.31 332.27,156.25C331.78,156.19 331.47,155.55 331.57,154.81C331.67,154.07 332.17,153.5 332.66,153.55C333.15,153.6 333.46,154.22 333.35,155Z" style="fill:rgb(38,50,56);fill-rule:nonzero;"/>
        <path d="M333.56,155.64C332.331,157.832 330.815,159.85 329.05,161.64C330.2,163.02 332.54,162.7 332.54,162.7L333.56,155.64Z" style="fill:rgb(160,39,36);fill-rule:nonzero;"/>
        <path d="M332.29,161.16C330.62,161.16 329.11,158.75 328.84,155.67C328.585,153.958 329.001,152.213 330,150.8C330.346,150.382 330.857,150.134 331.4,150.12C333.07,150.12 334.58,152.52 334.85,155.6C335.115,157.312 334.707,159.063 333.71,160.48C333.36,160.894 332.851,161.141 332.31,161.16L332.29,161.16ZM331.39,150.62C331,150.642 330.637,150.827 330.39,151.13C329.497,152.448 329.139,154.058 329.39,155.63C329.63,158.36 330.98,160.63 332.39,160.63C332.781,160.604 333.144,160.416 333.39,160.11C334.288,158.798 334.647,157.189 334.39,155.62C334.1,152.92 332.75,150.62 331.39,150.62Z" style="fill:rgb(38,50,56);fill-rule:nonzero;"/>
        <path d="M336,151.67C336.103,151.678 336.206,151.65 336.29,151.59C336.415,151.509 336.491,151.37 336.491,151.22C336.491,151.135 336.467,151.051 336.42,150.98C335.65,149.762 334.347,148.979 332.91,148.87C332.671,148.87 332.471,149.061 332.46,149.3C332.46,149.543 332.657,149.745 332.9,149.75C334.044,149.858 335.073,150.495 335.68,151.47C335.754,151.578 335.87,151.651 336,151.67Z" style="fill:rgb(38,50,56);fill-rule:nonzero;"/>
        <path d="M358.93,154.87C357.03,163.98 356.39,169.39 351.05,173.58C348.903,175.305 346.231,176.246 343.477,176.246C337.181,176.246 331.886,171.328 331.42,165.05C330.64,156.6 333.87,143.13 343.42,140.47C344.577,140.117 345.78,139.938 346.99,139.938C353.704,139.938 359.23,145.463 359.23,152.178C359.23,153.084 359.129,153.986 358.93,154.87Z" style="fill:rgb(181,91,82);fill-rule:nonzero;"/>
        <path d="M371.35,300.76C371.819,290.557 370.928,280.338 368.7,270.37L336.44,270.37C338.945,280.304 340.185,290.515 340.13,300.76L371.35,300.76Z" style="fill:rgb(253,205,51);fill-rule:nonzero;"/>
        <path d="M339.17,157.61C337.39,156.72 335.17,147.83 335.78,144.67C336.39,141.51 343.56,138.11 350.61,139.39C357.66,140.67 360.69,143.14 362.06,149.56C363.47,156.22 358.33,167.31 355.79,168.17C352.746,169.248 349.38,168.964 346.56,167.39C344.29,166 343.11,155.78 339.17,157.61Z" style="fill:rgb(38,50,56);fill-rule:nonzero;"/>
        <path d="M337.3,147.86C333.86,148.06 330.58,142.58 333.74,137.69C335.59,134.848 338.948,133.346 342.3,133.86C345.652,134.374 340.86,136.67 345.66,136.08C350.46,135.49 359.4,136.83 362.52,140.19C366.38,144.33 364.05,152.47 358.24,150.47C352.43,148.47 337.3,147.86 337.3,147.86Z" style="fill:rgb(38,50,56);fill-rule:nonzero;"/>
        <path d="M336.38,148C334.925,147.931 333.569,147.238 332.66,146.1C330.83,143.912 330.388,140.868 331.52,138.25C331.559,138.154 331.652,138.092 331.755,138.092C331.894,138.092 332.008,138.206 332.008,138.345C332.008,138.378 332.002,138.41 331.99,138.44C330.915,140.88 331.323,143.73 333.04,145.77C333.982,147.033 335.556,147.667 337.11,147.41C337.241,147.384 337.372,147.462 337.41,147.59C337.442,147.724 337.362,147.861 337.23,147.9C336.952,147.968 336.666,148.001 336.38,148Z" style="fill:rgb(38,50,56);fill-rule:nonzero;"/>
        <path d="M344.82,156.46C344.966,158.821 344.204,161.152 342.69,162.97C340.69,165.34 338.02,163.91 337.21,161.06C336.48,158.49 336.65,154.17 339.34,152.84C342.03,151.51 344.61,153.57 344.82,156.46Z" style="fill:rgb(181,91,82);fill-rule:nonzero;"/>
        <path d="M314.45,300.76L350.3,300.76C352.034,290.727 352.461,280.512 351.57,270.37L318.67,270.37C318.67,270.37 316.82,283.2 314.45,300.76Z" style="fill:rgb(253,205,51);fill-rule:nonzero;"/>
    </g>
</svg>
